<svg width="1947" height="1469" viewBox="0 0 1947 1469" fill="none" xmlns="http://www.w3.org/2000/svg">
<g clip-path="url(#clip0_944_13629)">
<rect width="1947" height="1469" fill="url(#paint0_linear_944_13629)"/>
<g opacity="0.4">
<path fill-rule="evenodd" clip-rule="evenodd" d="M1458.1 557.426C1553.09 635.488 1613.17 748.086 1625.14 870.449L1579 874.96C1568.23 764.834 1514.16 663.496 1428.67 593.24C1343.18 522.983 1233.29 489.564 1123.16 500.333C1013.04 511.102 911.698 565.178 841.442 650.664C771.186 736.15 737.766 846.044 748.535 956.17L702.398 960.682C690.432 838.319 727.565 716.215 805.628 621.23C883.69 526.246 996.288 466.162 1118.65 454.196C1241.01 442.23 1363.12 479.363 1458.1 557.426Z" fill="#F41010"/>
<path fill-rule="evenodd" clip-rule="evenodd" d="M1441.15 579.275C1530.58 652.772 1587.15 758.784 1598.42 873.99L1554.98 878.239C1544.84 774.553 1493.93 679.142 1413.44 612.994C1332.95 546.847 1229.49 515.382 1125.8 525.521C1022.11 535.661 926.704 586.574 860.557 667.06C794.409 747.546 762.944 851.013 773.083 954.699L729.646 958.946C718.38 843.74 753.341 728.777 826.838 639.348C900.335 549.918 1006.35 493.348 1121.55 482.083C1236.76 470.817 1351.72 505.778 1441.15 579.275Z" fill="#FA7D09"/>
<path fill-rule="evenodd" clip-rule="evenodd" d="M1414.18 598.291C1495.26 664.929 1546.55 761.046 1556.77 865.5L1517.38 869.352C1508.19 775.343 1462.03 688.837 1389.05 628.864C1316.08 568.89 1222.27 540.362 1128.26 549.555C1034.25 558.748 947.746 604.909 887.772 677.883C827.799 750.857 799.271 844.667 808.464 938.676L769.08 942.527C758.865 838.073 790.563 733.84 857.201 652.757C923.838 571.675 1019.96 520.385 1124.41 510.17C1228.86 499.956 1333.1 531.654 1414.18 598.291Z" fill="#FAD309"/>
<path fill-rule="evenodd" clip-rule="evenodd" d="M1390.77 620.678C1464.6 681.353 1511.3 768.873 1520.6 863.982L1484.74 867.489C1476.36 781.89 1434.33 703.123 1367.89 648.515C1301.44 593.907 1216.02 567.931 1130.43 576.301C1044.83 584.672 966.06 626.703 911.452 693.149C856.844 759.595 830.868 845.012 839.238 930.611L803.378 934.117C794.078 839.008 822.94 744.1 883.616 670.271C944.292 596.442 1031.81 549.741 1126.92 540.44C1222.03 531.139 1316.94 560.002 1390.77 620.678Z" fill="#0AE76F"/>
<path fill-rule="evenodd" clip-rule="evenodd" d="M1367.79 638.595C1434.46 693.391 1476.64 772.43 1485.04 858.322L1452.65 861.489C1445.09 784.186 1407.14 713.052 1347.13 663.735C1287.12 614.419 1209.98 590.96 1132.68 598.519C1055.37 606.078 984.24 644.037 934.923 704.044C885.607 764.051 862.148 841.191 869.707 918.495L837.322 921.661C828.923 835.769 854.988 750.057 909.784 683.383C964.58 616.708 1043.62 574.532 1129.51 566.133C1215.4 557.734 1301.12 583.799 1367.79 638.595Z" fill="#0A6FE7"/>
<path fill-rule="evenodd" clip-rule="evenodd" d="M1350.65 660.708C1411.76 710.931 1450.41 783.373 1458.11 862.097L1428.43 865C1421.5 794.149 1386.71 728.951 1331.71 683.75C1276.71 638.55 1206.01 617.049 1135.16 623.977C1064.31 630.906 999.109 665.696 953.909 720.695C908.708 775.694 887.207 846.396 894.136 917.248L864.452 920.151C856.754 841.426 880.644 762.868 930.867 701.758C981.09 640.648 1053.53 601.992 1132.26 594.294C1210.98 586.595 1289.54 610.486 1350.65 660.708Z" fill="#AD0AE7"/>
</g>
<path d="M1614.19 633.111C1633.1 610.389 1668.68 612.729 1684.45 637.732L1893.95 969.793C1912.93 999.874 1889.77 1038.78 1854.28 1036.45L1393.6 1006.15C1358.11 1003.82 1340.25 962.211 1363.01 934.875L1614.19 633.111Z" fill="#C2DCE4"/>
<path fill-rule="evenodd" clip-rule="evenodd" d="M1729.16 706.081C1725.39 707.05 1721.59 707.747 1717.98 708.289C1711.76 709.226 1705.38 709.156 1699.06 709.086C1697.4 709.068 1695.74 709.05 1694.1 709.05C1686.99 709.05 1679.81 708.994 1672.72 708.479C1670.24 708.299 1667.73 708.172 1665.2 708.044C1657.34 707.647 1649.35 707.243 1641.82 705.215C1638.32 704.274 1635.28 703.283 1632.47 700.92C1629.78 698.67 1627.94 696.36 1625.97 693.487C1625.4 692.663 1625.03 691.824 1624.65 690.976C1624.41 690.438 1624.17 689.895 1623.88 689.351C1622.74 687.234 1619.83 685.947 1617.52 684.924C1617.1 684.738 1616.7 684.562 1616.33 684.39C1613.17 682.906 1609.79 681.947 1606.42 680.991C1604.59 680.472 1602.77 679.953 1600.98 679.35C1596.05 677.694 1591.35 675.709 1587.04 672.789C1585.71 671.883 1584.45 670.945 1583.25 669.958L1614.97 631.846C1633.88 609.124 1669.46 611.463 1685.24 636.467L1729.16 706.081Z" fill="#FBF9F9"/>
<path d="M295.877 696.407C313.934 676.129 345.635 676.129 363.692 696.407L542.006 896.65C568.072 925.921 547.293 972.247 508.099 972.247H151.471C112.276 972.247 91.4973 925.921 117.563 896.65L295.877 696.407Z" fill="#C2DCE4"/>
<path fill-rule="evenodd" clip-rule="evenodd" d="M400.089 737.112C385.199 737.579 369.41 741.024 355.372 745.856C354.491 746.16 353.41 746.483 352.211 746.842C345.895 748.731 336.301 751.602 335.234 757.738C334.627 761.225 335.92 765.237 337.208 769.237C340.248 778.675 343.267 788.045 321.273 790.281C296.359 792.815 266.338 787.078 241.789 779.656C236.038 777.917 231.329 775.657 227.547 772.973L295.877 696.24C313.935 675.962 345.635 675.962 363.692 696.24L400.089 737.112Z" fill="#FBF9F9"/>
<path d="M649.454 547.479C652.685 549.094 656.935 552.92 656.935 552.92C656.935 552.92 662.177 549.346 665.776 547.479C670.11 545.23 675.977 545.439 675.977 545.439C675.977 545.439 669.248 548.824 663.736 554.28C659.26 558.709 657.48 563.121 656.935 563.121C656.255 563.121 654.311 558.567 650.134 553.6C647.286 550.213 641.973 547.479 638.572 545.439C638.572 545.439 646.223 545.863 649.454 547.479Z" fill="#BAE1FF"/>
<path d="M653.534 490.352C656.765 491.967 661.015 495.793 661.015 495.793C661.015 495.793 666.257 492.219 669.856 490.352C674.19 488.103 680.057 488.312 680.057 488.312C680.057 488.312 673.328 491.698 667.816 497.153C663.34 501.582 661.56 505.994 661.015 505.994C660.335 505.994 658.391 501.44 654.214 496.473C651.366 493.086 646.053 490.352 642.652 488.312C642.652 488.312 650.303 488.736 653.534 490.352Z" fill="#BAE1FF"/>
<path d="M329.811 461.787C333.042 463.403 337.292 467.228 337.292 467.228C337.292 467.228 342.535 463.654 346.133 461.787C350.468 459.539 356.335 459.747 356.335 459.747C356.335 459.747 349.606 463.133 344.093 468.589C339.618 473.018 337.837 477.43 337.292 477.43C336.612 477.43 334.669 472.875 330.491 467.908C327.643 464.522 322.33 461.787 318.93 459.747C318.93 459.747 326.58 460.172 329.811 461.787Z" fill="#BAE1FF"/>
<path d="M1158.58 569.556C1162.34 571.42 1167.29 575.832 1167.29 575.832C1167.29 575.832 1173.39 571.71 1177.58 569.556C1182.62 566.962 1189.45 567.203 1189.45 567.203C1189.45 567.203 1181.62 571.109 1175.2 577.402C1170 582.511 1167.92 587.6 1167.29 587.6C1166.5 587.6 1164.24 582.346 1159.38 576.617C1156.06 572.711 1149.88 569.556 1145.92 567.203C1145.92 567.203 1154.82 567.693 1158.58 569.556Z" fill="#BAE1FF"/>
<path d="M706.779 510.124C710.068 511.243 714.396 513.89 714.396 513.89C714.396 513.89 719.734 511.417 723.398 510.124C727.811 508.568 733.784 508.713 733.784 508.713C733.784 508.713 726.933 511.056 721.32 514.832C716.763 517.897 714.951 520.951 714.396 520.951C713.703 520.951 711.724 517.799 707.471 514.361C704.571 512.017 699.162 510.124 695.699 508.712C695.699 508.712 703.489 509.006 706.779 510.124Z" fill="#BAE1FF"/>
<path d="M372.173 472.041C375.463 473.159 379.79 475.806 379.79 475.806C379.79 475.806 385.128 473.333 388.792 472.041C393.205 470.484 399.179 470.629 399.179 470.629C399.179 470.629 392.327 472.972 386.715 476.748C382.158 479.813 380.345 482.867 379.79 482.867C379.098 482.867 377.119 479.715 372.866 476.277C369.965 473.933 364.556 472.041 361.094 470.628C361.094 470.628 368.883 470.922 372.173 472.041Z" fill="#BAE1FF"/>
<path d="M1206.19 555.168C1209.95 556.411 1214.89 559.353 1214.89 559.353C1214.89 559.353 1221 556.604 1225.18 555.168C1230.23 553.439 1237.05 553.6 1237.05 553.6C1237.05 553.6 1229.22 556.203 1222.81 560.399C1217.6 563.805 1215.53 567.198 1214.89 567.198C1214.1 567.198 1211.84 563.695 1206.98 559.876C1203.67 557.271 1197.48 555.168 1193.53 553.599C1193.53 553.599 1202.43 553.926 1206.19 555.168Z" fill="#BAE1FF"/>
<path d="M673.863 523.773C675.861 522.779 678.488 520.426 678.488 520.426C678.488 520.426 681.729 522.624 683.954 523.773C686.633 525.157 690.26 525.028 690.26 525.028C690.26 525.028 686.1 522.945 682.692 519.589C679.926 516.864 678.825 514.15 678.488 514.15C678.068 514.15 676.866 516.952 674.284 520.007C672.523 522.091 669.239 523.773 667.137 525.028C667.137 525.028 671.866 524.767 673.863 523.773Z" fill="#BAE1FF"/>
<path d="M350.139 495.211C352.136 494.217 354.763 491.863 354.763 491.863C354.763 491.863 358.004 494.062 360.229 495.211C362.908 496.594 366.535 496.466 366.535 496.466C366.535 496.466 362.375 494.383 358.968 491.026C356.201 488.301 355.1 485.587 354.763 485.587C354.343 485.587 353.142 488.389 350.559 491.445C348.798 493.528 345.514 495.211 343.412 496.466C343.412 496.466 348.141 496.204 350.139 495.211Z" fill="#BAE1FF"/>
<path d="M1168.4 602.349C1170.63 601.107 1173.57 598.165 1173.57 598.165C1173.57 598.165 1177.19 600.913 1179.68 602.349C1182.67 604.078 1186.73 603.918 1186.73 603.918C1186.73 603.918 1182.08 601.314 1178.27 597.119C1175.18 593.713 1173.95 590.32 1173.57 590.32C1173.1 590.32 1171.76 593.822 1168.87 597.642C1166.9 600.246 1163.23 602.349 1160.88 603.918C1160.88 603.918 1166.17 603.591 1168.4 602.349Z" fill="#BAE1FF"/>
<path d="M722.83 552.337C724.828 551.344 727.455 548.99 727.455 548.99C727.455 548.99 730.696 551.189 732.92 552.337C735.6 553.721 739.227 553.593 739.227 553.593C739.227 553.593 735.067 551.51 731.659 548.153C728.892 545.428 727.792 542.714 727.455 542.714C727.034 542.714 725.833 545.516 723.251 548.572C721.49 550.655 718.206 552.337 716.104 553.593C716.104 553.593 720.833 553.331 722.83 552.337Z" fill="#BAE1FF"/>
<path d="M409.986 457.125C411.984 456.131 414.611 453.777 414.611 453.777C414.611 453.777 417.852 455.976 420.077 457.125C422.756 458.508 426.383 458.38 426.383 458.38C426.383 458.38 422.223 456.297 418.815 452.94C416.049 450.216 414.948 447.501 414.611 447.501C414.191 447.501 412.989 450.303 410.407 453.359C408.646 455.442 405.362 457.125 403.26 458.38C403.26 458.38 407.989 458.118 409.986 457.125Z" fill="#BAE1FF"/>
<path d="M1148.39 544.018C1150.74 542.9 1153.84 540.252 1153.84 540.252C1153.84 540.252 1157.65 542.726 1160.26 544.018C1163.42 545.575 1167.68 545.43 1167.68 545.43C1167.68 545.43 1162.79 543.087 1158.78 539.311C1155.53 536.245 1154.23 533.192 1153.84 533.192C1153.34 533.192 1151.93 536.344 1148.89 539.782C1146.82 542.125 1142.95 544.018 1140.48 545.43C1140.48 545.43 1146.04 545.136 1148.39 544.018Z" fill="#BAE1FF"/>
<path d="M1209.6 631.071C1211.95 629.953 1215.04 627.305 1215.04 627.305C1215.04 627.305 1218.86 629.779 1221.47 631.071C1224.63 632.627 1228.89 632.483 1228.89 632.483C1228.89 632.483 1224 630.139 1219.99 626.364C1216.74 623.298 1215.44 620.245 1215.04 620.245C1214.55 620.245 1213.14 623.397 1210.1 626.834C1208.03 629.178 1204.16 631.071 1201.69 632.483C1201.69 632.483 1207.25 632.189 1209.6 631.071Z" fill="#BAE1FF"/>
<path d="M604.492 561.859C606.49 560.865 609.117 558.512 609.117 558.512C609.117 558.512 612.358 560.71 614.582 561.859C617.262 563.242 620.889 563.114 620.889 563.114C620.889 563.114 616.729 561.031 613.321 557.675C610.554 554.95 609.454 552.236 609.117 552.236C608.697 552.236 607.495 555.038 604.913 558.093C603.152 560.177 599.868 561.859 597.766 563.114C597.766 563.114 602.495 562.853 604.492 561.859Z" fill="#BAE1FF"/>
<path d="M291.651 515.613C293.648 514.619 296.275 512.266 296.275 512.266C296.275 512.266 299.516 514.464 301.741 515.613C304.42 516.996 308.047 516.868 308.047 516.868C308.047 516.868 303.887 514.785 300.479 511.429C297.713 508.704 296.612 505.99 296.275 505.99C295.855 505.99 294.653 508.792 292.071 511.847C290.31 513.931 287.026 515.613 284.924 516.868C284.924 516.868 289.653 516.607 291.651 515.613Z" fill="#BAE1FF"/>
<path d="M1100.79 625.629C1103.14 624.511 1106.23 621.864 1106.23 621.864C1106.23 621.864 1110.04 624.337 1112.66 625.629C1115.81 627.186 1120.08 627.041 1120.08 627.041C1120.08 627.041 1115.18 624.698 1111.18 620.922C1107.92 617.857 1106.63 614.803 1106.23 614.803C1105.73 614.803 1104.32 617.955 1101.28 621.393C1099.21 623.737 1095.35 625.629 1092.88 627.042C1092.88 627.042 1098.44 626.748 1100.79 625.629Z" fill="#BAE1FF"/>
<path d="M611.295 511.486C613.292 512.604 615.92 515.251 615.92 515.251C615.92 515.251 619.161 512.778 621.385 511.486C624.065 509.929 627.692 510.074 627.692 510.074C627.692 510.074 623.532 512.417 620.124 516.193C617.357 519.259 616.257 522.312 615.92 522.312C615.499 522.312 614.298 519.16 611.716 515.722C609.955 513.378 606.67 511.486 604.568 510.074C604.568 510.074 609.298 510.368 611.295 511.486Z" fill="#BAE1FF"/>
<path d="M309.332 489.722C311.33 490.84 313.957 493.488 313.957 493.488C313.957 493.488 317.198 491.014 319.422 489.722C322.102 488.166 325.729 488.31 325.729 488.31C325.729 488.31 321.569 490.654 318.161 494.429C315.394 497.495 314.294 500.548 313.957 500.548C313.536 500.548 312.335 497.396 309.753 493.959C307.992 491.615 304.708 489.722 302.605 488.31C302.605 488.31 307.335 488.604 309.332 489.722Z" fill="#BAE1FF"/>
<path d="M1121.19 595.973C1123.54 597.216 1126.63 600.157 1126.63 600.157C1126.63 600.157 1130.44 597.409 1133.06 595.973C1136.21 594.244 1140.48 594.404 1140.48 594.404C1140.48 594.404 1135.59 597.008 1131.58 601.203C1128.32 604.61 1127.03 608.002 1126.63 608.002C1126.14 608.002 1124.72 604.5 1121.69 600.68C1119.61 598.076 1115.75 595.973 1113.28 594.404C1113.28 594.404 1118.84 594.731 1121.19 595.973Z" fill="#BAE1FF"/>
<path d="M505.865 743.228C523.923 722.95 555.623 722.95 573.68 743.228L751.994 943.47C778.06 972.742 757.282 1019.07 718.087 1019.07H361.459C322.264 1019.07 301.486 972.742 327.551 943.47L505.865 743.228Z" fill="#C1D4DB"/>
<path fill-rule="evenodd" clip-rule="evenodd" d="M651.177 830.087C643.035 833.24 633.703 832.855 624.788 832.487C622.062 832.375 619.374 832.264 616.772 832.256C615.713 832.253 614.653 832.251 613.592 832.249C598.466 832.219 583.123 832.188 568.22 829.428C568.008 829.389 567.794 829.349 567.58 829.31C561.459 828.179 554.376 826.871 549.129 823.463C546.094 821.492 542.764 819.125 541.351 815.686C539.605 811.431 538.883 807.81 539.031 803.176C539.057 802.344 539.122 801.478 539.187 800.597C539.412 797.556 539.652 794.324 538.414 791.609C536.89 788.266 532.454 786.858 529.115 785.798C528.892 785.728 528.673 785.658 528.461 785.59C523.717 784.065 518.936 782.736 514.12 781.456C512.735 781.088 511.335 780.723 509.927 780.355C500.253 777.828 490.149 775.19 481.152 770.813L505.866 743.06C523.923 722.782 555.623 722.782 573.68 743.06L651.177 830.087Z" fill="#FAF7F7"/>
<path d="M610.765 197.501C577.31 189.495 551.588 221.588 551.588 221.588C511.747 164.911 452.571 197.501 452.571 249.218C419.421 199.112 358.562 238.826 397.496 300.227C321.915 338.484 361.17 394.453 417.417 394.453C870.32 394.453 671.112 334.234 671.112 334.234C671.112 334.234 707.6 296.776 697.479 272.597C687.703 249.244 643.18 259.136 643.18 259.136C643.18 226.277 641.922 204.957 610.765 197.501Z" fill="white" fill-opacity="0.92"/>
<path d="M1996.11 95.7158C1962.66 87.7095 1936.93 119.803 1936.93 119.803C1897.09 63.126 1837.92 95.7157 1837.92 147.433C1804.77 97.3266 1743.91 137.041 1782.84 198.442C1707.26 236.699 1746.52 292.668 1802.76 292.668C2255.67 292.668 2056.46 232.448 2056.46 232.448C2056.46 232.448 2092.95 194.991 2082.82 170.812C2073.05 147.459 2028.53 157.351 2028.53 157.351C2028.53 124.492 2027.27 103.172 1996.11 95.7158Z" fill="white" fill-opacity="0.92"/>
<path d="M1241.08 116.347C1220.93 111.511 1205.44 130.896 1205.44 130.896C1181.44 96.6619 1145.8 116.347 1145.8 147.586C1125.84 117.32 1089.18 141.308 1112.63 178.397C1067.11 201.505 1090.76 235.311 1124.63 235.311C1397.4 235.311 1277.43 198.937 1277.43 198.937C1277.43 198.937 1299.4 176.312 1293.31 161.707C1287.42 147.601 1260.6 153.577 1260.6 153.577C1260.6 133.729 1259.84 120.851 1241.08 116.347Z" fill="white" fill-opacity="0.92"/>
<path d="M1446.75 430.934C1419.25 425.56 1398.11 447.1 1398.11 447.1C1365.36 409.061 1316.72 430.934 1316.72 465.643C1289.47 432.015 1239.44 458.669 1271.45 499.878C1209.32 525.553 1241.59 563.116 1287.82 563.116C1660.09 563.116 1496.35 522.701 1496.35 522.701C1496.35 522.701 1526.34 497.561 1518.02 481.334C1509.99 465.661 1473.39 472.3 1473.39 472.3C1473.39 450.247 1472.36 435.938 1446.75 430.934Z" fill="white" fill-opacity="0.92"/>
<path d="M84.6929 72.8361C57.1943 67.4628 36.0519 89.0019 36.0519 89.0019C3.30351 50.9638 -45.3373 72.836 -45.3372 107.546C-72.586 73.9172 -122.61 100.571 -90.6072 141.78C-152.733 167.456 -120.466 205.019 -74.2332 205.019C298.039 205.019 134.297 164.603 134.297 164.603C134.297 164.603 164.289 139.464 155.969 123.236C147.934 107.563 111.337 114.202 111.337 114.202C111.337 92.1492 110.303 77.8405 84.6929 72.8361Z" fill="white" fill-opacity="0.92"/>
<path d="M0 919.024C0 919.024 592.935 890.603 973.5 886.353C1163.56 884.23 1270.38 880.01 1460.25 886.353C1651 892.725 1947 919.024 1947 919.024V1469H0V919.024Z" fill="#36A161"/>
<path d="M327.406 1237.83C332.848 1239.19 341.688 1239.19 351.21 1239.19C356.894 1239.19 366.205 1232.91 362.09 1228.99C359.751 1226.76 353.929 1227.63 353.929 1227.63C353.929 1227.63 363.3 1215.61 358.01 1212.67C353.745 1210.29 346.448 1217.43 346.448 1217.43C346.448 1217.43 345.888 1206.58 341.008 1203.15C333.043 1197.54 334.207 1225.59 334.207 1225.59C334.207 1225.59 329.353 1219.61 325.365 1222.19C321.346 1224.79 322.761 1236.67 327.406 1237.83Z" fill="#227342"/>
<path d="M522.711 1412.39C531.017 1414.45 544.512 1414.45 559.045 1414.45C567.721 1414.45 581.935 1404.93 575.654 1398.98C572.084 1395.6 563.197 1396.92 563.197 1396.92C563.197 1396.92 577.501 1378.71 569.425 1374.24C562.915 1370.64 551.777 1381.46 551.777 1381.46C551.777 1381.46 550.922 1365.01 543.472 1359.81C531.315 1351.3 533.091 1393.83 533.091 1393.83C533.091 1393.83 525.683 1384.76 519.596 1388.67C513.461 1392.62 515.621 1410.63 522.711 1412.39Z" fill="#227342"/>
<path d="M1794.71 1391.71C1803.02 1393.77 1816.51 1393.77 1831.05 1393.77C1839.72 1393.77 1853.93 1384.25 1847.65 1378.3C1844.08 1374.92 1835.2 1376.24 1835.2 1376.24C1835.2 1376.24 1849.5 1358.03 1841.43 1353.56C1834.91 1349.95 1823.78 1360.78 1823.78 1360.78C1823.78 1360.78 1822.92 1344.33 1815.47 1339.12C1803.32 1330.62 1805.09 1373.15 1805.09 1373.15C1805.09 1373.15 1797.68 1364.08 1791.6 1367.99C1785.46 1371.94 1787.62 1389.95 1794.71 1391.71Z" fill="#227342"/>
<path d="M453.922 996.262C450.969 997.016 446.171 997.016 441.004 997.016C437.919 997.016 432.865 993.533 435.098 991.358C436.368 990.122 439.528 990.604 439.528 990.604C439.528 990.604 434.442 983.94 437.313 982.305C439.628 980.987 443.588 984.946 443.588 984.946C443.588 984.946 443.892 978.93 446.541 977.024C450.863 973.914 450.232 989.472 450.232 989.472C450.232 989.472 452.866 986.154 455.03 987.586C457.211 989.03 456.443 995.618 453.922 996.262Z" fill="#227342"/>
<path d="M305.377 1052.65C302.424 1053.4 297.626 1053.4 292.459 1053.4C289.374 1053.4 284.32 1049.92 286.553 1047.74C287.823 1046.51 290.983 1046.99 290.983 1046.99C290.983 1046.99 285.897 1040.33 288.768 1038.69C291.083 1037.37 295.043 1041.33 295.043 1041.33C295.043 1041.33 295.347 1035.32 297.996 1033.41C302.318 1030.3 301.687 1045.86 301.687 1045.86C301.687 1045.86 304.321 1042.54 306.485 1043.97C308.666 1045.42 307.899 1052 305.377 1052.65Z" fill="#227342"/>
<path d="M1566.38 1037.65C1563.42 1038.4 1558.63 1038.4 1553.46 1038.4C1550.37 1038.4 1545.32 1034.92 1547.55 1032.74C1548.82 1031.51 1551.98 1031.99 1551.98 1031.99C1551.98 1031.99 1546.9 1025.33 1549.77 1023.69C1552.08 1022.37 1556.04 1026.33 1556.04 1026.33C1556.04 1026.33 1556.35 1020.32 1559 1018.41C1563.32 1015.3 1562.69 1030.86 1562.69 1030.86C1562.69 1030.86 1565.32 1027.54 1567.49 1028.97C1569.67 1030.42 1568.9 1037 1566.38 1037.65Z" fill="#227342"/>
<path d="M189.377 993.648C186.424 994.403 181.626 994.403 176.459 994.403C173.374 994.403 168.32 990.92 170.553 988.745C171.823 987.508 174.983 987.99 174.983 987.99C174.983 987.99 169.897 981.327 172.768 979.692C175.083 978.374 179.043 982.332 179.043 982.332C179.043 982.332 179.347 976.317 181.996 974.411C186.318 971.301 185.687 986.859 185.687 986.859C185.687 986.859 188.321 983.541 190.485 984.973C192.666 986.416 191.899 993.005 189.377 993.648Z" fill="#227342"/>
<path d="M1738.38 1031.65C1735.42 1032.4 1730.62 1032.4 1725.46 1032.4C1722.37 1032.4 1717.32 1028.92 1719.55 1026.74C1720.82 1025.51 1723.98 1025.99 1723.98 1025.99C1723.98 1025.99 1718.89 1019.33 1721.77 1017.69C1724.08 1016.37 1728.04 1020.33 1728.04 1020.33C1728.04 1020.33 1728.35 1014.32 1730.99 1012.41C1735.32 1009.3 1734.68 1024.86 1734.68 1024.86C1734.68 1024.86 1737.32 1021.54 1739.48 1022.97C1741.66 1024.42 1740.9 1031 1738.38 1031.65Z" fill="#227342"/>
<path d="M1827.38 1003.65C1824.42 1004.4 1819.63 1004.4 1814.46 1004.4C1811.37 1004.4 1806.32 1000.92 1808.55 998.745C1809.82 997.508 1812.98 997.99 1812.98 997.99C1812.98 997.99 1807.9 991.327 1810.77 989.692C1813.08 988.374 1817.04 992.332 1817.04 992.332C1817.04 992.332 1817.35 986.317 1820 984.411C1824.32 981.301 1823.69 996.859 1823.69 996.859C1823.69 996.859 1826.32 993.541 1828.49 994.973C1830.67 996.416 1829.9 1003 1827.38 1003.65Z" fill="#227342"/>
<path d="M1389.06 1011.22C1392.01 1011.98 1396.81 1011.98 1401.98 1011.98C1405.06 1011.98 1410.12 1008.49 1407.88 1006.32C1406.61 1005.08 1403.45 1005.56 1403.45 1005.56C1403.45 1005.56 1408.54 998.901 1405.67 997.266C1403.35 995.948 1399.39 999.907 1399.39 999.907C1399.39 999.907 1399.09 993.891 1396.44 991.985C1392.12 988.875 1392.75 1004.43 1392.75 1004.43C1392.75 1004.43 1390.12 1001.11 1387.95 1002.55C1385.77 1003.99 1386.54 1010.58 1389.06 1011.22Z" fill="#227342"/>
<path d="M1055.82 966.338C1058.77 967.092 1063.57 967.092 1068.73 967.092C1071.82 967.092 1076.87 963.609 1074.64 961.434C1073.37 960.198 1070.21 960.68 1070.21 960.68C1070.21 960.68 1075.3 954.017 1072.43 952.381C1070.11 951.063 1066.15 955.022 1066.15 955.022C1066.15 955.022 1065.85 949.006 1063.2 947.101C1058.88 943.99 1059.51 959.548 1059.51 959.548C1059.51 959.548 1056.87 956.23 1054.71 957.662C1052.53 959.106 1053.29 965.694 1055.82 966.338Z" fill="#227342"/>
<path d="M1527.11 1243.27C1521.67 1244.63 1512.83 1244.63 1503.31 1244.63C1497.62 1244.63 1488.31 1238.35 1492.43 1234.43C1494.77 1232.2 1500.59 1233.07 1500.59 1233.07C1500.59 1233.07 1491.22 1221.05 1496.51 1218.11C1500.77 1215.73 1508.07 1222.87 1508.07 1222.87C1508.07 1222.87 1508.63 1212.02 1513.51 1208.58C1521.47 1202.98 1520.31 1231.03 1520.31 1231.03C1520.31 1231.03 1525.16 1225.05 1529.15 1227.63C1533.17 1230.23 1531.76 1242.11 1527.11 1243.27Z" fill="#227342"/>
<path d="M1702.7 1157.43C1697.26 1158.79 1688.42 1158.79 1678.9 1158.79C1673.22 1158.79 1663.9 1152.51 1668.02 1148.58C1670.36 1146.36 1676.18 1147.22 1676.18 1147.22C1676.18 1147.22 1666.81 1135.21 1672.1 1132.26C1676.36 1129.89 1683.66 1137.02 1683.66 1137.02C1683.66 1137.02 1684.22 1126.18 1689.1 1122.74C1697.07 1117.13 1695.9 1145.18 1695.9 1145.18C1695.9 1145.18 1700.76 1139.2 1704.74 1141.78C1708.76 1144.39 1707.35 1156.26 1702.7 1157.43Z" fill="#227342"/>
<path d="M107.703 1200.43C102.261 1201.79 93.421 1201.79 83.8997 1201.79C78.2157 1201.79 68.9043 1195.51 73.019 1191.58C75.358 1189.36 81.1801 1190.22 81.1801 1190.22C81.1801 1190.22 71.809 1178.21 77.0995 1175.26C81.3648 1172.89 88.6611 1180.02 88.6611 1180.02C88.6611 1180.02 89.2217 1169.18 94.1018 1165.74C102.066 1160.13 100.903 1188.18 100.903 1188.18C100.903 1188.18 105.756 1182.2 109.744 1184.78C113.763 1187.39 112.348 1199.26 107.703 1200.43Z" fill="#227342"/>
<path d="M1210.99 966.808C1206.78 967.446 1202.09 966.808 1194.85 966.808C1190.53 966.808 1185.66 960.459 1182.96 957.137C1180.89 954.591 1177.88 947.465 1181.92 942.375C1188.05 934.674 1193.3 944.92 1193.3 944.92C1193.3 944.92 1191.75 911.324 1206.23 911.324C1230.02 911.324 1213.47 947.465 1213.47 947.465C1213.47 947.465 1219.16 941.624 1224.33 944.92C1231.05 949.205 1217.72 965.79 1210.99 966.808Z" fill="url(#paint1_linear_944_13629)"/>
<path d="M1209.17 916.766C1209.17 916.766 1207.14 923.631 1205.39 931.048M1201.69 967.092C1201.69 967.092 1201.78 962.893 1202.02 957.571M1205.39 931.048L1201.69 922.886M1205.39 931.048C1204.68 934.043 1204.01 937.129 1203.54 939.889M1203.54 939.889C1203.34 941.096 1203.17 942.241 1203.05 943.289C1202.81 945.364 1202.61 947.706 1202.45 950.09M1203.54 939.889L1211.89 935.128M1202.45 950.09L1196.25 943.969M1202.45 950.09C1202.27 952.625 1202.13 955.209 1202.02 957.571M1202.02 957.571L1214.61 952.811" stroke="#518127" stroke-width="1.36019"/>
<path d="M396.677 1115.07C400.893 1115.71 405.577 1115.07 412.817 1115.07C417.138 1115.07 422.011 1108.72 424.71 1105.4C426.779 1102.85 429.792 1095.72 425.745 1090.63C419.623 1082.93 414.368 1093.18 414.368 1093.18C414.368 1093.18 415.919 1059.58 401.44 1059.58C377.652 1059.58 394.201 1095.72 394.201 1095.72C394.201 1095.72 388.512 1089.88 383.341 1093.18C376.618 1097.46 389.955 1114.05 396.677 1115.07Z" fill="url(#paint2_linear_944_13629)"/>
<path d="M398.501 1065.03C398.501 1065.03 400.525 1071.89 402.282 1079.31M405.982 1115.35C405.982 1115.35 405.893 1111.15 405.647 1105.83M402.282 1079.31L405.982 1071.15M402.282 1079.31C402.991 1082.3 403.657 1085.39 404.128 1088.15M404.128 1088.15C404.334 1089.36 404.503 1090.5 404.622 1091.55C404.858 1093.62 405.056 1095.97 405.222 1098.35M404.128 1088.15L395.781 1083.39M405.222 1098.35L411.423 1092.23M405.222 1098.35C405.398 1100.89 405.538 1103.47 405.647 1105.83M405.647 1105.83L393.061 1101.07" stroke="#518127" stroke-width="1.36019"/>
<path d="M1412.73 1176.28C1416.95 1176.92 1421.63 1176.28 1428.87 1176.28C1433.2 1176.28 1438.07 1169.93 1440.77 1166.61C1442.84 1164.06 1445.85 1156.93 1441.8 1151.84C1435.68 1144.14 1430.43 1154.39 1430.43 1154.39C1430.43 1154.39 1431.98 1120.79 1417.5 1120.79C1393.71 1120.79 1410.26 1156.93 1410.26 1156.93C1410.26 1156.93 1404.57 1151.09 1399.4 1154.39C1392.67 1158.67 1406.01 1175.26 1412.73 1176.28Z" fill="url(#paint3_linear_944_13629)"/>
<path d="M1414.56 1126.23C1414.56 1126.23 1416.58 1133.1 1418.34 1140.52M1422.04 1176.56C1422.04 1176.56 1421.95 1172.36 1421.7 1167.04M1418.34 1140.52L1422.04 1132.36M1418.34 1140.52C1419.05 1143.51 1419.71 1146.6 1420.18 1149.36M1420.18 1149.36C1420.39 1150.57 1420.56 1151.71 1420.68 1152.76C1420.91 1154.83 1421.11 1157.17 1421.28 1159.56M1420.18 1149.36L1411.84 1144.6M1421.28 1159.56L1427.48 1153.44M1421.28 1159.56C1421.46 1162.09 1421.59 1164.68 1421.7 1167.04M1421.7 1167.04L1409.12 1162.28" stroke="#518127" stroke-width="1.36019"/>
<path d="M1636.18 1042.48C1640.39 1043.12 1645.08 1042.48 1652.32 1042.48C1656.64 1042.48 1661.51 1036.13 1664.21 1032.81C1666.28 1030.27 1669.29 1023.14 1665.25 1018.05C1659.12 1010.35 1653.87 1020.6 1653.87 1020.6C1653.87 1020.6 1655.42 987 1640.94 987C1617.15 987 1633.7 1023.14 1633.7 1023.14C1633.7 1023.14 1628.01 1017.3 1622.84 1020.6C1616.12 1024.88 1629.46 1041.47 1636.18 1042.48Z" fill="url(#paint4_linear_944_13629)"/>
<path d="M1638 992.441C1638 992.441 1640.03 999.307 1641.78 1006.72M1645.48 1042.77C1645.48 1042.77 1645.39 1038.57 1645.15 1033.25M1641.78 1006.72L1645.48 998.562M1641.78 1006.72C1642.49 1009.72 1643.16 1012.8 1643.63 1015.56M1643.63 1015.56C1643.84 1016.77 1644.01 1017.92 1644.12 1018.97C1644.36 1021.04 1644.56 1023.38 1644.72 1025.77M1643.63 1015.56L1635.28 1010.8M1644.72 1025.77L1650.92 1019.65M1644.72 1025.77C1644.9 1028.3 1645.04 1030.88 1645.15 1033.25M1645.15 1033.25L1632.56 1028.49" stroke="#518127" stroke-width="1.36019"/>
<path d="M107.179 1388.48C111.395 1389.12 116.079 1388.48 123.318 1388.48C127.64 1388.48 132.512 1382.13 135.212 1378.81C137.281 1376.27 140.294 1369.14 136.247 1364.05C130.125 1356.35 124.87 1366.6 124.87 1366.6C124.87 1366.6 126.421 1333 111.942 1333C88.1541 1333 104.703 1369.14 104.703 1369.14C104.703 1369.14 99.0137 1363.3 93.8427 1366.6C87.1198 1370.88 100.457 1387.47 107.179 1388.48Z" fill="url(#paint5_linear_944_13629)"/>
<path d="M109.003 1338.44C109.003 1338.44 111.027 1345.31 112.784 1352.72M116.484 1388.77C116.484 1388.77 116.395 1384.57 116.149 1379.25M112.784 1352.72L116.484 1344.56M112.784 1352.72C113.493 1355.72 114.159 1358.8 114.63 1361.56M114.63 1361.56C114.836 1362.77 115.005 1363.92 115.124 1364.97C115.36 1367.04 115.558 1369.38 115.724 1371.77M114.63 1361.56L106.283 1356.8M115.724 1371.77L121.925 1365.65M115.724 1371.77C115.9 1374.3 116.04 1376.88 116.149 1379.25M116.149 1379.25L103.562 1374.49" stroke="#518127" stroke-width="1.36019"/>
<path d="M589.818 950.569C586.837 951.02 583.523 950.569 578.403 950.569C575.346 950.569 571.9 946.078 569.99 943.728C568.527 941.928 566.396 936.887 569.258 933.287C573.588 927.84 577.305 935.087 577.305 935.087C577.305 935.087 576.208 911.324 586.449 911.324C603.275 911.324 591.57 936.887 591.57 936.887C591.57 936.887 595.594 932.756 599.251 935.087C604.007 938.118 594.573 949.849 589.818 950.569Z" fill="url(#paint6_linear_944_13629)"/>
<path d="M588.529 915.172C588.529 915.172 587.097 920.028 585.855 925.274M583.237 950.769C583.237 950.769 583.3 947.798 583.474 944.034M585.855 925.274L583.237 919.501M585.855 925.274C585.353 927.393 584.882 929.575 584.549 931.527M584.549 931.527C584.403 932.381 584.283 933.191 584.199 933.932C584.033 935.4 583.892 937.056 583.775 938.743M584.549 931.527L590.453 928.16M583.775 938.743L579.389 934.414M583.775 938.743C583.65 940.536 583.551 942.363 583.474 944.034M583.474 944.034L592.377 940.667" stroke="#518127" stroke-width="1.36019"/>
<g filter="url(#filter0_d_944_13629)">
<path d="M346.092 1377.26C359.94 1379.81 373.725 1385.59 373.328 1403.42C372.933 1421.15 356.766 1424.81 342.979 1427.22C325.702 1430.24 305.896 1427.14 304.07 1405.03C302.135 1381.6 327.796 1373.89 346.092 1377.26Z" fill="#D9E5D5"/>
</g>
<g filter="url(#filter1_d_944_13629)">
<path d="M128.125 1082.75C141.974 1085.3 155.758 1091.08 155.361 1108.91C154.966 1126.64 138.799 1130.3 125.012 1132.71C107.735 1135.73 87.9294 1132.63 86.1034 1110.52C84.1678 1087.09 109.829 1079.38 128.125 1082.75Z" fill="#D9E5D5"/>
</g>
<g filter="url(#filter2_d_944_13629)">
<path d="M1830.12 1077.75C1843.97 1080.3 1857.76 1086.08 1857.36 1103.91C1856.97 1121.64 1840.8 1125.3 1827.01 1127.71C1809.74 1130.73 1789.93 1127.63 1788.1 1105.52C1786.17 1082.09 1811.83 1074.38 1830.12 1077.75Z" fill="#D9E5D5"/>
</g>
<g filter="url(#filter3_d_944_13629)">
<path d="M983.863 1371.68C997.712 1374.23 1011.5 1380.01 1011.1 1397.83C1010.7 1415.56 994.537 1419.22 980.75 1421.64C963.474 1424.66 943.668 1421.55 941.842 1399.45C939.906 1376.02 965.568 1368.31 983.863 1371.68Z" fill="#D9E5D5"/>
</g>
<g filter="url(#filter4_d_944_13629)">
<path d="M1761.12 1164.75C1774.97 1167.3 1788.76 1173.08 1788.36 1190.91C1787.97 1208.64 1771.8 1212.3 1758.01 1214.71C1740.74 1217.73 1720.93 1214.63 1719.1 1192.52C1717.17 1169.09 1742.83 1161.38 1761.12 1164.75Z" fill="#D9E5D5"/>
</g>
<g filter="url(#filter5_d_944_13629)">
<path d="M1424.33 1351.42C1442.53 1353.97 1460.64 1359.75 1460.11 1377.57C1459.59 1395.3 1438.36 1398.96 1420.24 1401.38C1397.55 1404.4 1371.53 1401.29 1369.13 1379.19C1366.59 1355.76 1400.3 1348.05 1424.33 1351.42Z" fill="#D9E5D5"/>
</g>
<g filter="url(#filter6_d_944_13629)">
<path d="M463.597 1031.28C469.571 1032.15 475.518 1034.13 475.346 1040.22C475.176 1046.29 468.202 1047.54 462.255 1048.37C454.802 1049.4 446.258 1048.34 445.47 1040.78C444.635 1032.76 455.705 1030.12 463.597 1031.28Z" fill="#D9E5D5"/>
</g>
<g filter="url(#filter7_d_944_13629)">
<path d="M658.105 1123.85C664.079 1124.99 670.025 1127.57 669.854 1135.55C669.684 1143.48 662.71 1145.12 656.762 1146.2C649.31 1147.55 640.766 1146.16 639.978 1136.27C639.143 1125.79 650.213 1122.34 658.105 1123.85Z" fill="#D9E5D5"/>
</g>
<g filter="url(#filter8_d_944_13629)">
<path d="M1494.62 951.027C1500.59 951.899 1506.54 953.876 1506.37 959.975C1506.2 966.04 1499.22 967.293 1493.27 968.118C1485.82 969.153 1477.28 968.089 1476.49 960.527C1475.65 952.512 1486.72 949.875 1494.62 951.027Z" fill="#D9E5D5"/>
</g>
<g filter="url(#filter9_d_944_13629)">
<path d="M1479.35 962.867C1485.38 962.541 1491.6 963.303 1492.63 969.315C1493.67 975.294 1487.08 977.901 1481.41 979.886C1474.31 982.374 1465.73 983.022 1463.46 975.765C1461.05 968.073 1471.38 963.299 1479.35 962.867Z" fill="#D9E5D5"/>
</g>
<g filter="url(#filter10_d_944_13629)">
<path d="M139.863 1130.58C145.892 1130.25 152.112 1131.01 153.15 1137.02C154.183 1143 147.594 1145.61 141.928 1147.6C134.827 1150.08 126.241 1150.73 123.974 1143.47C121.57 1135.78 131.899 1131.01 139.863 1130.58Z" fill="#D9E5D5"/>
</g>
<path d="M1354.41 1411.42C1361.6 1413.23 1373.3 1413.23 1385.9 1413.23C1393.42 1413.23 1405.73 1404.87 1400.29 1399.65C1397.2 1396.69 1389.49 1397.84 1389.49 1397.84C1389.49 1397.84 1401.89 1381.85 1394.89 1377.93C1389.25 1374.76 1379.6 1384.26 1379.6 1384.26C1379.6 1384.26 1378.86 1369.83 1372.4 1365.25C1361.86 1357.79 1363.4 1395.13 1363.4 1395.13C1363.4 1395.13 1356.98 1387.16 1351.71 1390.6C1346.39 1394.06 1348.26 1409.88 1354.41 1411.42Z" fill="#227342"/>
<path d="M904.832 1420.84C898.766 1421.76 892.026 1420.84 881.608 1420.84C875.388 1420.84 868.377 1411.71 864.492 1406.93C861.516 1403.26 857.18 1393.01 863.003 1385.68C871.813 1374.6 879.374 1389.34 879.374 1389.34C879.374 1389.34 877.143 1341 897.978 1341C932.21 1341 908.396 1393.01 908.396 1393.01C908.396 1393.01 916.583 1384.6 924.024 1389.34C933.698 1395.51 914.506 1419.38 904.832 1420.84Z" fill="url(#paint7_linear_944_13629)"/>
<path d="M902.208 1348.83C902.208 1348.83 899.295 1358.71 896.768 1369.38M891.442 1421.25C891.442 1421.25 891.571 1415.21 891.924 1407.55M896.768 1369.38L891.442 1357.64M896.768 1369.38C895.747 1373.69 894.789 1378.13 894.111 1382.1M894.111 1382.1C893.814 1383.84 893.571 1385.49 893.4 1387C893.061 1389.98 892.775 1393.35 892.536 1396.78M894.111 1382.1L906.122 1375.25M892.536 1396.78L883.613 1387.97M892.536 1396.78C892.283 1400.43 892.081 1404.15 891.924 1407.55M891.924 1407.55L910.037 1400.7" stroke="#518127" stroke-width="1.36019"/>
<path d="M199.705 1388.84C193.639 1389.76 186.899 1388.84 176.481 1388.84C170.261 1388.84 163.25 1379.71 159.365 1374.93C156.389 1371.26 152.053 1361.01 157.876 1353.68C166.686 1342.6 174.247 1357.34 174.247 1357.34C174.247 1357.34 172.016 1309 192.851 1309C227.083 1309 203.269 1361.01 203.269 1361.01C203.269 1361.01 211.456 1352.6 218.897 1357.34C228.571 1363.51 209.379 1387.38 199.705 1388.84Z" fill="url(#paint8_linear_944_13629)"/>
<path d="M197.081 1316.83C197.081 1316.83 194.168 1326.71 191.641 1337.38M186.315 1389.25C186.315 1389.25 186.444 1383.21 186.797 1375.55M191.641 1337.38L186.315 1325.64M191.641 1337.38C190.62 1341.69 189.662 1346.13 188.984 1350.1M188.984 1350.1C188.687 1351.84 188.444 1353.49 188.273 1355C187.934 1357.98 187.648 1361.35 187.409 1364.78M188.984 1350.1L200.995 1343.25M187.409 1364.78L178.486 1355.97M187.409 1364.78C187.156 1368.43 186.954 1372.15 186.797 1375.55M186.797 1375.55L204.91 1368.7" stroke="#518127" stroke-width="1.36019"/>
<path d="M718.901 1231.6C725.73 1233.29 736.826 1233.29 748.776 1233.29C755.909 1233.29 767.596 1225.47 762.432 1220.58C759.496 1217.8 752.189 1218.88 752.189 1218.88C752.189 1218.88 763.95 1203.91 757.31 1200.23C751.957 1197.27 742.8 1206.17 742.8 1206.17C742.8 1206.17 742.096 1192.65 735.971 1188.37C725.975 1181.38 727.436 1216.34 727.436 1216.34C727.436 1216.34 721.344 1208.88 716.339 1212.1C711.295 1215.35 713.071 1230.15 718.901 1231.6Z" fill="#227342"/>
<path d="M1195.22 1112.69C1189.78 1114.05 1180.94 1114.05 1171.42 1114.05C1165.74 1114.05 1156.43 1107.77 1160.54 1103.85C1162.88 1101.62 1168.7 1102.49 1168.7 1102.49C1168.7 1102.49 1159.33 1090.48 1164.62 1087.53C1168.89 1085.15 1176.18 1092.29 1176.18 1092.29C1176.18 1092.29 1176.74 1081.44 1181.62 1078.01C1189.59 1072.4 1188.42 1100.45 1188.42 1100.45C1188.42 1100.45 1193.28 1094.47 1197.27 1097.05C1201.28 1099.65 1199.87 1111.53 1195.22 1112.69Z" fill="#227342"/>
</g>
<defs>
<filter id="filter0_d_944_13629" x="303.967" y="1376.51" width="69.3691" height="57.1282" filterUnits="userSpaceOnUse" color-interpolation-filters="sRGB">
<feFlood flood-opacity="0" result="BackgroundImageFix"/>
<feColorMatrix in="SourceAlpha" type="matrix" values="0 0 0 0 0 0 0 0 0 0 0 0 0 0 0 0 0 0 127 0" result="hardAlpha"/>
<feOffset dy="5.44074"/>
<feComposite in2="hardAlpha" operator="out"/>
<feColorMatrix type="matrix" values="0 0 0 0 0.715387 0 0 0 0 0.801758 0 0 0 0 0.691203 0 0 0 1 0"/>
<feBlend mode="normal" in2="BackgroundImageFix" result="effect1_dropShadow_944_13629"/>
<feBlend mode="normal" in="SourceGraphic" in2="effect1_dropShadow_944_13629" result="shape"/>
</filter>
<filter id="filter1_d_944_13629" x="86" y="1082" width="69.3691" height="57.1282" filterUnits="userSpaceOnUse" color-interpolation-filters="sRGB">
<feFlood flood-opacity="0" result="BackgroundImageFix"/>
<feColorMatrix in="SourceAlpha" type="matrix" values="0 0 0 0 0 0 0 0 0 0 0 0 0 0 0 0 0 0 127 0" result="hardAlpha"/>
<feOffset dy="5.44074"/>
<feComposite in2="hardAlpha" operator="out"/>
<feColorMatrix type="matrix" values="0 0 0 0 0.715387 0 0 0 0 0.801758 0 0 0 0 0.691203 0 0 0 1 0"/>
<feBlend mode="normal" in2="BackgroundImageFix" result="effect1_dropShadow_944_13629"/>
<feBlend mode="normal" in="SourceGraphic" in2="effect1_dropShadow_944_13629" result="shape"/>
</filter>
<filter id="filter2_d_944_13629" x="1788" y="1077" width="69.3691" height="57.1282" filterUnits="userSpaceOnUse" color-interpolation-filters="sRGB">
<feFlood flood-opacity="0" result="BackgroundImageFix"/>
<feColorMatrix in="SourceAlpha" type="matrix" values="0 0 0 0 0 0 0 0 0 0 0 0 0 0 0 0 0 0 127 0" result="hardAlpha"/>
<feOffset dy="5.44074"/>
<feComposite in2="hardAlpha" operator="out"/>
<feColorMatrix type="matrix" values="0 0 0 0 0.715387 0 0 0 0 0.801758 0 0 0 0 0.691203 0 0 0 1 0"/>
<feBlend mode="normal" in2="BackgroundImageFix" result="effect1_dropShadow_944_13629"/>
<feBlend mode="normal" in="SourceGraphic" in2="effect1_dropShadow_944_13629" result="shape"/>
</filter>
<filter id="filter3_d_944_13629" x="941.738" y="1370.92" width="69.3691" height="57.1282" filterUnits="userSpaceOnUse" color-interpolation-filters="sRGB">
<feFlood flood-opacity="0" result="BackgroundImageFix"/>
<feColorMatrix in="SourceAlpha" type="matrix" values="0 0 0 0 0 0 0 0 0 0 0 0 0 0 0 0 0 0 127 0" result="hardAlpha"/>
<feOffset dy="5.44074"/>
<feComposite in2="hardAlpha" operator="out"/>
<feColorMatrix type="matrix" values="0 0 0 0 0.715387 0 0 0 0 0.801758 0 0 0 0 0.691203 0 0 0 1 0"/>
<feBlend mode="normal" in2="BackgroundImageFix" result="effect1_dropShadow_944_13629"/>
<feBlend mode="normal" in="SourceGraphic" in2="effect1_dropShadow_944_13629" result="shape"/>
</filter>
<filter id="filter4_d_944_13629" x="1719" y="1164" width="69.3691" height="57.1282" filterUnits="userSpaceOnUse" color-interpolation-filters="sRGB">
<feFlood flood-opacity="0" result="BackgroundImageFix"/>
<feColorMatrix in="SourceAlpha" type="matrix" values="0 0 0 0 0 0 0 0 0 0 0 0 0 0 0 0 0 0 127 0" result="hardAlpha"/>
<feOffset dy="5.44074"/>
<feComposite in2="hardAlpha" operator="out"/>
<feColorMatrix type="matrix" values="0 0 0 0 0.715387 0 0 0 0 0.801758 0 0 0 0 0.691203 0 0 0 1 0"/>
<feBlend mode="normal" in2="BackgroundImageFix" result="effect1_dropShadow_944_13629"/>
<feBlend mode="normal" in="SourceGraphic" in2="effect1_dropShadow_944_13629" result="shape"/>
</filter>
<filter id="filter5_d_944_13629" x="1368.99" y="1350.66" width="91.1328" height="57.1282" filterUnits="userSpaceOnUse" color-interpolation-filters="sRGB">
<feFlood flood-opacity="0" result="BackgroundImageFix"/>
<feColorMatrix in="SourceAlpha" type="matrix" values="0 0 0 0 0 0 0 0 0 0 0 0 0 0 0 0 0 0 127 0" result="hardAlpha"/>
<feOffset dy="5.44074"/>
<feComposite in2="hardAlpha" operator="out"/>
<feColorMatrix type="matrix" values="0 0 0 0 0.715387 0 0 0 0 0.801758 0 0 0 0 0.691203 0 0 0 1 0"/>
<feBlend mode="normal" in2="BackgroundImageFix" result="effect1_dropShadow_944_13629"/>
<feBlend mode="normal" in="SourceGraphic" in2="effect1_dropShadow_944_13629" result="shape"/>
</filter>
<filter id="filter6_d_944_13629" x="445.426" y="1031.02" width="29.9238" height="20.402" filterUnits="userSpaceOnUse" color-interpolation-filters="sRGB">
<feFlood flood-opacity="0" result="BackgroundImageFix"/>
<feColorMatrix in="SourceAlpha" type="matrix" values="0 0 0 0 0 0 0 0 0 0 0 0 0 0 0 0 0 0 127 0" result="hardAlpha"/>
<feOffset dy="2.72037"/>
<feComposite in2="hardAlpha" operator="out"/>
<feColorMatrix type="matrix" values="0 0 0 0 0.715387 0 0 0 0 0.801758 0 0 0 0 0.691203 0 0 0 1 0"/>
<feBlend mode="normal" in2="BackgroundImageFix" result="effect1_dropShadow_944_13629"/>
<feBlend mode="normal" in="SourceGraphic" in2="effect1_dropShadow_944_13629" result="shape"/>
</filter>
<filter id="filter7_d_944_13629" x="639.934" y="1123.51" width="29.9238" height="25.8434" filterUnits="userSpaceOnUse" color-interpolation-filters="sRGB">
<feFlood flood-opacity="0" result="BackgroundImageFix"/>
<feColorMatrix in="SourceAlpha" type="matrix" values="0 0 0 0 0 0 0 0 0 0 0 0 0 0 0 0 0 0 127 0" result="hardAlpha"/>
<feOffset dy="2.72037"/>
<feComposite in2="hardAlpha" operator="out"/>
<feColorMatrix type="matrix" values="0 0 0 0 0.715387 0 0 0 0 0.801758 0 0 0 0 0.691203 0 0 0 1 0"/>
<feBlend mode="normal" in2="BackgroundImageFix" result="effect1_dropShadow_944_13629"/>
<feBlend mode="normal" in="SourceGraphic" in2="effect1_dropShadow_944_13629" result="shape"/>
</filter>
<filter id="filter8_d_944_13629" x="1476.45" y="950.77" width="29.9238" height="20.402" filterUnits="userSpaceOnUse" color-interpolation-filters="sRGB">
<feFlood flood-opacity="0" result="BackgroundImageFix"/>
<feColorMatrix in="SourceAlpha" type="matrix" values="0 0 0 0 0 0 0 0 0 0 0 0 0 0 0 0 0 0 127 0" result="hardAlpha"/>
<feOffset dy="2.72037"/>
<feComposite in2="hardAlpha" operator="out"/>
<feColorMatrix type="matrix" values="0 0 0 0 0.715387 0 0 0 0 0.801758 0 0 0 0 0.691203 0 0 0 1 0"/>
<feBlend mode="normal" in2="BackgroundImageFix" result="effect1_dropShadow_944_13629"/>
<feBlend mode="normal" in="SourceGraphic" in2="effect1_dropShadow_944_13629" result="shape"/>
</filter>
<filter id="filter9_d_944_13629" x="1463.1" y="962.805" width="29.6387" height="21.5172" filterUnits="userSpaceOnUse" color-interpolation-filters="sRGB">
<feFlood flood-opacity="0" result="BackgroundImageFix"/>
<feColorMatrix in="SourceAlpha" type="matrix" values="0 0 0 0 0 0 0 0 0 0 0 0 0 0 0 0 0 0 127 0" result="hardAlpha"/>
<feOffset dy="2.72037"/>
<feComposite in2="hardAlpha" operator="out"/>
<feColorMatrix type="matrix" values="0 0 0 0 0.715387 0 0 0 0 0.801758 0 0 0 0 0.691203 0 0 0 1 0"/>
<feBlend mode="normal" in2="BackgroundImageFix" result="effect1_dropShadow_944_13629"/>
<feBlend mode="normal" in="SourceGraphic" in2="effect1_dropShadow_944_13629" result="shape"/>
</filter>
<filter id="filter10_d_944_13629" x="123.619" y="1130.51" width="29.6387" height="21.5172" filterUnits="userSpaceOnUse" color-interpolation-filters="sRGB">
<feFlood flood-opacity="0" result="BackgroundImageFix"/>
<feColorMatrix in="SourceAlpha" type="matrix" values="0 0 0 0 0 0 0 0 0 0 0 0 0 0 0 0 0 0 127 0" result="hardAlpha"/>
<feOffset dy="2.72037"/>
<feComposite in2="hardAlpha" operator="out"/>
<feColorMatrix type="matrix" values="0 0 0 0 0.715387 0 0 0 0 0.801758 0 0 0 0 0.691203 0 0 0 1 0"/>
<feBlend mode="normal" in2="BackgroundImageFix" result="effect1_dropShadow_944_13629"/>
<feBlend mode="normal" in="SourceGraphic" in2="effect1_dropShadow_944_13629" result="shape"/>
</filter>
<linearGradient id="paint0_linear_944_13629" x1="973.5" y1="0" x2="973.5" y2="1119.43" gradientUnits="userSpaceOnUse">
<stop stop-color="#99EDFD"/>
<stop offset="1" stop-color="#F8FDFE"/>
</linearGradient>
<linearGradient id="paint1_linear_944_13629" x1="1203.05" y1="911.324" x2="1203.05" y2="967.092" gradientUnits="userSpaceOnUse">
<stop stop-color="#85C14F"/>
<stop offset="1" stop-color="#67A72D"/>
</linearGradient>
<linearGradient id="paint2_linear_944_13629" x1="404.621" y1="1059.58" x2="404.621" y2="1115.35" gradientUnits="userSpaceOnUse">
<stop stop-color="#85C14F"/>
<stop offset="1" stop-color="#67A72D"/>
</linearGradient>
<linearGradient id="paint3_linear_944_13629" x1="1420.68" y1="1120.79" x2="1420.68" y2="1176.56" gradientUnits="userSpaceOnUse">
<stop stop-color="#85C14F"/>
<stop offset="1" stop-color="#67A72D"/>
</linearGradient>
<linearGradient id="paint4_linear_944_13629" x1="1644.12" y1="987" x2="1644.12" y2="1042.77" gradientUnits="userSpaceOnUse">
<stop stop-color="#85C14F"/>
<stop offset="1" stop-color="#67A72D"/>
</linearGradient>
<linearGradient id="paint5_linear_944_13629" x1="115.123" y1="1333" x2="115.123" y2="1388.77" gradientUnits="userSpaceOnUse">
<stop stop-color="#85C14F"/>
<stop offset="1" stop-color="#67A72D"/>
</linearGradient>
<linearGradient id="paint6_linear_944_13629" x1="584.199" y1="911.324" x2="584.199" y2="950.77" gradientUnits="userSpaceOnUse">
<stop stop-color="#85C14F"/>
<stop offset="1" stop-color="#67A72D"/>
</linearGradient>
<linearGradient id="paint7_linear_944_13629" x1="893.401" y1="1341" x2="893.401" y2="1421.25" gradientUnits="userSpaceOnUse">
<stop stop-color="#85C14F"/>
<stop offset="1" stop-color="#67A72D"/>
</linearGradient>
<linearGradient id="paint8_linear_944_13629" x1="188.274" y1="1309" x2="188.274" y2="1389.25" gradientUnits="userSpaceOnUse">
<stop stop-color="#85C14F"/>
<stop offset="1" stop-color="#67A72D"/>
</linearGradient>
<clipPath id="clip0_944_13629">
<rect width="1947" height="1469" fill="white"/>
</clipPath>
</defs>
</svg>
