<svg width="64" height="64" viewBox="0 0 64 64" fill="none" xmlns="http://www.w3.org/2000/svg">
<path d="M3 43.9175V6.51496L7.95358 4.03823C8.15306 3.9385 8.38911 3.94467 8.58309 4.0547L27.5628 14.8201C29.707 16.0363 32.3177 16.0986 34.5176 14.9861L47.7055 8.31647C48.2447 8.04378 48.8407 8.56875 48.6382 9.13804L48.1679 10.4601C48.0129 10.8958 48.3358 11.3603 48.7966 11.3998C49.4492 11.4556 50.2941 11.579 50.84 11.852C51.1629 12.1749 51.2766 13.7534 51.3166 14.8246C51.3345 15.3048 51.8296 15.6281 52.2713 15.4388L54.3586 14.5443C54.6351 14.4257 54.9568 14.5064 55.1448 14.7414L56.4234 16.3395C56.6457 16.6175 57.0467 16.6727 57.336 16.4653L59.9407 14.5976C60.3836 14.28 61 14.5965 61 15.1414V43.9096C61 44.1539 60.8669 44.375 60.6528 44.4925L35.1385 58.5C35.1385 58.5 32.8551 59.5225 31.1212 59.5338C29.2576 59.546 26.8528 58.2157 26.8528 58.2157L3.33206 44.4956C3.12644 44.3757 3 44.1555 3 43.9175Z" fill="#73C4FF"/>
<path d="M3 6.51496V43.9175C3 44.1555 3.12644 44.3757 3.33206 44.4956L26.8528 58.2157M3 6.51496L26.8528 19.6834M3 6.51496L7.95358 4.03823C8.15306 3.9385 8.38911 3.94467 8.58309 4.0547L27.5628 14.8201C29.707 16.0363 32.3177 16.0986 34.5176 14.9861L47.7055 8.31647C48.2447 8.04378 48.8407 8.56875 48.6382 9.13804L48.1679 10.4601C48.0129 10.8958 48.3358 11.3603 48.7966 11.3998C49.4492 11.4556 50.2941 11.579 50.84 11.852M26.8528 19.6834C26.8528 19.6834 29.2771 20.8786 31.1212 20.8681C32.8386 20.8584 35.1385 19.9524 35.1385 19.9524M26.8528 19.6834V28.777M26.8528 58.2157C26.8528 58.2157 29.2576 59.546 31.1212 59.5338C32.8551 59.5225 35.1385 58.5 35.1385 58.5M26.8528 58.2157V51.0391M35.1385 19.9524V28.777M35.1385 19.9524C35.1385 19.9524 44.7082 15.0154 50.84 11.852M35.1385 58.5L60.6528 44.4925C60.8669 44.375 61 44.1539 61 43.9096C61 41.4232 61 27.561 61 15.1414C61 14.5965 60.3836 14.28 59.9407 14.5976L57.336 16.4653C57.0467 16.6727 56.6457 16.6175 56.4234 16.3395L55.1448 14.7414C54.9568 14.5064 54.6351 14.4257 54.3586 14.5443L52.2713 15.4388C51.8296 15.6281 51.3345 15.3048 51.3166 14.8246C51.2766 13.7534 51.1629 12.1749 50.84 11.852M35.1385 58.5V51.0391M26.8528 28.777V51.0391M26.8528 28.777C26.8528 28.777 29.3051 30.2416 30.9957 30.2416C32.6862 30.2416 35.1385 28.777 35.1385 28.777M35.1385 28.777V51.0391M26.8528 51.0391C26.8528 51.0391 29.2741 52.7966 30.9957 52.7966C32.7172 52.7966 35.1385 51.0391 35.1385 51.0391" stroke="black" stroke-width="2.67715" stroke-linecap="round"/>
<path d="M15.1957 23.6357C16.048 23.656 17.0886 24.2601 17.9882 25.8129C18.8693 27.3342 19.447 29.528 19.4034 32.0239C19.3599 34.5199 18.7062 36.6845 17.7727 38.1626C16.8198 39.6713 15.7589 40.2247 14.9066 40.2045C14.0543 40.1842 13.0136 39.581 12.1141 38.0283C11.2329 36.5071 10.6553 34.3132 10.6989 31.8172C10.7424 29.3213 11.3961 27.1567 12.3296 25.6786C13.2825 24.1698 14.3434 23.6155 15.1957 23.6357Z" fill="#4E5EE8" stroke="black" stroke-width="3.34644"/>
<path d="M41.666 31.1903L55.4755 24.1602" stroke="black" stroke-width="2.67715" stroke-linecap="round"/>
<path d="M41.666 38.8063L55.4755 31.7761" stroke="black" stroke-width="2.67715" stroke-linecap="round"/>
<path d="M41.666 46.4222L55.4755 39.3921" stroke="black" stroke-width="2.67715" stroke-linecap="round"/>
</svg>
