<svg width="64" height="64" viewBox="0 0 64 64" fill="none" xmlns="http://www.w3.org/2000/svg">
<path d="M2.32031 43.647V4.95474L7.44471 2.39261C7.65106 2.28944 7.89525 2.29583 8.09593 2.40965L27.7301 13.5462C29.9483 14.8044 32.649 14.8689 34.9247 13.718L48.5674 6.81838C49.1252 6.53628 49.7417 7.07935 49.5322 7.66828L49.0457 9.03588C48.8854 9.48663 49.2195 9.96721 49.6961 10.008C50.3712 10.0658 51.2452 10.1935 51.81 10.4758C52.144 10.8099 52.2616 12.4428 52.303 13.5509C52.3216 14.0476 52.8337 14.3821 53.2906 14.1863L55.4498 13.2609C55.736 13.1383 56.0688 13.2217 56.2632 13.4648L57.5858 15.1181C57.8159 15.4056 58.2307 15.4628 58.53 15.2482L61.2245 13.3161C61.6826 12.9876 62.3203 13.3149 62.3203 13.8787V43.6389C62.3203 43.8916 62.1826 44.1203 61.9611 44.2419L35.5671 58.7324C35.5671 58.7324 33.2049 59.7901 31.4112 59.8019C29.4833 59.8144 26.9956 58.4383 26.9956 58.4383L2.66382 44.2451C2.45111 44.121 2.32031 43.8933 2.32031 43.647Z" fill="#B8B8B8"/>
<path d="M2.32031 4.95474V43.647C2.32031 43.8933 2.45111 44.121 2.66382 44.2451L26.9956 58.4383M2.32031 4.95474L26.9956 18.5772M2.32031 4.95474L7.44471 2.39261C7.65106 2.28944 7.89525 2.29583 8.09593 2.40965L27.7301 13.5462C29.9483 14.8044 32.649 14.8689 34.9247 13.718L48.5674 6.81838C49.1252 6.53628 49.7417 7.07935 49.5322 7.66828L49.0457 9.03588C48.8854 9.48663 49.2195 9.96721 49.6961 10.008C50.3712 10.0658 51.2452 10.1935 51.81 10.4758M26.9956 18.5772C26.9956 18.5772 29.5035 19.8136 31.4112 19.8029C33.1878 19.7928 35.5671 18.8556 35.5671 18.8556M26.9956 18.5772V27.9845M26.9956 58.4383C26.9956 58.4383 29.4833 59.8144 31.4112 59.8019C33.2049 59.7901 35.5671 58.7324 35.5671 58.7324M26.9956 58.4383V51.0142M35.5671 18.8556V27.9845M35.5671 18.8556C35.5671 18.8556 45.4667 13.7483 51.81 10.4758M35.5671 58.7324L61.9611 44.2419C62.1826 44.1203 62.3203 43.8916 62.3203 43.6389C62.3203 41.0667 62.3203 26.7265 62.3203 13.8787C62.3203 13.3149 61.6826 12.9876 61.2245 13.3161L58.53 15.2482C58.2307 15.4628 57.8159 15.4056 57.5858 15.1181L56.2632 13.4648C56.0688 13.2217 55.736 13.1383 55.4498 13.2609L53.2906 14.1863C52.8337 14.3821 52.3216 14.0476 52.303 13.5509C52.2616 12.4428 52.144 10.8099 51.81 10.4758M35.5671 58.7324V51.0142M26.9956 27.9845V51.0142M26.9956 27.9845C26.9956 27.9845 29.5325 29.4996 31.2813 29.4996C33.0302 29.4996 35.5671 27.9845 35.5671 27.9845M35.5671 27.9845V51.0142M26.9956 51.0142C26.9956 51.0142 29.5005 52.8323 31.2813 52.8323C33.0622 52.8323 35.5671 51.0142 35.5671 51.0142" stroke="black" stroke-width="2.76946" stroke-linecap="round"/>
<path d="M19.2892 31.4252C19.2441 34.0073 18.568 36.2463 17.6023 37.7754C16.6165 39.3362 15.5193 39.9092 14.6376 39.8882C13.7559 39.8673 12.6797 39.2428 11.7491 37.6364C10.8375 36.0627 10.24 33.7935 10.2851 31.2114C10.3301 28.6293 11.0063 26.3902 11.972 24.8611C12.9578 23.3003 14.0549 22.7273 14.9367 22.7483C15.8184 22.7692 16.8946 23.3938 17.8251 25.0001C18.7368 26.5738 19.3342 28.8431 19.2892 31.4252Z" fill="#B8B8B8" stroke="black" stroke-width="3.46183"/>
<path d="M42.3203 25.8634L56.606 18.5908" stroke="black" stroke-width="2.76946" stroke-linecap="round"/>
<path d="M42.3203 33.7423L56.606 26.4697" stroke="black" stroke-width="2.76946" stroke-linecap="round"/>
<path d="M42.3203 41.6207L56.606 34.3481" stroke="black" stroke-width="2.76946" stroke-linecap="round"/>
</svg>
