<svg width="64" height="64" viewBox="0 0 64 64" fill="none" xmlns="http://www.w3.org/2000/svg">
<g clip-path="url(#clip0_598_5136)">
<rect x="-1.22301" y="20.7343" width="35.4075" height="41.8452" rx="17.7038" transform="rotate(-31.0169 -1.22301 20.7343)" fill="#D9D9D9" stroke="black" stroke-width="3.21886"/>
<path fill-rule="evenodd" clip-rule="evenodd" d="M9.05409 13.4612C10.2113 12.2558 11.5452 11.1819 13.0458 10.2796C17.8886 7.36784 23.4961 6.82794 28.5162 8.32319C29.9691 10.2897 30.5369 12.4996 29.8841 14.5195C28.5358 18.6914 22.4907 20.473 16.3821 18.4987C13.1785 17.4633 10.5936 15.6005 9.05409 13.4612Z" fill="black"/>
<circle cx="19.7753" cy="40.036" r="3.86264" transform="rotate(-31.0169 19.7753 40.036)" fill="#949494"/>
<circle cx="40.9638" cy="32.1777" r="2.89698" transform="rotate(-31.0169 40.9638 32.1777)" fill="#949494"/>
<circle cx="30.9746" cy="31.8008" r="1.93132" transform="rotate(-31.0169 30.9746 31.8008)" fill="black"/>
<circle cx="22.86" cy="31.4215" r="2.57509" transform="rotate(-31.0169 22.86 31.4215)" fill="black"/>
<circle cx="35.5494" cy="27.5457" r="2.57509" transform="rotate(-31.0169 35.5494 27.5457)" fill="black"/>
<path d="M36.5872 35.4826C37.623 39.33 36.1849 43.0621 33.3752 43.8185C30.5655 44.5749 27.4481 42.0692 26.4123 38.2218C25.3765 34.3745 28.4927 36.8756 31.3024 36.1191C34.1121 35.3627 35.5514 31.6352 36.5872 35.4826Z" fill="black"/>
<path d="M19.8652 25.0483C19.8652 25.0483 18.9579 24.9436 18.4488 25.3445C17.9398 25.7455 17.8291 26.6522 17.8291 26.6522" stroke="black" stroke-width="2.57509" stroke-linecap="round"/>
<path d="M17.1641 3.29663C17.1641 3.29663 18.7263 5.25794 18.8408 7.30036C18.9552 9.34279 17.6218 11.4663 17.6218 11.4663" stroke="black" stroke-width="2.57509" stroke-linecap="round"/>
<path d="M35.4961 21.062C35.4961 21.062 34.9476 20.3316 34.3064 20.2383C33.6652 20.145 32.9312 20.6887 32.9312 20.6887" stroke="black" stroke-width="2.57509" stroke-linecap="round"/>
<path fill-rule="evenodd" clip-rule="evenodd" d="M5.9323 35.757C2.85137 29.7738 3.1951 22.8257 6.36962 17.2975C8.66311 18.2219 10.8613 21.4314 11.7765 25.5628C12.9541 30.8791 11.5613 35.7089 8.66544 36.3503C7.76831 36.549 6.83218 36.3225 5.9323 35.757Z" fill="black"/>
<rect x="1.33398" y="36.8516" width="11.5879" height="11.5879" rx="5.79396" transform="rotate(-31.0169 1.33398 36.8516)" fill="#D9D9D9"/>
<path d="M9.93359 38.9805C9.93359 38.9805 9.34771 38.5273 8.89775 38.6361C8.44778 38.7449 8.13374 39.4158 8.13374 39.4158" stroke="black" stroke-width="2.57509" stroke-linecap="round"/>
<path d="M12.2667 34.2315C9.42111 32.768 5.92787 33.8884 4.46436 36.734C3.00086 39.5796 4.12129 43.0729 6.96692 44.5364C9.81255 45.9999 13.3058 44.8795 14.7693 42.0338" stroke="black" stroke-width="2.57509" stroke-linecap="round"/>
<path d="M58.6942 38.3232L21.5001 48.4783C18.0468 49.4212 16.3147 53.2834 17.9075 56.4893C19.3314 59.355 22.8395 60.4807 25.6649 58.9784L42.5981 49.9748C44.1292 49.1607 46.0216 49.5323 47.1311 50.8651C48.1962 52.1447 49.9906 52.5445 51.4983 51.8383L53.6273 50.841C55.0419 50.1783 55.9255 48.7364 55.8737 47.1752C55.8229 45.6447 56.6714 44.2257 58.0437 43.5462L60.2617 42.4478C60.9128 42.1253 61.3646 41.5042 61.4708 40.7854C61.7045 39.2033 60.237 37.9019 58.6942 38.3232Z" fill="#D9D9D9" stroke="black" stroke-width="2.57509" stroke-linecap="round"/>
</g>
<defs>
<clipPath id="clip0_598_5136">
<rect width="64" height="64" fill="white"/>
</clipPath>
</defs>
</svg>
