<svg width="64" height="64" viewBox="0 0 64 64" fill="none" xmlns="http://www.w3.org/2000/svg">
<g clip-path="url(#clip0_986_5812)">
<rect x="-1.90052" y="20.5473" width="36.5696" height="43.2186" rx="18.2848" transform="rotate(-31.0169 -1.90052 20.5473)" fill="#F9E8DB" stroke="black" stroke-width="3.32451"/>
<path d="M12.8384 9.74872C17.8387 6.74238 23.6279 6.1853 28.8115 7.72799C30.3132 9.75951 30.9032 12.0407 30.2288 14.1276C28.8362 18.4364 22.5927 20.2771 16.2836 18.2381C12.9753 17.1688 10.3077 15.2435 8.71762 13.0343C9.91245 11.79 11.2891 10.6802 12.8384 9.74872Z" fill="black"/>
<circle cx="20.9727" cy="40.4824" r="3.98941" transform="rotate(-31.0169 20.9727 40.4824)" fill="#FFB1B1"/>
<circle cx="41.6705" cy="32.366" r="2.99206" transform="rotate(-31.0169 41.6705 32.366)" fill="#FFB1B1"/>
<circle cx="31.3516" cy="31.977" r="1.99471" transform="rotate(-31.0169 31.3516 31.977)" fill="black"/>
<circle cx="22.9701" cy="31.5849" r="2.65961" transform="rotate(-31.0169 22.9701 31.5849)" fill="black"/>
<circle cx="36.079" cy="27.5819" r="2.65961" transform="rotate(-31.0169 36.079 27.5819)" fill="black"/>
<path d="M37.1506 35.7796C38.2203 39.7532 36.735 43.6078 33.8331 44.389C30.9312 45.1703 27.7115 42.5823 26.6417 38.6087C25.5719 34.6351 28.7903 37.2182 31.6923 36.437C34.5942 35.6557 36.0808 31.8059 37.1506 35.7796Z" fill="black"/>
<path d="M19.8794 25.0024C19.8794 25.0024 18.9422 24.8942 18.4165 25.3083C17.8908 25.7225 17.7765 26.6589 17.7765 26.6589" stroke="black" stroke-width="2.65961" stroke-linecap="round"/>
<path d="M17.0869 2.53687C17.0869 2.53687 18.7005 4.56254 18.8187 6.672C18.9368 8.78146 17.5597 10.9747 17.5597 10.9747" stroke="black" stroke-width="2.65961" stroke-linecap="round"/>
<path d="M36.0215 20.8857C36.0215 20.8857 35.455 20.1314 34.7927 20.035C34.1305 19.9386 33.3724 20.5002 33.3724 20.5002" stroke="black" stroke-width="2.65961" stroke-linecap="round"/>
<path d="M5.93919 16.9984C8.30787 17.9531 10.5783 21.2668 11.5235 25.5337C12.7398 31.0245 11.3014 36.0135 8.31054 36.676C7.38488 36.881 6.41902 36.647 5.49046 36.0642C2.30703 29.8846 2.66087 22.7087 5.93919 16.9984Z" fill="black"/>
<rect x="0.740234" y="37.1934" width="11.9682" height="11.9682" rx="5.98412" transform="rotate(-31.0169 0.740234 37.1934)" fill="#F9E8DB"/>
<path d="M9.62354 39.3921C9.62354 39.3921 9.01842 38.924 8.55369 39.0364C8.08896 39.1488 7.76461 39.8417 7.76461 39.8417" stroke="black" stroke-width="2.65961" stroke-linecap="round"/>
<path d="M12.0297 34.487C9.09069 32.9755 5.4828 34.1327 3.97126 37.0717C2.45972 40.0108 3.61692 43.6187 6.55595 45.1302C9.49497 46.6417 13.1029 45.4845 14.6144 42.5455" stroke="black" stroke-width="2.65961" stroke-linecap="round"/>
<path d="M59.9827 38.7132L21.5678 49.2017C18.0011 50.1755 16.2122 54.1645 17.8573 57.4756C19.3279 60.4354 22.9512 61.598 25.8693 60.0464L43.3582 50.7473C44.9396 49.9064 46.8941 50.2903 48.04 51.6668C49.1401 52.9884 50.9933 53.4014 52.5505 52.6719L54.7495 51.6419C56.2105 50.9575 57.1231 49.4683 57.0696 47.8558C57.0171 46.275 57.8934 44.8095 59.3108 44.1077L61.6016 42.9732C62.2741 42.6402 62.7407 41.9987 62.8504 41.2563C63.0918 39.6223 61.5761 38.2782 59.9827 38.7132Z" fill="#F9E8DB" stroke="black" stroke-width="2.65961" stroke-linecap="round"/>
</g>
<defs>
<clipPath id="clip0_986_5812">
<rect width="64" height="64" fill="white"/>
</clipPath>
</defs>
</svg>
