<svg width="64" height="64" viewBox="0 0 64 64" fill="none" xmlns="http://www.w3.org/2000/svg">
<mask id="path-1-inside-1_598_5160" fill="white">
<path d="M12.168 39.8622C12.168 34.0312 16.8949 29.3042 22.7259 29.3042H26.7694C32.6004 29.3042 37.3274 34.0312 37.3274 39.8622V49.9709C37.3274 50.7153 36.724 51.3187 35.9796 51.3187H13.5158C12.7714 51.3187 12.168 50.7153 12.168 49.9709V39.8622Z"/>
</mask>
<path d="M12.168 39.8622C12.168 34.0312 16.8949 29.3042 22.7259 29.3042H26.7694C32.6004 29.3042 37.3274 34.0312 37.3274 39.8622V49.9709C37.3274 50.7153 36.724 51.3187 35.9796 51.3187H13.5158C12.7714 51.3187 12.168 50.7153 12.168 49.9709V39.8622Z" fill="#2E2E2E" stroke="black" stroke-width="4.49275" mask="url(#path-1-inside-1_598_5160)"/>
<path d="M15.5737 54.871L16.3453 55.3496C17.3835 55.9935 18.5942 56.3036 19.8142 56.238L21.3952 56.1529C22.0893 56.1156 22.7854 56.1441 23.4741 56.238L27.4765 56.7837C28.2101 56.8837 28.9232 57.0992 29.5894 57.4222L32.3708 58.7708C34.3646 59.7374 36.7638 58.8849 37.7005 56.8769L38.1694 55.8719C39.3746 53.2885 37.0827 50.4487 34.3031 51.0814C33.5285 51.2577 32.7166 51.1594 32.0065 50.8033L20.9496 45.2595C19.5341 44.5497 17.8817 44.483 16.4136 45.0764C12.2305 46.7671 11.7395 52.4929 15.5737 54.871Z" fill="#D9D9D9" stroke="black" stroke-width="1.7971" stroke-linecap="round"/>
<path d="M15.3054 54.0392L16.0232 54.5952C16.989 55.3434 18.161 55.7773 19.3812 55.8386L20.9625 55.918C21.6567 55.9529 22.3461 56.0534 23.0214 56.2183L26.9456 57.1761C27.6648 57.3517 28.3518 57.64 28.9808 58.0303L31.6074 59.6601C33.4902 60.8284 35.9648 60.2293 37.1048 58.3293L37.6754 57.3783C39.142 54.9339 37.157 51.8717 34.3268 52.2126C33.5381 52.3076 32.7408 52.1257 32.0714 51.6979L21.6492 45.0371C20.3149 44.1844 18.6784 43.9467 17.1566 44.3845C12.8207 45.6322 11.7385 51.2763 15.3054 54.0392Z" fill="#D9D9D9" stroke="black" stroke-width="1.7971" stroke-linecap="round"/>
<path fill-rule="evenodd" clip-rule="evenodd" d="M25.1701 47.2871L21.6489 45.0367C20.3147 44.184 18.6781 43.9463 17.1564 44.3842C12.8205 45.6318 11.7383 51.2759 15.3052 54.0389L16.0229 54.5948C16.9888 55.343 18.1608 55.777 19.3809 55.8382L20.9623 55.9177C21.2143 55.9303 21.4657 55.9516 21.716 55.9815L25.1701 47.2871Z" fill="#2E2E2E"/>
<path d="M25.1701 47.2871L26.0052 47.6188L26.2791 46.9294L25.654 46.53L25.1701 47.2871ZM21.6489 45.0367L22.1328 44.2796L22.1328 44.2796L21.6489 45.0367ZM17.1564 44.3842L16.9079 43.5207L16.9079 43.5207L17.1564 44.3842ZM15.3052 54.0389L15.8554 53.3285L15.3052 54.0389ZM16.0229 54.5948L16.5732 53.8845L16.5732 53.8845L16.0229 54.5948ZM19.3809 55.8382L19.426 54.9408L19.426 54.9408L19.3809 55.8382ZM20.9623 55.9177L21.0074 55.0202L21.0074 55.0202L20.9623 55.9177ZM21.716 55.9815L21.6095 56.8737L22.2959 56.9557L22.5511 56.3133L21.716 55.9815ZM25.654 46.53L22.1328 44.2796L21.165 45.7938L24.6863 48.0442L25.654 46.53ZM22.1328 44.2796C20.581 43.2879 18.6777 43.0114 16.9079 43.5207L17.4049 45.2477C18.6785 44.8812 20.0483 45.0801 21.165 45.7938L22.1328 44.2796ZM16.9079 43.5207C11.8652 44.9717 10.6066 51.5358 14.7549 54.7492L15.8554 53.3285C12.87 51.0159 13.7758 46.292 17.4049 45.2477L16.9079 43.5207ZM14.7549 54.7492L15.4727 55.3052L16.5732 53.8845L15.8554 53.3285L14.7549 54.7492ZM15.4727 55.3052C16.5838 56.1659 17.9321 56.6652 19.3359 56.7357L19.426 54.9408C18.3894 54.8888 17.3937 54.5201 16.5732 53.8845L15.4727 55.3052ZM19.3359 56.7357L20.9172 56.8151L21.0074 55.0202L19.426 54.9408L19.3359 56.7357ZM20.9172 56.8151C21.1487 56.8267 21.3796 56.8463 21.6095 56.8737L21.8226 55.0893C21.5519 55.057 21.28 55.0339 21.0074 55.0202L20.9172 56.8151ZM22.5511 56.3133L26.0052 47.6188L24.3351 46.9553L20.881 55.6498L22.5511 56.3133Z" fill="black"/>
<path d="M27.8005 52.1918L28.4974 52.6817C29.6191 53.47 30.9808 53.8421 32.3476 53.7335L33.2339 53.6631C33.8387 53.6151 34.4469 53.6331 35.0478 53.7168L38.4528 54.1912C39.1243 54.2848 39.7733 54.4987 40.3687 54.8227L42.1707 55.8033C44.1398 56.8749 46.6036 56.0087 47.4687 53.9405L48.1438 52.3268C49.0895 50.066 47.0113 47.7106 44.6503 48.3673C43.9014 48.5757 43.1005 48.4783 42.4233 48.0967L33.5425 43.092C32.0118 42.2293 30.1566 42.1675 28.5718 42.9262C24.8574 44.7045 24.4313 49.8238 27.8005 52.1918Z" fill="#D9D9D9" stroke="black" stroke-width="1.7971" stroke-linecap="round"/>
<path d="M31.0361 34.2464C31.0361 36.2754 29.4846 37.8406 27.6666 37.8406C25.8485 37.8406 24.297 36.2754 24.297 34.2464C24.297 32.2174 25.8485 30.6522 27.6666 30.6522C29.4846 30.6522 31.0361 32.2174 31.0361 34.2464Z" fill="#D9D9D9" stroke="black" stroke-width="1.7971"/>
<path d="M45.5 36.9676L44.7946 37.7672C44.2195 38.4191 44.4786 39.4452 45.2942 39.7458C46.269 40.1051 46.9921 40.9382 47.2108 41.9538L47.3425 42.5658C47.4544 43.0855 47.7418 43.5509 48.1563 43.8837C49.1206 44.6578 50.5231 44.5373 51.3412 43.61L51.4943 43.4365C53.0599 41.6618 52.8905 38.954 51.1159 37.3884L50.2987 36.6674C48.8907 35.4252 46.7422 35.5596 45.5 36.9676Z" fill="#D9D9D9" stroke="black" stroke-width="1.7971"/>
<rect x="18.4286" y="2.4338" width="24.7102" height="29.2029" rx="12.3551" transform="rotate(7.82126 18.4286 2.4338)" fill="#D9D9D9" stroke="black" stroke-width="2.24638"/>
<path fill-rule="evenodd" clip-rule="evenodd" d="M27.1982 2.97586C28.354 2.82739 29.5483 2.82752 30.7581 2.9937C34.6664 3.53054 37.9518 5.69257 40.0261 8.7041C39.9546 10.4077 39.2962 11.8563 38.058 12.6681C35.4992 14.3458 31.4335 12.6686 28.9769 8.92192C27.6885 6.95679 27.0986 4.81268 27.1982 2.97586Z" fill="black"/>
<circle cx="21.3916" cy="22.1146" r="2.69565" transform="rotate(7.82126 21.3916 22.1146)" fill="#949494"/>
<circle cx="36.3528" cy="27.1169" r="2.02174" transform="rotate(7.82126 36.3528 27.1169)" fill="#949494"/>
<circle cx="31.0855" cy="22.539" r="1.34783" transform="rotate(7.82126 31.0855 22.539)" fill="black"/>
<circle cx="26.8405" cy="18.7815" r="1.7971" transform="rotate(7.82126 26.8405 18.7815)" fill="black"/>
<circle cx="35.4362" cy="22.2295" r="1.7971" transform="rotate(7.82126 35.4362 22.2295)" fill="black"/>
<path d="M32.525 26.9974C31.4042 29.5421 28.9891 30.9415 27.1307 30.1229C25.2724 29.3044 24.6744 26.578 25.7952 24.0333C26.916 21.4886 27.5153 24.212 29.3737 25.0305C31.2321 25.849 33.6458 24.4527 32.525 26.9974Z" fill="black"/>
<path d="M28.0039 14.0076C28.0039 14.0076 27.5565 13.5535 27.1043 13.5487C26.6521 13.5439 26.1952 13.9883 26.1952 13.9883" stroke="black" stroke-width="1.7971" stroke-linecap="round"/>
<path d="M36.0527 1C36.0527 1 36.0436 2.74989 35.2119 3.91022C34.3802 5.07054 32.726 5.64131 32.726 5.64131" stroke="black" stroke-width="1.7971" stroke-linecap="round"/>
<path d="M38.2422 18.6804C38.2422 18.6804 38.2637 18.0433 37.956 17.712C37.6482 17.3806 37.0113 17.355 37.0113 17.355" stroke="black" stroke-width="1.7971" stroke-linecap="round"/>
<path fill-rule="evenodd" clip-rule="evenodd" d="M15.7433 13.733C16.6863 9.13141 19.9139 5.50408 24.0592 3.88778C24.9013 5.39403 24.6916 8.10069 23.3809 10.747C21.6943 14.1523 18.8234 16.1681 16.9685 15.2494C16.3945 14.9651 15.9851 14.4331 15.7433 13.733Z" fill="black"/>
<rect x="12.7637" y="12.313" width="8.08696" height="8.08696" rx="4.04348" transform="rotate(7.82126 12.7637 12.313)" fill="#D9D9D9"/>
<path d="M16.5059 17.2346C16.5059 17.2346 16.3857 16.7319 16.0935 16.5941C15.8013 16.4563 15.337 16.6835 15.337 16.6835" stroke="black" stroke-width="1.7971" stroke-linecap="round"/>
<path d="M19.8524 15.6728C18.946 13.6319 16.5567 12.7121 14.5158 13.6184C12.4748 14.5248 11.5551 16.914 12.4614 18.955C13.3677 20.996 15.757 21.9157 17.798 21.0094" stroke="black" stroke-width="1.7971" stroke-linecap="round"/>
<path d="M41.5959 30.3935L43.0698 30.9857" stroke="black" stroke-width="1.7971" stroke-linecap="round"/>
<path d="M39.9938 32.2923L41.2534 33.2599" stroke="black" stroke-width="1.7971" stroke-linecap="round"/>
<path d="M38.2682 34.1818L38.9342 35.6239" stroke="black" stroke-width="1.7971" stroke-linecap="round"/>
<path d="M57.8409 39.6028L34.1632 41.0482C33.9459 41.0615 33.7637 41.2207 33.7275 41.429L31.2997 55.411C31.2446 55.7283 31.5447 55.985 31.8652 55.8948L48.4669 51.222C48.5554 51.1971 48.6349 51.1473 48.6952 51.0791L58.199 40.3245C58.4626 40.0262 58.2404 39.5784 57.8409 39.6028Z" fill="#BDBDBD" stroke="black" stroke-width="1.7971" stroke-linecap="round"/>
<path d="M54.9955 38.8486L34.5562 41.0909C34.3525 41.1133 34.1848 41.2634 34.1455 41.4584L31.3856 55.1886C31.319 55.5198 31.6417 55.7881 31.9724 55.6764L47.143 50.5545C47.2353 50.5233 47.3158 50.4649 47.373 50.3876L55.4018 39.5371C55.6328 39.2248 55.3855 38.8058 54.9955 38.8486Z" fill="#BDBDBD" stroke="black" stroke-width="1.7971" stroke-linecap="round"/>
<path d="M51.8254 38.1978L34.533 41.075C34.3402 41.107 34.186 41.2531 34.1486 41.4389L31.3847 55.1885C31.3181 55.5197 31.6409 55.788 31.9716 55.6763L47.0833 50.5742C47.2108 50.5312 47.314 50.4368 47.3658 50.3161L52.3104 38.7914C52.4477 38.4714 52.1765 38.1394 51.8254 38.1978Z" fill="#BDBDBD" stroke="black" stroke-width="1.7971" stroke-linecap="round"/>
<path d="M32.3893 38.8064L11.0021 45.4142C10.6136 45.5342 10.5716 46.0673 10.9365 46.2467L31.1568 56.1855C31.2557 56.2341 31.369 56.2447 31.4752 56.2152L48.5714 51.4696C48.932 51.3696 49.0193 50.8984 48.7187 50.6757L32.7894 38.8747C32.6745 38.7895 32.5259 38.7642 32.3893 38.8064Z" fill="white" stroke="black" stroke-width="1.7971" stroke-linecap="round"/>
<path d="M29.5081 39.7175L11.8348 46.6606C11.4646 46.8061 11.4521 47.3253 11.8148 47.4885L31.1643 56.1943C31.26 56.2373 31.3677 56.2455 31.4688 56.2175L48.4381 51.5071C48.8205 51.401 48.8876 50.8875 48.5453 50.6867L29.8997 39.7482C29.7808 39.6784 29.6364 39.6671 29.5081 39.7175Z" fill="#5F5F5F" stroke="black" stroke-width="1.7971" stroke-linecap="round"/>
<path d="M17.2382 40.8087L18.1616 40.2755C18.9144 39.8409 19.8689 40.298 20.0021 41.157C20.1613 42.1836 20.8347 43.0574 21.787 43.4728L22.3607 43.7232C22.848 43.9357 23.2472 44.3095 23.4913 44.7818C24.0592 45.8802 23.6634 47.2311 22.5925 47.8494L22.3921 47.9651C20.3426 49.1484 17.7219 48.4462 16.5386 46.3967L15.9938 45.4529C15.0549 43.8268 15.6121 41.7475 17.2382 40.8087Z" fill="#D9D9D9" stroke="black" stroke-width="1.7971"/>
</svg>
