<svg width="64" height="64" viewBox="0 0 64 64" fill="none" xmlns="http://www.w3.org/2000/svg">
<g clip-path="url(#clip0_986_5793)">
<mask id="path-1-inside-1_986_5793" fill="white">
<path d="M11.397 42.1164C11.397 36.0972 16.2764 31.2178 22.2956 31.2178H26.4695C32.4886 31.2178 37.3681 36.0972 37.3681 42.1164V52.5512C37.3681 53.3196 36.7452 53.9425 35.9768 53.9425H12.7883C12.0199 53.9425 11.397 53.3196 11.397 52.5512V42.1164Z"/>
</mask>
<path d="M11.397 42.1164C11.397 36.0972 16.2764 31.2178 22.2956 31.2178H26.4695C32.4886 31.2178 37.3681 36.0972 37.3681 42.1164V52.5512C37.3681 53.3196 36.7452 53.9425 35.9768 53.9425H12.7883C12.0199 53.9425 11.397 53.3196 11.397 52.5512V42.1164Z" fill="#0D98D4" stroke="black" stroke-width="4.6377" mask="url(#path-1-inside-1_986_5793)"/>
<path d="M14.9144 57.6092L15.7108 58.1031C16.7826 58.7678 18.0323 59.0879 19.2916 59.0202L20.9237 58.9324C21.6402 58.8939 22.3587 58.9233 23.0696 59.0202L27.2011 59.5835C27.9584 59.6868 28.6945 59.9092 29.3822 60.2426L32.2533 61.6347C34.3114 62.6326 36.788 61.7526 37.755 59.6798L38.239 58.6423C39.4831 55.9756 37.1172 53.0442 34.248 53.6973C33.4484 53.8793 32.6104 53.7778 31.8773 53.4102L20.4637 47.6875C19.0025 46.9549 17.2968 46.8861 15.7814 47.4985C11.4633 49.2437 10.9565 55.1543 14.9144 57.6092Z" fill="#D9D9D9" stroke="black" stroke-width="1.85508" stroke-linecap="round"/>
<path d="M14.6369 56.7507L15.3778 57.3246C16.3748 58.0969 17.5846 58.5449 18.8441 58.6081L20.4765 58.6901C21.1931 58.7261 21.9047 58.8299 22.6017 59L26.6526 59.9888C27.395 60.17 28.1041 60.4676 28.7535 60.8705L31.4648 62.5529C33.4083 63.7589 35.9628 63.1404 37.1395 61.1791L37.7285 60.1975C39.2425 57.6742 37.1934 54.5132 34.2719 54.8651C33.4577 54.9632 32.6348 54.7754 31.9438 54.3338L21.1853 47.4581C19.808 46.5779 18.1186 46.3325 16.5478 46.7845C12.072 48.0724 10.9549 53.8986 14.6369 56.7507Z" fill="#F9E8DB" stroke="black" stroke-width="1.85508" stroke-linecap="round"/>
<path fill-rule="evenodd" clip-rule="evenodd" d="M24.8181 49.7814L21.1824 47.4579C19.8051 46.5777 18.1158 46.3323 16.545 46.7843C12.0692 48.0722 10.952 53.8984 14.634 56.7505L15.3749 57.3244C16.3719 58.0967 17.5817 58.5447 18.8413 58.6079L20.4736 58.6899C20.7341 58.703 20.994 58.725 21.2527 58.756L24.8181 49.7814Z" fill="#0D98D4"/>
<path d="M24.8181 49.7814L25.6801 50.1239L25.9628 49.4122L25.3176 48.9999L24.8181 49.7814ZM21.1824 47.4579L20.6829 48.2395L20.6829 48.2395L21.1824 47.4579ZM16.545 46.7843L16.8014 47.6757L16.8014 47.6757L16.545 46.7843ZM14.634 56.7505L15.202 56.0172L15.202 56.0172L14.634 56.7505ZM15.3749 57.3244L14.8069 58.0577L14.8069 58.0577L15.3749 57.3244ZM18.8413 58.6079L18.8878 57.6815L18.8878 57.6815L18.8413 58.6079ZM20.4736 58.6899L20.4271 59.6163L20.4271 59.6163L20.4736 58.6899ZM21.2527 58.756L21.1426 59.6769L21.8512 59.7617L22.1147 59.0984L21.2527 58.756ZM24.8181 49.7814L25.3176 48.9999L21.6819 46.6764L21.1824 47.4579L20.6829 48.2395L24.3186 50.563L24.8181 49.7814ZM21.1824 47.4579L21.6819 46.6764C20.0801 45.6526 18.1153 45.3673 16.2885 45.893L16.545 46.7843L16.8014 47.6757C18.1162 47.2974 19.5301 47.5027 20.6829 48.2395L21.1824 47.4579ZM16.545 46.7843L16.2885 45.893C11.083 47.3908 9.78381 54.1667 14.066 57.4838L14.634 56.7505L15.202 56.0172C12.1203 53.63 13.0553 48.7537 16.8014 47.6757L16.545 46.7843ZM14.634 56.7505L14.066 57.4838L14.8069 58.0577L15.3749 57.3244L15.9429 56.5911L15.202 56.0172L14.634 56.7505ZM15.3749 57.3244L14.8069 58.0577C15.9539 58.9461 17.3457 59.4615 18.7947 59.5343L18.8413 58.6079L18.8878 57.6815C17.8178 57.6278 16.7899 57.2472 15.9429 56.5911L15.3749 57.3244ZM18.8413 58.6079L18.7947 59.5343L20.4271 59.6163L20.4736 58.6899L20.5201 57.7635L18.8878 57.6815L18.8413 58.6079ZM20.4736 58.6899L20.4271 59.6163C20.6664 59.6283 20.905 59.6485 21.1426 59.6769L21.2527 58.756L21.3628 57.835C21.083 57.8015 20.8019 57.7777 20.5201 57.7635L20.4736 58.6899ZM21.2527 58.756L22.1147 59.0984L25.6801 50.1239L24.8181 49.7814L23.9561 49.439L20.3907 58.4135L21.2527 58.756Z" fill="black"/>
<path d="M27.534 54.8435L28.2534 55.3491C29.4113 56.1629 30.817 56.5469 32.2278 56.4349L33.1428 56.3622C33.7671 56.3126 34.3949 56.3312 35.0151 56.4176L38.53 56.9074C39.2231 57.0039 39.8931 57.2248 40.5077 57.5593L42.3678 58.5715C44.4005 59.6777 46.9437 58.7834 47.8368 56.6485L48.5336 54.9828C49.5098 52.6491 47.3646 50.2177 44.9275 50.8956C44.1544 51.1106 43.3276 51.0102 42.6286 50.6162L33.4613 45.45C31.8812 44.5596 29.9661 44.4957 28.3302 45.2789C24.496 47.1146 24.0561 52.3991 27.534 54.8435Z" fill="#F9E8DB" stroke="black" stroke-width="1.85508" stroke-linecap="round"/>
<path d="M27.3979 32.6089C29.2745 32.6091 30.8755 34.2245 30.8755 36.3188C30.8755 38.4132 29.2745 40.0286 27.3979 40.0288C25.5212 40.0288 23.9194 38.4133 23.9194 36.3188C23.9194 34.2244 25.5212 32.6089 27.3979 32.6089Z" fill="#F9E8DB" stroke="black" stroke-width="1.85508"/>
<path d="M45.8063 39.1286L45.0782 39.9539C44.522 40.5846 44.722 41.5547 45.4426 41.9293L45.5934 41.996C46.5367 42.3437 47.2525 43.1212 47.5241 44.0809L47.5723 44.2758L47.7086 44.9065C47.8097 45.376 48.0491 45.8031 48.3942 46.1325L48.5486 46.2675C49.544 47.0664 50.9916 46.9421 51.8361 45.985L51.9944 45.8056C53.6104 43.9737 53.4349 41.1784 51.6031 39.5623L50.7602 38.8187C49.3068 37.5364 47.0886 37.6752 45.8063 39.1286Z" fill="#F9E8DB" stroke="black" stroke-width="1.85508"/>
<rect x="17.86" y="3.48024" width="25.5073" height="30.145" rx="12.7537" transform="rotate(7.82126 17.86 3.48024)" fill="#F9E8DB" stroke="black" stroke-width="2.31885"/>
<path d="M30.5892 4.05782C34.6223 4.61186 38.0123 6.84305 40.1536 9.95032C40.0802 11.7097 39.4031 13.206 38.1245 14.0443C35.4831 15.776 31.2868 14.0446 28.7511 10.1771C27.4212 8.14883 26.8132 5.93611 26.9158 4.04019C28.1085 3.88712 29.3409 3.88635 30.5892 4.05782Z" fill="black"/>
<circle cx="20.9205" cy="23.7963" r="2.78262" transform="rotate(7.82126 20.9205 23.7963)" fill="#FFB1B1"/>
<circle cx="36.3627" cy="28.9597" r="2.08696" transform="rotate(7.82126 36.3627 28.9597)" fill="#FFB1B1"/>
<circle cx="30.9258" cy="24.2337" r="1.39131" transform="rotate(7.82126 30.9258 24.2337)" fill="black"/>
<circle cx="26.5444" cy="20.3552" r="1.85508" transform="rotate(7.82126 26.5444 20.3552)" fill="black"/>
<circle cx="35.4155" cy="23.9145" r="1.85508" transform="rotate(7.82126 35.4155 23.9145)" fill="black"/>
<path d="M32.4121 28.8362C31.2551 31.463 28.7621 32.9075 26.8437 32.0626C24.9254 31.2177 24.3082 28.4033 25.4651 25.7765C26.6221 23.1497 27.2407 25.9609 29.159 26.8058C31.0774 27.6507 33.569 26.2094 32.4121 28.8362Z" fill="black"/>
<path d="M27.7446 15.4277C27.7446 15.4277 27.2828 14.959 26.816 14.954C26.3493 14.9491 25.8775 15.4078 25.8775 15.4078" stroke="black" stroke-width="1.85508" stroke-linecap="round"/>
<path d="M36.0542 2C36.0542 2 36.0448 3.80634 35.1863 5.0041C34.3278 6.20186 32.6202 6.79104 32.6202 6.79104" stroke="black" stroke-width="1.85508" stroke-linecap="round"/>
<path d="M38.314 20.2505C38.314 20.2505 38.3362 19.5928 38.0185 19.2508C37.7009 18.9087 37.0434 18.8823 37.0434 18.8823" stroke="black" stroke-width="1.85508" stroke-linecap="round"/>
<path d="M23.6706 4.98284C24.5391 6.5379 24.3239 9.32999 22.9714 12.061C21.2304 15.5761 18.2673 17.6567 16.3526 16.7084C15.7601 16.4149 15.3375 15.8663 15.0879 15.1438C16.0611 10.3943 19.3924 6.65169 23.6706 4.98284Z" fill="black"/>
<rect x="12.0127" y="13.6777" width="8.34785" height="8.34785" rx="4.17393" transform="rotate(7.82126 12.0127 13.6777)" fill="#F9E8DB"/>
<path d="M15.876 18.7583C15.876 18.7583 15.752 18.2393 15.4503 18.0971C15.1487 17.9549 14.6694 18.1894 14.6694 18.1894" stroke="black" stroke-width="1.85508" stroke-linecap="round"/>
<path d="M19.3298 17.1459C18.3942 15.0391 15.9278 14.0896 13.821 15.0252C11.7142 15.9608 10.7648 18.4271 11.7004 20.5339C12.636 22.6407 15.1023 23.5902 17.2091 22.6546" stroke="black" stroke-width="1.85508" stroke-linecap="round"/>
<path d="M41.7749 32.3418L43.2964 32.9531" stroke="black" stroke-width="1.85508" stroke-linecap="round"/>
<path d="M40.1224 34.3019L41.4227 35.3007" stroke="black" stroke-width="1.85508" stroke-linecap="round"/>
<path d="M38.3407 36.252L39.0282 37.7406" stroke="black" stroke-width="1.85508" stroke-linecap="round"/>
<path d="M58.5438 41.8478L34.1022 43.3398C33.8779 43.3535 33.6898 43.5179 33.6525 43.7329L31.1464 58.1659C31.0895 58.4935 31.3992 58.7585 31.7301 58.6654L48.8674 53.8418C48.9587 53.8161 49.0408 53.7647 49.103 53.6943L58.9134 42.5928C59.1855 42.2849 58.9561 41.8226 58.5438 41.8478Z" fill="#969696" stroke="black" stroke-width="1.85508" stroke-linecap="round"/>
<path d="M55.6062 41.0696L34.5076 43.3842C34.2973 43.4073 34.1242 43.5622 34.0837 43.7636L31.2347 57.9367C31.1659 58.2786 31.4991 58.5556 31.8405 58.4403L47.5004 53.1531C47.5957 53.1209 47.6789 53.0606 47.7379 52.9808L56.0257 41.7802C56.2641 41.458 56.0089 41.0254 55.6062 41.0696Z" fill="#BDBDBD" stroke="black" stroke-width="1.85508" stroke-linecap="round"/>
<path d="M52.3347 40.3979L34.4844 43.3679C34.2854 43.401 34.1262 43.5518 34.0876 43.7436L31.2346 57.9367C31.1658 58.2787 31.499 58.5556 31.8404 58.4403L47.4396 53.1736C47.5712 53.1292 47.6778 53.0318 47.7312 52.9072L52.8354 41.0107C52.9771 40.6803 52.6971 40.3376 52.3347 40.3979Z" fill="#F9F9F9" stroke="black" stroke-width="1.85508" stroke-linecap="round"/>
<path d="M32.2728 41.0254L10.1956 47.8464C9.79464 47.9702 9.7513 48.5205 10.1279 48.7057L31.0006 58.9652C31.1026 59.0153 31.2196 59.0263 31.3292 58.9958L48.977 54.0971C49.3491 53.9938 49.4394 53.5075 49.129 53.2776L32.6858 41.0958C32.5672 41.008 32.4138 40.9818 32.2728 41.0254Z" fill="#979797" stroke="black" stroke-width="1.85508" stroke-linecap="round"/>
<path d="M29.2959 41.9665L11.0524 49.1335C10.6703 49.2836 10.6573 49.8197 11.0317 49.9881L31.0055 58.9747C31.1043 59.0192 31.2155 59.0277 31.3198 58.9987L48.8366 54.1363C49.2313 54.0268 49.3005 53.4967 48.9472 53.2895L29.7001 41.9981C29.5773 41.9261 29.4283 41.9144 29.2959 41.9665Z" fill="#F4BA63" stroke="black" stroke-width="1.85508" stroke-linecap="round"/>
<path d="M16.6321 43.093L17.5852 42.5427C18.3136 42.1224 19.2248 42.5105 19.4493 43.291L19.4848 43.452C19.6388 44.4455 20.2593 45.301 21.1462 45.7574L21.3276 45.8431L21.9189 46.1017C22.3591 46.2937 22.7303 46.6129 22.9849 47.0164L23.0866 47.1945C23.6726 48.3283 23.2641 49.7227 22.1588 50.3609L21.9516 50.4806C19.836 51.7019 17.1308 50.9764 15.9094 48.8609L15.3474 47.8874C14.3783 46.2088 14.9535 44.0621 16.6321 43.093Z" fill="#F9E8DB" stroke="black" stroke-width="1.85508"/>
</g>
<defs>
<clipPath id="clip0_986_5793">
<rect width="64" height="64" fill="white"/>
</clipPath>
</defs>
</svg>
