<svg width="64" height="64" viewBox="0 0 64 64" fill="none" xmlns="http://www.w3.org/2000/svg">
<g clip-path="url(#clip0_986_5770)">
<rect x="1.00796" y="26.1801" width="7.0557" height="7.55968" rx="3.52785" fill="#EDCEB7" stroke="black" stroke-width="2.01591"/>
<rect x="39.3092" y="26.1801" width="7.0557" height="7.55968" rx="3.52785" fill="#EDCEB7" stroke="black" stroke-width="2.01591"/>
<path d="M16.8627 45.1866C17.544 44.8302 18.4513 44.8504 19.4412 45.356C20.4288 45.8606 21.4126 46.8167 22.1017 48.1333C22.7907 49.4498 23.0151 50.8025 22.8669 51.9015C22.7182 53.0033 22.2181 53.7608 21.5368 54.1176C20.8553 54.4742 19.9471 54.4537 18.9569 53.9478C17.9694 53.4432 16.9859 52.4878 16.2969 51.1713C15.6078 49.8547 15.3829 48.5014 15.5313 47.4023C15.68 46.3005 16.1813 45.5433 16.8627 45.1866Z" fill="#7CE2FF" stroke="black" stroke-width="2.01591"/>
<path d="M30.608 45.1866C29.9267 44.8302 29.0194 44.8504 28.0295 45.356C27.0419 45.8606 26.0581 46.8167 25.369 48.1333C24.68 49.4498 24.4556 50.8025 24.6038 51.9015C24.7525 53.0033 25.2527 53.7608 25.934 54.1176C26.6154 54.4742 27.5236 54.4537 28.5138 53.9478C29.5013 53.4432 30.4848 52.4878 31.1738 51.1713C31.8629 49.8547 32.0878 48.5014 31.9394 47.4023C31.7907 46.3005 31.2894 45.5433 30.608 45.1866Z" fill="#7CE2FF" stroke="black" stroke-width="2.01591"/>
<rect x="6.048" y="11.0607" width="34.7745" height="38.3024" rx="17.3873" fill="#F9E8DB" stroke="black" stroke-width="2.01591"/>
<path d="M28.7265 35.9883C28.7265 39.4783 26.4702 42.3075 23.6868 42.3075C20.9034 42.3075 18.647 39.4783 18.647 35.9883C18.647 32.4984 20.9034 33.8114 23.6868 33.8114C26.4702 33.8114 28.7265 32.4984 28.7265 35.9883Z" fill="black"/>
<path d="M25.3979 29.8996C25.3979 30.7346 24.721 31.4116 23.886 31.4116C23.0509 31.4116 22.374 30.7346 22.374 29.8996C22.374 29.0646 23.0509 28.3877 23.886 28.3877C24.721 28.3877 25.3979 29.0646 25.3979 29.8996Z" fill="black"/>
<circle cx="16.339" cy="27.4436" r="2.01591" transform="rotate(7.82126 16.339 27.4436)" fill="black"/>
<circle cx="12.856" cy="33.9958" r="2.91046" transform="rotate(7.82126 12.856 33.9958)" fill="#FFB1B1"/>
<circle cx="31.4572" cy="27.4436" r="2.01591" transform="rotate(7.82126 31.4572 27.4436)" fill="black"/>
<circle cx="34.6826" cy="33.9958" r="2.91046" transform="rotate(7.82126 34.6826 33.9958)" fill="#FFB1B1"/>
<path d="M17.1353 20.6956C17.1353 20.6956 16.1821 20.4369 15.3636 20.664C14.5451 20.891 13.8613 21.6036 13.8613 21.6036" stroke="black" stroke-width="2.01591" stroke-linecap="round"/>
<path d="M30.7422 20.6956C30.7422 20.6956 31.6954 20.4369 32.5139 20.664C33.3324 20.891 34.0162 21.6036 34.0162 21.6036" stroke="black" stroke-width="2.01591" stroke-linecap="round"/>
<path d="M19.1514 12.5725C19.6684 15.8085 23.6326 17.1584 26.6749 17.7197C27.2494 17.8257 27.4841 16.9181 26.9933 16.6011C25.8338 15.8523 24.7872 14.8406 24.6951 13.5991" stroke="black" stroke-width="2.01591" stroke-linecap="round"/>
<path d="M45.9693 13.4714C45.7494 13.4071 45.5919 13.0889 45.4967 12.5167C45.4314 12.1467 45.3999 11.7314 45.4022 11.2706C45.1864 11.2493 44.8386 11.1948 44.3586 11.107C43.9068 11.0264 43.5575 10.9775 43.3108 10.9604C43.1036 11.2378 42.7615 11.6476 42.2845 12.1897C42.1098 12.3615 41.9129 12.4198 41.6937 12.3646C41.5391 12.3258 41.4131 12.2387 41.3157 12.1033C41.2189 11.9651 41.1911 11.8143 41.2322 11.6509C41.2684 11.5072 41.5961 11.0714 42.2155 10.3434C42.1981 10.2461 42.2018 10.1602 42.2265 10.0855C42.2718 9.95308 42.4347 9.8817 42.7152 9.87135C43.2886 9.27858 43.9133 8.67176 44.5894 8.05088C45.5605 7.1597 46.1276 6.7346 46.2906 6.77559C46.5998 6.85334 46.7592 7.09266 46.7689 7.49356C46.7493 7.80918 46.7241 8.28368 46.6933 8.91704C46.6607 9.77164 46.6366 10.7527 46.621 11.8602C46.6208 11.9441 46.6457 12.1481 46.6957 12.4722C46.7359 12.74 46.7408 12.9344 46.7103 13.0556C46.6692 13.219 46.573 13.3401 46.4217 13.4189C46.2732 13.4984 46.1224 13.5159 45.9693 13.4714ZM45.4874 8.73959C45.1733 9.06202 44.7418 9.50026 44.1931 10.0543C44.3267 10.0579 44.5291 10.0849 44.8003 10.1351C45.12 10.1945 45.322 10.2289 45.4064 10.2381C45.431 9.85485 45.4581 9.35534 45.4874 8.73959Z" fill="black"/>
<path d="M50.8146 14.3799C50.0982 14.4603 49.2397 14.3748 48.2392 14.1231C48.0706 14.0807 47.9365 13.9721 47.8371 13.7973C47.7404 13.6232 47.7123 13.4559 47.7527 13.2953L48.8794 8.81522C48.9191 8.6215 48.9603 8.42813 49.0028 8.23512C49.049 8.01604 49.1021 7.83466 49.1621 7.69098C49.268 7.43602 49.5543 7.33726 50.021 7.3947C50.2502 7.38643 50.6121 7.44449 51.1067 7.56889C51.6379 7.70247 52.1033 8.00227 52.5031 8.4683C52.9729 9.01188 53.1324 9.58375 52.9815 10.1839C52.9 10.5079 52.7722 10.7664 52.5982 10.9593C52.4601 11.1163 52.25 11.2687 51.9678 11.4164C52.2071 11.6174 52.3985 11.8782 52.542 12.1989C52.7057 12.5577 52.7504 12.885 52.676 13.1808C52.5818 13.5556 52.2887 13.8593 51.7969 14.0922C51.4683 14.2462 51.1409 14.3421 50.8146 14.3799ZM50.8187 8.71425C50.4561 8.62308 50.2376 8.57112 50.1631 8.55838L49.942 9.45544L49.7146 10.3419C49.9625 10.4373 50.1525 10.4955 50.2847 10.5168C51.1616 10.6654 51.6713 10.4566 51.8138 9.89024C51.8641 9.69018 51.7862 9.46537 51.58 9.2158C51.3675 8.95565 51.1137 8.78847 50.8187 8.71425ZM50.5604 11.8264C50.3046 11.7621 49.9249 11.6561 49.4212 11.5084L49.0237 13.0891C49.5134 13.1853 50.0609 13.2242 50.6662 13.2056C51.1963 13.1891 51.479 13.0985 51.5145 12.9337C51.5607 12.7146 51.4504 12.4816 51.1838 12.2348C50.9761 12.0388 50.7683 11.9027 50.5604 11.8264Z" fill="black"/>
<path d="M58.2792 11.6466C58.0262 11.5829 57.873 11.4021 57.8195 11.104C57.7951 10.9631 57.7581 10.8729 57.7082 10.8334C57.671 10.8031 57.5625 10.7653 57.3826 10.7201C57.0285 10.631 56.5502 10.8043 55.9476 11.2399C55.1042 11.8487 54.5979 12.4898 54.4285 13.1632C54.3513 13.4703 54.3876 13.7596 54.5375 14.0309C54.6874 14.3023 54.9056 14.474 55.1923 14.5461C55.4705 14.6161 55.7714 14.6139 56.0949 14.5395C56.2095 14.5114 56.4578 14.427 56.8398 14.2864C57.0959 14.195 57.2801 14.1635 57.3925 14.1917C57.5612 14.2341 57.6889 14.3322 57.7758 14.4858C57.8563 14.6289 57.8778 14.7751 57.8402 14.9245C57.7984 15.0907 57.6889 15.2174 57.5116 15.3047C56.5743 15.764 55.7052 15.8929 54.9042 15.6915C54.2719 15.5325 53.796 15.1671 53.4766 14.5955C53.1727 14.0457 53.0965 13.4693 53.2481 12.8663C53.4855 11.9224 54.1396 11.0623 55.2103 10.2861C56.1199 9.62806 56.94 9.39093 57.6707 9.57469C57.7944 9.60579 57.9043 9.63793 58.0005 9.67113C58.0996 9.70502 58.1849 9.73997 58.2566 9.77596C58.4107 9.6859 58.5749 9.66278 58.7491 9.7066C59.0358 9.77869 59.1714 9.98805 59.1559 10.3347C59.1442 10.5834 59.0986 10.8655 59.0192 11.1811C58.9838 11.322 58.9108 11.4399 58.8003 11.5349C58.6552 11.6602 58.4815 11.6974 58.2792 11.6466Z" fill="black"/>
<path d="M49.2095 20.6709L44.5128 23.5297C44.1418 23.7556 43.6779 23.4377 43.7547 23.0101L44.4564 19.1035C44.5061 18.8267 44.3248 18.5607 44.0517 18.4937C42.1697 18.032 35.7072 15.8933 38.5437 8.75204C41.6465 0.94027 47.2973 1.5014 52.9079 2.70427C60.9846 4.43583 64.4292 9.01116 62.4561 14.536C60.1196 21.0781 50.8509 20.6878 49.5137 20.5963C49.4052 20.5889 49.3024 20.6143 49.2095 20.6709Z" stroke="black" stroke-width="2.01591" stroke-linecap="round"/>
</g>
<defs>
<clipPath id="clip0_986_5770">
<rect width="64" height="64" fill="white"/>
</clipPath>
</defs>
</svg>
