<svg width="64" height="64" viewBox="0 0 64 64" fill="none" xmlns="http://www.w3.org/2000/svg">
<rect x="1.99195" y="28.7962" width="6.94367" height="7.43965" rx="3.47184" fill="#D9D9D9" stroke="black" stroke-width="1.98391"/>
<rect x="39.6853" y="28.7962" width="6.94367" height="7.43965" rx="3.47184" fill="#D9D9D9" stroke="black" stroke-width="1.98391"/>
<path d="M22.7497 50.4004C23.4278 51.6961 23.6489 53.0274 23.503 54.109C23.3566 55.1936 22.8638 55.9386 22.1932 56.2896C21.5226 56.6406 20.6295 56.6208 19.655 56.1229C18.6831 55.6264 17.7152 54.6858 17.0371 53.3901C16.359 52.0944 16.1378 50.7631 16.2838 49.6815C16.4302 48.597 16.9229 47.8519 17.5936 47.5009C18.2642 47.1499 19.1573 47.1697 20.1318 47.6676C21.1037 48.1642 22.0716 49.1047 22.7497 50.4004Z" fill="#333A3C" stroke="black" stroke-width="1.98391"/>
<path d="M25.9671 50.4004C25.289 51.6961 25.0679 53.0274 25.2138 54.109C25.3602 55.1936 25.853 55.9386 26.5236 56.2896C27.1942 56.6406 28.0873 56.6208 29.0618 56.1229C30.0337 55.6264 31.0016 54.6858 31.6797 53.3901C32.3578 52.0944 32.579 50.7631 32.433 49.6815C32.2866 48.597 31.7939 47.8519 31.1232 47.5009C30.4526 47.1499 29.5595 47.1697 28.585 47.6676C27.6131 48.1642 26.6452 49.1047 25.9671 50.4004Z" fill="#333A3C" stroke="black" stroke-width="1.98391"/>
<rect x="6.95094" y="13.9168" width="34.2224" height="37.6942" rx="17.1112" fill="#D9D9D9" stroke="black" stroke-width="1.98391"/>
<path d="M29.2711 38.4485C29.2711 41.883 27.0505 44.6673 24.3113 44.6673C21.5721 44.6673 19.3516 41.883 19.3516 38.4485C19.3516 35.0139 21.5721 36.3061 24.3113 36.3061C27.0505 36.3061 29.2711 35.0139 29.2711 38.4485Z" fill="black"/>
<path d="M25.9954 32.4564C25.9954 33.2782 25.3292 33.9444 24.5075 33.9444C23.6857 33.9444 23.0195 33.2782 23.0195 32.4564C23.0195 31.6347 23.6857 30.9685 24.5075 30.9685C25.3292 30.9685 25.9954 31.6347 25.9954 32.4564Z" fill="black"/>
<circle cx="17.0783" cy="30.0396" r="1.98391" transform="rotate(7.82126 17.0783 30.0396)" fill="black"/>
<circle cx="13.651" cy="36.4871" r="2.86425" transform="rotate(7.82126 13.651 36.4871)" fill="black"/>
<circle cx="31.9591" cy="30.0396" r="1.98391" transform="rotate(7.82126 31.9591 30.0396)" fill="black"/>
<circle cx="35.1334" cy="36.4871" r="2.86425" transform="rotate(7.82126 35.1334 36.4871)" fill="black"/>
<path d="M17.8633 23.3982C17.8633 23.3982 16.9252 23.1437 16.1197 23.3671C15.3142 23.5905 14.6413 24.2919 14.6413 24.2919" stroke="black" stroke-width="1.98391" stroke-linecap="round"/>
<path d="M31.2539 23.3982C31.2539 23.3982 32.192 23.1437 32.9975 23.3671C33.803 23.5905 34.4759 24.2919 34.4759 24.2919" stroke="black" stroke-width="1.98391" stroke-linecap="round"/>
<path d="M19.8477 15.4048C20.3564 18.5894 24.2577 19.9178 27.2517 20.4703C27.8171 20.5746 28.048 19.6814 27.565 19.3694C26.424 18.6325 25.394 17.6369 25.3034 16.4151" stroke="black" stroke-width="1.98391" stroke-linecap="round"/>
<path d="M46.239 16.2895C46.0226 16.2262 45.8676 15.9131 45.774 15.35C45.7097 14.9859 45.6787 14.5771 45.681 14.1237C45.4686 14.1027 45.1263 14.0491 44.654 13.9627C44.2093 13.8833 43.8656 13.8352 43.6228 13.8183C43.4189 14.0914 43.0822 14.4946 42.6128 15.0282C42.4409 15.1972 42.2471 15.2546 42.0313 15.2003C41.8792 15.1621 41.7552 15.0764 41.6593 14.9431C41.5641 14.8072 41.5367 14.6588 41.5772 14.4979C41.6128 14.3565 41.9353 13.9276 42.5448 13.2111C42.5277 13.1154 42.5314 13.0309 42.5557 12.9574C42.6003 12.8271 42.7605 12.7568 43.0366 12.7466C43.6009 12.1633 44.2157 11.5661 44.881 10.9551C45.8368 10.078 46.3949 9.65969 46.5553 9.70003C46.8595 9.77654 47.0164 10.0121 47.026 10.4066C47.0067 10.7172 46.9819 11.1842 46.9516 11.8075C46.9195 12.6485 46.8957 13.614 46.8804 14.7039C46.8802 14.7865 46.9047 14.9872 46.9539 15.3062C46.9935 15.5697 46.9983 15.7611 46.9683 15.8803C46.9279 16.0411 46.8332 16.1603 46.6843 16.2379C46.5382 16.3161 46.3897 16.3333 46.239 16.2895ZM45.7648 11.6328C45.4556 11.9502 45.0311 12.3814 44.4911 12.9267C44.6225 12.9303 44.8217 12.9568 45.0886 13.0062C45.4033 13.0647 45.6021 13.0985 45.6851 13.1076C45.7094 12.7304 45.7359 12.2388 45.7648 11.6328Z" fill="black"/>
<path d="M51.0075 17.1836C50.3024 17.2628 49.4575 17.1785 48.4729 16.9309C48.307 16.8892 48.175 16.7823 48.0772 16.6103C47.982 16.4389 47.9543 16.2742 47.9941 16.1162L49.1029 11.7073C49.142 11.5166 49.1825 11.3263 49.2244 11.1364C49.2698 10.9208 49.3221 10.7423 49.3812 10.6009C49.4854 10.35 49.7672 10.2528 50.2264 10.3093C50.452 10.3012 50.8081 10.3583 51.2949 10.4807C51.8176 10.6122 52.2757 10.9072 52.6691 11.3659C53.1315 11.9008 53.2884 12.4636 53.1399 13.0542C53.0597 13.3731 52.934 13.6275 52.7627 13.8173C52.6268 13.9718 52.42 14.1218 52.1423 14.2672C52.3778 14.465 52.5662 14.7217 52.7074 15.0372C52.8685 15.3903 52.9125 15.7124 52.8393 16.0036C52.7465 16.3723 52.4581 16.6713 51.9741 16.9004C51.6507 17.052 51.3285 17.1464 51.0075 17.1836ZM51.0114 11.6079C50.6546 11.5182 50.4396 11.467 50.3663 11.4545L50.1487 12.3373L49.9248 13.2097C50.1689 13.3035 50.3559 13.3609 50.4859 13.3818C51.3489 13.5281 51.8506 13.3226 51.9907 12.7652C52.0402 12.5683 51.9636 12.3471 51.7607 12.1015C51.5516 11.8455 51.3018 11.6809 51.0114 11.6079ZM50.7572 14.6706C50.5056 14.6073 50.1319 14.503 49.6361 14.3577L49.2449 15.9133C49.7269 16.008 50.2657 16.0462 50.8614 16.028C51.383 16.0118 51.6613 15.9225 51.6962 15.7603C51.7416 15.5447 51.6331 15.3155 51.3707 15.0726C51.1664 14.8797 50.9619 14.7457 50.7572 14.6706Z" fill="black"/>
<path d="M58.3535 14.4936C58.1045 14.431 57.9537 14.2531 57.9011 13.9597C57.8771 13.8211 57.8406 13.7323 57.7916 13.6934C57.755 13.6636 57.6482 13.6264 57.4712 13.5819C57.1227 13.4942 56.6519 13.6648 56.0589 14.0935C55.2289 14.6926 54.7306 15.3235 54.5639 15.9862C54.4879 16.2885 54.5237 16.5731 54.6712 16.8402C54.8187 17.1072 55.0335 17.2762 55.3156 17.3472C55.5894 17.416 55.8855 17.4139 56.2039 17.3406C56.3167 17.313 56.5611 17.23 56.937 17.0916C57.189 17.0017 57.3703 16.9706 57.4809 16.9984C57.6469 17.0402 57.7726 17.1366 57.8581 17.2879C57.9373 17.4287 57.9585 17.5726 57.9215 17.7195C57.8804 17.8831 57.7726 18.0078 57.598 18.0937C56.6757 18.5457 55.8204 18.6726 55.0321 18.4744C54.4098 18.3179 53.9415 17.9583 53.6272 17.3958C53.328 16.8547 53.2531 16.2875 53.4023 15.6941C53.6359 14.7651 54.2796 13.9187 55.3334 13.1548C56.2285 12.5072 57.0356 12.2738 57.7547 12.4547C57.8764 12.4853 57.9846 12.5169 58.0793 12.5496C58.1767 12.5829 58.2607 12.6173 58.3312 12.6528C58.4829 12.5641 58.6445 12.5414 58.8159 12.5845C59.0981 12.6554 59.2315 12.8615 59.2163 13.2026C59.2047 13.4473 59.1599 13.725 59.0818 14.0356C59.0469 14.1742 58.9751 14.2903 58.8663 14.3838C58.7235 14.5071 58.5526 14.5437 58.3535 14.4936Z" fill="black"/>
<path d="M49.4288 23.3744L44.8067 26.1879C44.4415 26.4102 43.985 26.0973 44.0606 25.6766L44.7512 21.8319C44.8001 21.5596 44.6217 21.2978 44.3529 21.2318C42.5008 20.7775 36.1409 18.6727 38.9323 11.6448C41.9859 3.9571 47.547 4.50932 53.0685 5.69309C61.0169 7.39716 64.4069 11.8998 62.465 17.337C60.1657 23.7751 51.0441 23.3911 49.7282 23.301C49.6214 23.2937 49.5202 23.3188 49.4288 23.3744Z" stroke="black" stroke-width="1.98391" stroke-linecap="round"/>
</svg>
