<svg width="64" height="64" viewBox="0 0 64 64" fill="none" xmlns="http://www.w3.org/2000/svg">
<path d="M26.1226 33.9478H36.978C44.9715 33.9478 51.4516 40.4279 51.4517 48.4214V58.6733H11.6489V48.4214C11.649 40.4279 18.1291 33.9478 26.1226 33.9478Z" fill="white" stroke="black" stroke-width="2.41228"/>
<mask id="path-2-inside-1_986_5737" fill="white">
<path d="M37.1372 32.7407C40.1777 32.7407 43.0161 33.6061 45.4194 35.104V59.8784H17.6782V35.104C20.0816 33.6061 22.92 32.7407 25.9604 32.7407H28.5396V34.9448C28.5398 36.6098 29.8892 37.9592 31.5542 37.9595C33.2194 37.9595 34.5696 36.61 34.5698 34.9448V32.7407H37.1372Z"/>
</mask>
<path d="M37.1372 32.7407C40.1777 32.7407 43.0161 33.6061 45.4194 35.104V59.8784H17.6782V35.104C20.0816 33.6061 22.92 32.7407 25.9604 32.7407H28.5396V34.9448C28.5398 36.6098 29.8892 37.9592 31.5542 37.9595C33.2194 37.9595 34.5696 36.61 34.5698 34.9448V32.7407H37.1372Z" fill="#40A3FF"/>
<path d="M37.1372 32.7407L37.1372 30.3284H37.1372V32.7407ZM45.4194 35.104H47.8317V33.765L46.6954 33.0568L45.4194 35.104ZM45.4194 59.8784V62.2907H47.8317V59.8784H45.4194ZM17.6782 59.8784H15.2659V62.2907H17.6782V59.8784ZM17.6782 35.104L16.4023 33.0568L15.2659 33.765V35.104H17.6782ZM28.5396 32.7407H30.9518V30.3284H28.5396V32.7407ZM28.5396 34.9448L26.1273 34.9448L26.1273 34.9451L28.5396 34.9448ZM31.5542 37.9595L31.5538 40.3718H31.5542V37.9595ZM34.5698 34.9448L36.9821 34.9451V34.9448H34.5698ZM34.5698 32.7407V30.3284H32.1575V32.7407H34.5698ZM37.1372 32.7407L37.1372 35.153C39.7137 35.153 42.1118 35.8849 44.1435 37.1512L45.4194 35.104L46.6954 33.0568C43.9203 31.3272 40.6417 30.3284 37.1372 30.3284L37.1372 32.7407ZM45.4194 35.104H43.0072V59.8784H45.4194H47.8317V35.104H45.4194ZM45.4194 59.8784V57.4661H17.6782V59.8784V62.2907H45.4194V59.8784ZM17.6782 59.8784H20.0905V35.104H17.6782H15.2659V59.8784H17.6782ZM17.6782 35.104L18.9542 37.1512C20.9858 35.885 23.384 35.153 25.9604 35.153V32.7407V30.3284C22.456 30.3284 19.1773 31.3272 16.4023 33.0568L17.6782 35.104ZM25.9604 32.7407V35.153H28.5396V32.7407V30.3284H25.9604V32.7407ZM28.5396 32.7407H26.1273V34.9448H28.5396H30.9518V32.7407H28.5396ZM28.5396 34.9448L26.1273 34.9451C26.1276 37.9422 28.5569 40.3713 31.5538 40.3718L31.5542 37.9595L31.5546 35.5472C31.2215 35.5471 30.9519 35.2774 30.9518 34.9445L28.5396 34.9448ZM31.5542 37.9595V40.3718C34.551 40.3718 36.9817 37.943 36.9821 34.9451L34.5698 34.9448L32.1575 34.9445C32.1575 35.2769 31.8878 35.5472 31.5542 35.5472V37.9595ZM34.5698 34.9448H36.9821V32.7407H34.5698H32.1575V34.9448H34.5698ZM34.5698 32.7407V35.153H37.1372V32.7407V30.3284H34.5698V32.7407Z" fill="black" mask="url(#path-2-inside-1_986_5737)"/>
<rect x="15.2667" y="20.077" width="8.44298" height="9.04605" rx="4.22149" fill="#EDCEB7" stroke="black" stroke-width="2.41228"/>
<rect x="39.3897" y="20.077" width="8.44298" height="9.04605" rx="4.22149" fill="#EDCEB7" stroke="black" stroke-width="2.41228"/>
<rect x="19.4893" y="6.20663" width="24.1228" height="28.9474" rx="11.7599" fill="#F9E8DB" stroke="black" stroke-width="2.41228"/>
<circle cx="25.2323" cy="29.3101" r="1.50138" transform="rotate(7.82126 25.2323 29.3101)" fill="#FFB1B1"/>
<circle cx="38.1571" cy="29.3101" r="1.50138" transform="rotate(7.82126 38.1571 29.3101)" fill="#FFB1B1"/>
<path d="M31.853 5C34.1523 5.00004 36.3117 5.59872 38.1841 6.64844V9.52344C38.1839 16.6842 32.3791 22.4893 25.2183 22.4893H20.9966C20.066 22.4892 19.1587 22.3895 18.2837 22.2031V17.9658C18.2838 10.805 24.0887 5.0001 31.2495 5H31.853Z" fill="black"/>
<path d="M32.1528 5.00415C39.1747 5.16416 44.8179 10.9067 44.8179 17.967V22.4856C37.796 22.3256 32.1529 16.584 32.1528 9.52368V5.00415Z" fill="black"/>
<path d="M29.7402 30.3291C29.7402 30.3291 30.6448 30.9322 31.5494 30.9322C32.454 30.9322 33.3587 30.3291 33.3587 30.3291" stroke="black" stroke-width="2.41228" stroke-linecap="round"/>
<path d="M25.52 24.9014C25.52 24.9014 26.2739 25.5044 27.0277 25.5044C27.7815 25.5044 28.5354 24.9014 28.5354 24.9014" stroke="black" stroke-width="2.41228" stroke-linecap="round"/>
<path d="M34.5659 24.9014C34.5659 24.9014 35.3198 25.5044 36.0736 25.5044C36.8274 25.5044 37.5813 24.9014 37.5813 24.9014" stroke="black" stroke-width="2.41228" stroke-linecap="round"/>
<path d="M55.6738 57.6703C55.6738 58.6695 54.8638 59.4796 53.8646 59.4796H9.23695C8.23775 59.4796 7.42773 58.6695 7.42773 57.6704V47.8001C7.42773 46.7297 8.35829 45.8923 9.42091 46.0212C21.5882 47.4974 27.6437 50.7051 30.1793 52.4932C30.9831 53.0601 32.1184 53.0601 32.9223 52.4933C35.4579 50.7051 41.5135 47.4974 53.6807 46.0212C54.7433 45.8923 55.6738 46.7297 55.6738 47.8001V57.6703Z" fill="#EEEEEE"/>
<path d="M53.6807 46.0212L53.5354 44.8238L53.6807 46.0212ZM30.1793 52.4932L29.4841 53.4789L30.1793 52.4932ZM32.9223 52.4933L32.2272 51.5076L32.9223 52.4933ZM53.8646 59.4796V58.2734H9.23695V59.4796V60.6857H53.8646V59.4796ZM7.42773 57.6704H8.63387V47.8001H7.42773H6.22159V57.6704H7.42773ZM9.42091 46.0212L9.27563 47.2185C21.281 48.6752 27.1389 51.825 29.4841 53.4789L30.1793 52.4932L30.8744 51.5076C28.1485 49.5852 21.8953 46.3197 9.56618 44.8238L9.42091 46.0212ZM32.9223 52.4933L33.6174 53.4789C35.9628 51.825 41.8206 48.6751 53.8259 47.2185L53.6807 46.0212L53.5354 44.8238C41.2063 46.3197 34.9531 49.5852 32.2272 51.5076L32.9223 52.4933ZM55.6738 47.8001H54.4677V57.6703H55.6738H56.88V47.8001H55.6738ZM53.6807 46.0212L53.8259 47.2185C54.1582 47.1782 54.4677 47.4414 54.4677 47.8001H55.6738H56.88C56.88 46.018 55.3284 44.6063 53.5354 44.8238L53.6807 46.0212ZM30.1793 52.4932L29.4841 53.4789C30.7048 54.3398 32.3967 54.3398 33.6174 53.4789L32.9223 52.4933L32.2272 51.5076C31.8401 51.7805 31.2615 51.7805 30.8744 51.5076L30.1793 52.4932ZM7.42773 47.8001H8.63387C8.63387 47.4414 8.94338 47.1782 9.27563 47.2185L9.42091 46.0212L9.56618 44.8238C7.7732 44.6063 6.22159 46.018 6.22159 47.8001H7.42773ZM9.23695 59.4796V58.2734C8.90388 58.2734 8.63387 58.0034 8.63387 57.6704H7.42773H6.22159C6.22159 59.3357 7.57162 60.6857 9.23695 60.6857V59.4796ZM53.8646 59.4796V60.6857C55.53 60.6857 56.88 59.3357 56.88 57.6703H55.6738H54.4677C54.4677 58.0034 54.1977 58.2734 53.8646 58.2734V59.4796Z" fill="black"/>
<path d="M55.6738 57.6727C55.6738 58.6719 54.8638 59.4819 53.8646 59.4819H9.23695C8.23775 59.4819 7.42773 58.6719 7.42773 57.6727V51.4235C7.42773 50.3723 8.32644 49.5415 9.37357 49.634C22.0231 50.7517 28.0809 53.2377 30.4472 54.5127C31.1283 54.8797 31.9732 54.8797 32.6544 54.5127C35.0207 53.2377 41.0786 50.7516 53.728 49.634C54.7751 49.5415 55.6738 50.3723 55.6738 51.4235V57.6727Z" fill="#C2C2C2"/>
<path d="M53.728 49.634L53.6218 48.4325L53.728 49.634ZM30.4472 54.5127L29.8751 55.5745L30.4472 54.5127ZM32.6544 54.5127L33.2265 55.5745L32.6544 54.5127ZM53.8646 59.4819V58.2758H9.23695V59.4819V60.6881H53.8646V59.4819ZM7.42773 57.6727H8.63387V51.4235H7.42773H6.22159V57.6727H7.42773ZM9.37357 49.634L9.26741 50.8355C21.7991 51.9427 27.6884 54.3963 29.8751 55.5745L30.4472 54.5127L31.0193 53.4509C28.4735 52.0792 22.247 49.5606 9.47973 48.4325L9.37357 49.634ZM32.6544 54.5127L33.2265 55.5745C35.4133 54.3963 41.3026 51.9427 53.8341 50.8355L53.728 49.634L53.6218 48.4325C40.8547 49.5606 34.6282 52.0792 32.0823 53.4509L32.6544 54.5127ZM55.6738 51.4235H54.4677V57.6727H55.6738H56.88V51.4235H55.6738ZM53.728 49.634L53.8341 50.8355C54.1688 50.8059 54.4677 51.073 54.4677 51.4235H55.6738H56.88C56.88 49.6715 55.3815 48.2771 53.6218 48.4325L53.728 49.634ZM30.4472 54.5127L29.8751 55.5745C30.9133 56.1339 32.1882 56.134 33.2265 55.5745L32.6544 54.5127L32.0823 53.4509C31.7583 53.6254 31.3433 53.6254 31.0193 53.4509L30.4472 54.5127ZM7.42773 51.4235H8.63387C8.63387 51.073 8.93279 50.8059 9.26741 50.8355L9.37357 49.634L9.47973 48.4325C7.72008 48.2771 6.22159 49.6715 6.22159 51.4235H7.42773ZM9.23695 59.4819V58.2758C8.90388 58.2758 8.63387 58.0058 8.63387 57.6727H7.42773H6.22159C6.22159 59.338 7.57162 60.6881 9.23695 60.6881V59.4819ZM53.8646 59.4819V60.6881C55.53 60.6881 56.88 59.338 56.88 57.6727H55.6738H54.4677C54.4677 58.0058 54.1977 58.2758 53.8646 58.2758V59.4819Z" fill="black"/>
<path d="M55.6738 57.6731C55.6738 58.6723 54.8638 59.4823 53.8646 59.4823H9.23695C8.23775 59.4823 7.42773 58.6723 7.42773 57.6731V55.65C7.42773 54.6212 8.2898 53.7988 9.31737 53.8504C22.821 54.5289 28.8316 56.0984 30.86 56.7736C31.3095 56.9233 31.7921 56.9233 32.2416 56.7736C34.2701 56.0984 40.2809 54.5289 53.7842 53.8504C54.8118 53.7988 55.6738 54.6212 55.6738 55.65V57.6731Z" fill="#454545"/>
<path d="M30.86 56.7736L30.479 57.918L30.86 56.7736ZM9.31737 53.8504L9.37789 52.6458L9.31737 53.8504ZM53.8646 59.4823V58.2762H9.23695V59.4823V60.6884H53.8646V59.4823ZM7.42773 57.6731H8.63387V55.65H7.42773H6.22159V57.6731H7.42773ZM9.31737 53.8504L9.25684 55.0551C22.694 55.7302 28.5881 57.2886 30.479 57.918L30.86 56.7736L31.2409 55.6292C29.0751 54.9083 22.9479 53.3276 9.37789 52.6458L9.31737 53.8504ZM32.2416 56.7736L32.6226 57.918C34.5136 57.2886 40.4078 55.7302 53.8447 55.0551L53.7842 53.8504L53.7237 52.6458C40.1539 53.3276 34.0266 54.9082 31.8607 55.6292L32.2416 56.7736ZM55.6738 55.65H54.4677V57.6731H55.6738H56.88V55.65H55.6738ZM53.7842 53.8504L53.8447 55.0551C54.181 55.0382 54.4677 55.3088 54.4677 55.65H55.6738H56.88C56.88 53.9335 55.4425 52.5595 53.7237 52.6458L53.7842 53.8504ZM30.86 56.7736L30.479 57.918C31.1758 58.15 31.9257 58.15 32.6226 57.918L32.2416 56.7736L31.8607 55.6292C31.6584 55.6966 31.4431 55.6966 31.2409 55.6292L30.86 56.7736ZM7.42773 55.65H8.63387C8.63387 55.3088 8.92054 55.0382 9.25684 55.0551L9.31737 53.8504L9.37789 52.6458C7.65905 52.5595 6.22159 53.9335 6.22159 55.65H7.42773ZM9.23695 59.4823V58.2762C8.90388 58.2762 8.63387 58.0062 8.63387 57.6731H7.42773H6.22159C6.22159 59.3384 7.57162 60.6884 9.23695 60.6884V59.4823ZM53.8646 59.4823V60.6884C55.5299 60.6884 56.88 59.3384 56.88 57.6731H55.6738H54.4677C54.4677 58.0062 54.1977 58.2762 53.8646 58.2762V59.4823Z" fill="black"/>
<path d="M7.59959 44.565L8.83943 43.8492C9.78687 43.3022 10.9719 43.8077 11.2636 44.8233L11.3098 45.0323C11.5235 46.4103 12.4277 47.5837 13.7059 48.1414L14.4759 48.4771C15.1299 48.7624 15.6655 49.2643 15.9932 49.8981C16.7555 51.3726 16.2244 53.1858 14.7869 54.0158L14.518 54.1711C11.7669 55.7594 8.24902 54.8168 6.66068 52.0657L5.92924 50.7988C4.66925 48.6162 5.41708 45.8252 7.59959 44.565Z" fill="#F9E8DB" stroke="black" stroke-width="2.41228"/>
<path d="M56.4004 44.565L55.1606 43.8492C54.2131 43.3022 53.0281 43.8077 52.7364 44.8233L52.6902 45.0323C52.4765 46.4103 51.5723 47.5837 50.2941 48.1414L49.5241 48.4771C48.8701 48.7624 48.3345 49.2643 48.0068 49.8981C47.2445 51.3726 47.7756 53.1858 49.2131 54.0158L49.482 54.1711C52.2331 55.7594 55.751 54.8168 57.3393 52.0657L58.0708 50.7988C59.3307 48.6162 58.5829 45.8252 56.4004 44.565Z" fill="#F9E8DB" stroke="black" stroke-width="2.41228"/>
</svg>
