<svg width="64" height="64" viewBox="0 0 64 64" fill="none" xmlns="http://www.w3.org/2000/svg">
<g clip-path="url(#clip0_598_5232)">
<path d="M25.7308 33.8769H37.3096C45.836 33.8769 52.748 40.7889 52.748 49.3153V60.2508H10.2924V49.3152C10.2924 40.7889 17.2044 33.8769 25.7308 33.8769Z" fill="#646464" stroke="black" stroke-width="2.57307"/>
<mask id="path-2-inside-1_598_5232" fill="white">
<path fill-rule="evenodd" clip-rule="evenodd" d="M46.3168 61.5371H16.7266V35.1109C19.2901 33.5131 22.3176 32.5901 25.5607 32.5901H37.4825C40.7257 32.5901 43.7533 33.5132 46.3168 35.111V61.5371ZM34.7429 32.5904H28.3103V34.9408C28.3103 36.7171 29.7503 38.1571 31.5266 38.1571C33.3029 38.1571 34.7429 36.7171 34.7429 34.9408V32.5904Z"/>
</mask>
<path fill-rule="evenodd" clip-rule="evenodd" d="M46.3168 61.5371H16.7266V35.1109C19.2901 33.5131 22.3176 32.5901 25.5607 32.5901H37.4825C40.7257 32.5901 43.7533 33.5132 46.3168 35.111V61.5371ZM34.7429 32.5904H28.3103V34.9408C28.3103 36.7171 29.7503 38.1571 31.5266 38.1571C33.3029 38.1571 34.7429 36.7171 34.7429 34.9408V32.5904Z" fill="#999999"/>
<path d="M16.7266 61.5371H14.1535V64.1101H16.7266V61.5371ZM46.3168 61.5371V64.1101H48.8899V61.5371H46.3168ZM16.7266 35.1109L15.3656 32.9272L14.1535 33.6826V35.1109H16.7266ZM46.3168 35.111H48.8899V33.6828L47.6778 32.9274L46.3168 35.111ZM28.3103 32.5904V30.0173H25.7372V32.5904H28.3103ZM34.7429 32.5904H37.316V30.0173H34.7429V32.5904ZM16.7266 64.1101H46.3168V58.964H16.7266V64.1101ZM14.1535 35.1109V61.5371H19.2996V35.1109H14.1535ZM25.5607 30.017C21.8226 30.017 18.3255 31.0824 15.3656 32.9272L18.0875 37.2945C20.2546 35.9439 22.8125 35.1632 25.5607 35.1632V30.017ZM37.4825 30.017H25.5607V35.1632H37.4825V30.017ZM47.6778 32.9274C44.7178 31.0824 41.2207 30.017 37.4825 30.017V35.1632C40.2307 35.1632 42.7887 35.9439 44.9558 37.2946L47.6778 32.9274ZM48.8899 61.5371V35.111H43.7438V61.5371H48.8899ZM28.3103 35.1634H34.7429V30.0173H28.3103V35.1634ZM30.8833 34.9408V32.5904H25.7372V34.9408H30.8833ZM31.5266 35.584C31.1713 35.584 30.8833 35.296 30.8833 34.9408H25.7372C25.7372 38.1382 28.3292 40.7302 31.5266 40.7302V35.584ZM32.1699 34.9408C32.1699 35.296 31.8819 35.584 31.5266 35.584V40.7302C34.724 40.7302 37.316 38.1382 37.316 34.9408H32.1699ZM32.1699 32.5904V34.9408H37.316V32.5904H32.1699Z" fill="black" mask="url(#path-2-inside-1_598_5232)"/>
<rect x="14.1498" y="19.0817" width="9.00573" height="9.649" rx="4.50287" fill="#D9D9D9" stroke="black" stroke-width="2.57307"/>
<rect x="39.8822" y="19.0817" width="9.00573" height="9.649" rx="4.50287" fill="#D9D9D9" stroke="black" stroke-width="2.57307"/>
<rect x="18.6537" y="4.28653" width="25.7307" height="30.8768" rx="12.5437" fill="#D9D9D9" stroke="black" stroke-width="2.57307"/>
<path fill-rule="evenodd" clip-rule="evenodd" d="M38.5945 4.75838V7.82429C38.5945 15.4625 32.4025 21.6545 24.7643 21.6545H20.2614C19.2688 21.6545 18.3006 21.55 17.3672 21.3512V16.8302C17.3672 9.19202 23.5592 3 31.1974 3H31.8407C34.2935 3 36.5971 3.63851 38.5945 4.75838Z" fill="black"/>
<path fill-rule="evenodd" clip-rule="evenodd" d="M45.6711 21.6513C38.1813 21.4806 32.1621 15.3556 32.1621 7.82476V3.00391C39.652 3.1746 45.6711 9.29961 45.6711 16.8305V21.6513Z" fill="black"/>
<path d="M29.5898 30.0173C29.5898 30.0173 30.5547 30.6606 31.5196 30.6606C32.4845 30.6606 33.4494 30.0173 33.4494 30.0173" stroke="black" stroke-width="2.57307" stroke-linecap="round"/>
<path d="M25.0859 24.2278C25.0859 24.2278 25.89 24.871 26.6941 24.871C27.4982 24.871 28.3023 24.2278 28.3023 24.2278" stroke="black" stroke-width="2.57307" stroke-linecap="round"/>
<path d="M34.7363 24.2278C34.7363 24.2278 35.5404 24.871 36.3445 24.871C37.1486 24.871 37.9527 24.2278 37.9527 24.2278" stroke="black" stroke-width="2.57307" stroke-linecap="round"/>
<path fill-rule="evenodd" clip-rule="evenodd" d="M5.79102 59.1815C5.79102 60.2473 6.65502 61.1113 7.72081 61.1113H31.3558H31.6877H55.3226C56.3884 61.1113 57.2524 60.2473 57.2524 59.1815V48.6535C57.2524 47.5117 56.2598 46.6184 55.1264 46.7559C42.1496 48.3302 35.6889 51.7493 32.9831 53.656C32.1262 54.2598 30.9172 54.2598 30.0604 53.656C27.3545 51.7493 20.8939 48.3302 7.91705 46.7559C6.7836 46.6184 5.79102 47.5117 5.79102 48.6535V59.1815Z" fill="#939393"/>
<path d="M32.9831 53.656L32.242 52.6043L32.9831 53.656ZM30.0604 53.656L29.3193 54.7077L30.0604 53.656ZM31.3558 59.8248H7.72081V62.3978H31.3558V59.8248ZM31.3558 62.3978H31.6877V59.8248H31.3558V62.3978ZM31.6877 62.3978H55.3226V59.8248H31.6877V62.3978ZM58.539 59.1815V48.6535H55.9659V59.1815H58.539ZM54.9715 45.4788C41.8222 47.074 35.1508 50.5546 32.242 52.6043L33.7241 54.7077C36.227 52.9439 42.477 49.5865 55.2813 48.0331L54.9715 45.4788ZM7.76211 48.0331C20.5665 49.5865 26.8164 52.9439 29.3193 54.7077L30.8014 52.6043C27.8927 50.5546 21.2213 47.074 8.07198 45.4788L7.76211 48.0331ZM7.07755 59.1815V48.6535H4.50448V59.1815H7.07755ZM32.242 52.6043C31.8296 52.8949 31.2139 52.8949 30.8014 52.6043L29.3193 54.7077C30.6206 55.6246 32.4229 55.6246 33.7241 54.7077L32.242 52.6043ZM58.539 48.6535C58.539 46.7526 56.8839 45.2468 54.9715 45.4788L55.2813 48.0331C55.6358 47.9901 55.9659 48.2709 55.9659 48.6535H58.539ZM55.3226 62.3978C57.099 62.3978 58.539 60.9578 58.539 59.1815H55.9659C55.9659 59.5368 55.6779 59.8248 55.3226 59.8248V62.3978ZM8.07198 45.4788C6.15951 45.2468 4.50448 46.7526 4.50448 48.6535H7.07755C7.07755 48.2709 7.40769 47.9901 7.76211 48.0331L8.07198 45.4788ZM7.72081 59.8248C7.36555 59.8248 7.07755 59.5368 7.07755 59.1815H4.50448C4.50448 60.9578 5.94448 62.3978 7.72081 62.3978V59.8248Z" fill="black"/>
<path fill-rule="evenodd" clip-rule="evenodd" d="M5.79102 59.1835C5.79102 60.2493 6.65502 61.1133 7.72081 61.1133H31.3558H31.6877H55.3226C56.3884 61.1133 57.2524 60.2493 57.2524 59.1835V52.5181C57.2524 51.3968 56.2938 50.5106 55.1769 50.6093C41.6855 51.8012 35.2228 54.4511 32.698 55.8106C31.9718 56.2016 31.0717 56.2016 30.3455 55.8106C27.8206 54.4511 21.3579 51.8012 7.86655 50.6093C6.74962 50.5106 5.79102 51.3968 5.79102 52.5181V59.1835Z" fill="#939393"/>
<path d="M32.698 55.8106L32.088 54.6779L32.698 55.8106ZM30.3455 55.8106L29.7355 56.9434L30.3455 55.8106ZM31.3558 59.8268H7.72081V62.3998H31.3558V59.8268ZM31.3558 62.3998H31.6877V59.8268H31.3558V62.3998ZM31.6877 62.3998H55.3226V59.8268H31.6877V62.3998ZM58.539 59.1835V52.5181H55.9659V59.1835H58.539ZM55.0637 49.3278C41.4468 50.5308 34.8044 53.2153 32.088 54.6779L33.3079 56.9434C35.6413 55.687 41.9242 53.0717 55.2901 51.8909L55.0637 49.3278ZM7.75333 51.8909C21.1192 53.0717 27.4022 55.687 29.7355 56.9434L30.9554 54.6779C28.2391 53.2153 21.5967 50.5308 7.97977 49.3278L7.75333 51.8909ZM7.07755 59.1835V52.5181H4.50448V59.1835H7.07755ZM32.088 54.6779C31.7426 54.8639 31.3008 54.8639 30.9554 54.6779L29.7355 56.9434C30.8425 57.5394 32.201 57.5394 33.3079 56.9434L32.088 54.6779ZM58.539 52.5181C58.539 50.6493 56.9406 49.162 55.0637 49.3278L55.2901 51.8909C55.6471 51.8593 55.9659 52.1443 55.9659 52.5181H58.539ZM55.3226 62.3998C57.099 62.3998 58.539 60.9598 58.539 59.1835H55.9659C55.9659 59.5388 55.6779 59.8268 55.3226 59.8268V62.3998ZM7.97977 49.3278C6.10285 49.162 4.50448 50.6493 4.50448 52.5181H7.07755C7.07755 52.1443 7.39639 51.8593 7.75333 51.8909L7.97977 49.3278ZM7.72081 59.8268C7.36555 59.8268 7.07755 59.5388 7.07755 59.1835H4.50448C4.50448 60.9598 5.94448 62.3998 7.72081 62.3998V59.8268Z" fill="black"/>
<path fill-rule="evenodd" clip-rule="evenodd" d="M5.79102 59.1835C5.79102 60.2493 6.65502 61.1133 7.72081 61.1133H31.3558H31.6877H55.3226C56.3884 61.1133 57.2524 60.2493 57.2524 59.1835V57.0255C57.2524 55.9281 56.3329 55.0509 55.2368 55.106C40.8346 55.8295 34.4227 57.5026 32.2584 58.2227C31.779 58.3822 31.2644 58.3822 30.7851 58.2227C28.6208 57.5026 22.2089 55.8295 7.8066 55.106C6.71054 55.0509 5.79102 55.9281 5.79102 57.0255V59.1835Z" fill="#939393"/>
<path d="M32.2584 58.2227L31.8522 57.002L32.2584 58.2227ZM31.3558 59.8268H7.72081V62.3999H31.3558V59.8268ZM31.3558 62.3999H31.6877V59.8268H31.3558V62.3999ZM31.6877 62.3999H55.3226V59.8268H31.6877V62.3999ZM58.539 59.1835V57.0255H55.9659V59.1835H58.539ZM55.1723 53.8211C40.6992 54.5482 34.1631 56.2331 31.8522 57.002L32.6645 59.4435C34.6823 58.7721 40.9699 57.1109 55.3014 56.3909L55.1723 53.8211ZM7.74205 56.3909C22.0735 57.1109 28.3612 58.7721 30.3789 59.4435L31.1912 57.002C28.8803 56.2331 22.3443 54.5482 7.87116 53.8211L7.74205 56.3909ZM7.07755 59.1835V57.0255H4.50448V59.1835H7.07755ZM31.8522 57.002C31.6365 57.0737 31.4069 57.0737 31.1912 57.002L30.3789 59.4435C31.1219 59.6907 31.9215 59.6907 32.6645 59.4435L31.8522 57.002ZM58.539 57.0255C58.539 55.1946 57.0057 53.729 55.1723 53.8211L55.3014 56.3909C55.6601 56.3729 55.9659 56.6616 55.9659 57.0255H58.539ZM55.3226 62.3999C57.099 62.3999 58.539 60.9599 58.539 59.1835H55.9659C55.9659 59.5388 55.6779 59.8268 55.3226 59.8268V62.3999ZM7.87116 53.8211C6.03776 53.729 4.50448 55.1946 4.50448 57.0255H7.07755C7.07755 56.6616 7.38332 56.3729 7.74205 56.3909L7.87116 53.8211ZM7.72081 59.8268C7.36555 59.8268 7.07755 59.5388 7.07755 59.1835H4.50448C4.50448 60.9599 5.94448 62.3999 7.72081 62.3999V59.8268Z" fill="black"/>
<path d="M5.97311 45.2023L7.29529 44.4389C8.37315 43.8166 9.73974 44.4711 9.93046 45.701C10.1584 47.1709 11.1226 48.422 12.486 49.0168L13.3075 49.3752C14.0051 49.6796 14.5767 50.2148 14.9263 50.8909C15.7394 52.4637 15.1726 54.3978 13.6393 55.2831L13.3524 55.4487C10.4179 57.1429 6.66569 56.1375 4.97149 53.2031L4.19136 51.8519C2.84714 49.5236 3.64486 46.5465 5.97311 45.2023Z" fill="#D9D9D9" stroke="black" stroke-width="2.57307"/>
<path d="M58.0269 45.2023L56.7047 44.4389C55.6269 43.8166 54.2603 44.4711 54.0695 45.701C53.8416 47.1709 52.8774 48.422 51.514 49.0168L50.6925 49.3752C49.9949 49.6796 49.4233 50.2148 49.0737 50.8909C48.2606 52.4637 48.8274 54.3978 50.3607 55.2831L50.6476 55.4487C53.5821 57.1429 57.3343 56.1375 59.0285 53.2031L59.8086 51.8519C61.1529 49.5236 60.3551 46.5465 58.0269 45.2023Z" fill="#D9D9D9" stroke="black" stroke-width="2.57307"/>
</g>
<defs>
<clipPath id="clip0_598_5232">
<rect width="64" height="64" fill="white"/>
</clipPath>
</defs>
</svg>
