<svg width="40" height="40" viewBox="0 0 40 40" fill="none" xmlns="http://www.w3.org/2000/svg">
<path opacity="0.6" d="M28.0203 36.9741C33.2406 33.0791 35.4151 24.9728 37.593 18.7134C39.8768 12.1497 41.6125 9.41644 37.593 2.58879C36.4399 0.630031 34.0844 0.281967 32.2098 0.127109C24.0923 -0.543462 17.4422 1.40029 11.2173 6.88695C9.17689 8.68533 7.35355 10.6908 5.69885 12.9565C1.48714 18.7232 -0.746421 25.9058 0.225484 33.5356C0.83086 38.2879 4.32565 39.9177 8.19903 39.9177C14.2956 39.9177 22.9299 40.7723 28.0203 36.9741Z" fill="#9FE19E"/>
<path d="M21.9176 12.4545V27H19.7159V14.6562H19.6307L16.1506 16.929V14.8267L19.7798 12.4545H21.9176Z" fill="#388E20"/>
</svg>
