<svg width="40" height="40" viewBox="0 0 40 40" fill="none" xmlns="http://www.w3.org/2000/svg">
<path opacity="0.6" d="M0.807843 28.0203C4.18747 33.2406 11.221 35.4151 16.6521 37.593C22.3473 39.8768 31.8296 41.6125 37.7538 37.593C39.4533 36.4399 39.7553 34.0844 39.8897 32.2098C40.4715 24.0923 38.785 17.4422 34.0244 11.2173C32.464 9.17689 30.7239 7.35355 28.758 5.69885C23.7544 1.48714 17.5223 -0.746419 10.9021 0.22549C6.77865 0.830864 5.36455 4.32565 5.36455 8.19903C5.36455 14.2956 -2.48771 22.9299 0.807843 28.0203Z" fill="#C2C2C2"/>
<path d="M16.3991 27V25.4091L21.321 20.3097C21.8466 19.7557 22.2798 19.2704 22.6207 18.8537C22.9664 18.4323 23.2244 18.0322 23.3949 17.6534C23.5653 17.2746 23.6506 16.8722 23.6506 16.446C23.6506 15.9631 23.5369 15.5464 23.3097 15.196C23.0824 14.8409 22.7723 14.5687 22.3793 14.3793C21.9863 14.1851 21.5436 14.0881 21.0511 14.0881C20.5303 14.0881 20.0758 14.1946 19.6875 14.4077C19.2992 14.6207 19.0009 14.9214 18.7926 15.3097C18.5843 15.6979 18.4801 16.1525 18.4801 16.6733H16.3849C16.3849 15.7879 16.5885 15.0137 16.9957 14.3509C17.4029 13.688 17.9616 13.1742 18.6719 12.8097C19.3821 12.4403 20.1894 12.2557 21.0938 12.2557C22.0076 12.2557 22.8125 12.438 23.5085 12.8026C24.2093 13.1624 24.7562 13.6548 25.1491 14.2798C25.5421 14.9001 25.7386 15.6009 25.7386 16.3821C25.7386 16.9219 25.6368 17.4498 25.4332 17.9659C25.2344 18.482 24.8864 19.0573 24.3892 19.6918C23.892 20.3215 23.2008 21.0862 22.3153 21.9858L19.4247 25.0114V25.1179H25.973V27H16.3991Z" fill="black" fill-opacity="0.3"/>
</svg>
