<svg width="40" height="40" viewBox="0 0 40 40" fill="none" xmlns="http://www.w3.org/2000/svg">
<path opacity="0.6" d="M7.14116 2.99616C2.24641 6.85294 4.29895 14.8795 2.25688 21.0774C0.11551 27.5767 -1.51198 30.283 2.25688 37.0436C3.3381 38.9831 5.54672 39.3277 7.30445 39.4811C14.9157 40.1451 27.2884 41.1009 33.1251 35.6682C35.0383 33.8875 36.7479 31.9016 38.2994 29.6583C42.2485 23.9483 38.2055 13.9557 37.2942 6.4009C36.7266 1.69524 33.4497 0.0814941 29.8179 0.0814941C24.1015 0.0814941 11.9141 -0.764669 7.14116 2.99616Z" fill="#C2C2C2"/>
<path d="M21.4631 27.1989C20.4877 27.1989 19.6165 27.0308 18.8494 26.6946C18.0871 26.3584 17.4834 25.892 17.0384 25.2955C16.598 24.6941 16.3613 23.9981 16.3281 23.2074H18.5582C18.5866 23.6383 18.7311 24.0123 18.9915 24.3295C19.2566 24.642 19.6023 24.8835 20.0284 25.054C20.4545 25.2244 20.928 25.3097 21.4489 25.3097C22.0218 25.3097 22.5284 25.2102 22.9688 25.0114C23.4138 24.8125 23.7618 24.5355 24.0128 24.1804C24.2637 23.8205 24.3892 23.4062 24.3892 22.9375C24.3892 22.4498 24.2637 22.0213 24.0128 21.652C23.7666 21.2779 23.4044 20.9844 22.9261 20.7713C22.4527 20.5582 21.8797 20.4517 21.2074 20.4517H19.9787V18.6619H21.2074C21.7472 18.6619 22.2206 18.5649 22.6278 18.3707C23.0398 18.1766 23.3617 17.9067 23.5938 17.5611C23.8258 17.2107 23.9418 16.8011 23.9418 16.3324C23.9418 15.8826 23.84 15.492 23.6364 15.1605C23.4375 14.8243 23.1534 14.5616 22.7841 14.3722C22.4195 14.1828 21.9886 14.0881 21.4915 14.0881C21.018 14.0881 20.5753 14.1757 20.1634 14.3509C19.7562 14.5213 19.4247 14.7675 19.169 15.0895C18.9134 15.4067 18.776 15.7879 18.7571 16.233H16.6335C16.6572 15.447 16.8892 14.7557 17.3295 14.1591C17.7746 13.5625 18.3617 13.0961 19.0909 12.7599C19.8201 12.4238 20.6297 12.2557 21.5199 12.2557C22.4527 12.2557 23.2576 12.438 23.9347 12.8026C24.6165 13.1624 25.142 13.643 25.5114 14.2443C25.8854 14.8456 26.0701 15.5038 26.0653 16.2188C26.0701 17.0331 25.8428 17.7244 25.3835 18.2926C24.929 18.8608 24.3229 19.242 23.5653 19.4361V19.5497C24.5313 19.6965 25.2794 20.08 25.8097 20.7003C26.3447 21.3205 26.6098 22.09 26.6051 23.0085C26.6098 23.8087 26.3873 24.526 25.9375 25.1605C25.4924 25.795 24.884 26.2945 24.1122 26.6591C23.3404 27.0189 22.4574 27.1989 21.4631 27.1989Z" fill="black" fill-opacity="0.3"/>
</svg>
