<svg width="184" height="198" viewBox="0 0 184 198" fill="none" xmlns="http://www.w3.org/2000/svg">
<rect x="7.60839" y="117.674" width="68.0038" height="28.3349" rx="14.1675" transform="rotate(-20.5377 7.60839 117.674)" fill="#D9D9D9" stroke="#979797" stroke-width="5.66699"/>
<rect x="-3.70414" y="1.52864" width="68.0038" height="28.3349" rx="14.1675" transform="matrix(-0.923379 -0.38389 -0.38389 0.923379 174.742 117.862)" fill="#D9D9D9" stroke="#979797" stroke-width="5.66699"/>
<circle cx="50.8786" cy="27.4296" r="19.8344" transform="rotate(1.01858 50.8786 27.4296)" fill="#D9D9D9" stroke="#979797" stroke-width="5.66699"/>
<circle cx="141.535" cy="29.0419" r="19.8344" transform="rotate(1.01858 141.535 29.0419)" fill="#D9D9D9" stroke="#979797" stroke-width="5.66699"/>
<path d="M136.682 142.647C136.415 157.685 131.111 167.994 123.017 174.545C114.842 181.162 103.465 184.232 90.6039 184.003C77.7431 183.774 66.4824 180.302 58.5479 173.399C50.691 166.564 45.7574 156.073 46.0248 141.035C46.5649 110.657 67.7105 87.2421 92.3165 87.6796C116.922 88.117 137.222 112.268 136.682 142.647Z" fill="#D9D9D9" stroke="#979797" stroke-width="5.66699"/>
<path d="M143.711 65.922C143.463 79.9026 137.682 89.5505 128.605 95.748C119.393 102.037 106.529 104.936 92.0114 104.678C77.4933 104.42 64.7408 101.066 55.7584 94.4528C46.9075 87.9366 41.4732 78.0893 41.7217 64.1087C42.2225 35.945 65.4595 13.5198 93.6232 14.0205C121.787 14.5213 144.212 37.7583 143.711 65.922Z" fill="#D9D9D9" stroke="#979797" stroke-width="5.66699"/>
<mask id="path-7-inside-1_583_6203" fill="white">
<path fill-rule="evenodd" clip-rule="evenodd" d="M54.1951 173.16C54.0638 171.568 54.0112 169.91 54.0419 168.183C54.4772 143.701 71.3192 124.148 91.6597 124.509C112 124.871 128.136 145.011 127.701 169.493C127.67 171.219 127.559 172.874 127.371 174.46C118.379 183.234 105.192 187.097 90.5512 186.836C75.9111 186.576 62.8694 182.248 54.1951 173.16Z"/>
</mask>
<path fill-rule="evenodd" clip-rule="evenodd" d="M54.1951 173.16C54.0638 171.568 54.0112 169.91 54.0419 168.183C54.4772 143.701 71.3192 124.148 91.6597 124.509C112 124.871 128.136 145.011 127.701 169.493C127.67 171.219 127.559 172.874 127.371 174.46C118.379 183.234 105.192 187.097 90.5512 186.836C75.9111 186.576 62.8694 182.248 54.1951 173.16Z" fill="#D9D9D9"/>
<path d="M54.1951 173.16L48.5473 173.626L48.7121 175.623L50.0957 177.072L54.1951 173.16ZM127.371 174.46L131.329 178.516L132.763 177.116L132.999 175.126L127.371 174.46ZM59.8429 172.694C59.7279 171.3 59.6805 169.831 59.708 168.284L48.3758 168.083C48.342 169.988 48.3996 171.836 48.5473 173.626L59.8429 172.694ZM59.708 168.284C60.106 145.903 75.2855 129.886 91.5589 130.175L91.7604 118.843C67.353 118.409 48.8485 141.5 48.3758 168.083L59.708 168.284ZM91.5589 130.175C107.832 130.465 122.433 147.011 122.035 169.392L133.367 169.594C133.84 143.011 116.168 119.277 91.7604 118.843L91.5589 130.175ZM122.035 169.392C122.008 170.939 121.908 172.405 121.744 173.794L132.999 175.126C133.21 173.343 133.333 171.499 133.367 169.594L122.035 169.392ZM123.413 170.404C115.85 177.785 104.34 181.414 90.652 181.17L90.4505 192.503C106.044 192.78 120.909 188.684 131.329 178.516L123.413 170.404ZM90.652 181.17C76.9645 180.927 65.5912 176.892 58.2945 169.247L50.0957 177.072C60.1477 187.604 74.8577 192.225 90.4505 192.503L90.652 181.17Z" fill="#979797" mask="url(#path-7-inside-1_583_6203)"/>
<path d="M61.4929 157.265C65.5557 167.832 61.1852 178.633 52.7419 181.879C44.2986 185.125 33.8185 180.034 29.7557 169.467C25.693 158.899 30.0634 148.098 38.5067 144.852C46.95 141.606 57.4302 146.698 61.4929 157.265Z" fill="#D9D9D9" stroke="#979797" stroke-width="5.66699"/>
<path d="M122.041 158.341C117.605 168.758 121.589 179.707 129.911 183.251C138.234 186.795 148.888 182.08 153.324 171.663C157.76 161.247 153.776 150.298 145.454 146.754C137.131 143.21 126.477 147.925 122.041 158.341Z" fill="#D9D9D9" stroke="#979797" stroke-width="5.66699"/>
<path d="M96.8695 79.4722C94.5518 82.2376 90.2742 82.1616 88.0563 79.3156L82.8641 72.653C79.935 68.8944 82.6704 63.4187 87.4347 63.5034L98.0527 63.6922C102.817 63.7769 105.356 69.3464 102.295 72.9984L96.8695 79.4722Z" fill="#D9D9D9" stroke="#979797" stroke-width="5.66699"/>
</svg>
