<svg width="554" height="128" viewBox="0 0 554 128" fill="none" xmlns="http://www.w3.org/2000/svg">
<path d="M530.742 76.7677C530.689 79.2014 530.24 81.2647 529.393 82.9576C528.547 84.6506 527.356 85.9203 525.822 86.7668C524.341 87.6133 522.78 88.2217 521.14 88.592C519.553 88.9623 517.728 89.1475 515.664 89.1475C514.5 88.9888 513.31 88.7507 512.093 88.4333C510.876 88.1688 509.474 87.772 507.887 87.2429C506.353 86.7139 505.004 86.079 503.84 85.3384C502.729 84.5977 501.777 83.7777 500.983 82.8783C500.19 81.926 499.819 80.815 499.872 79.5452C499.978 78.2226 500.56 76.8206 501.618 75.3393C502.412 74.2283 503.47 73.6728 504.792 73.6728C506.115 73.6199 507.438 73.9638 508.76 74.7044C510.136 75.3922 511.538 76.1064 512.966 76.8471C514.448 77.5349 515.691 78.0639 516.696 78.4342C517.701 78.8046 518.574 78.6723 519.315 78.0375C519.685 77.6142 519.632 77.191 519.156 76.7677C518.68 76.3445 517.886 75.9213 516.775 75.498C515.717 75.0219 514.474 74.5193 513.046 73.9902C511.617 73.4083 510.189 72.7734 508.76 72.0856C507.332 71.345 505.983 70.5514 504.713 69.7049C503.443 68.8055 502.465 67.7474 501.777 66.5306C501.089 65.2609 500.745 63.8854 500.745 62.404C500.745 60.9227 501.327 59.1768 502.491 57.1664C503.708 55.156 505.507 53.0134 507.887 50.7385C510.533 48.781 513.548 48.0138 516.934 48.4371C520.373 48.8603 523.336 50.183 525.822 52.405C528.362 54.627 529.076 56.7167 527.965 58.6742C527.224 59.9968 526.325 60.8698 525.267 61.293C524.261 61.6633 523.256 61.6898 522.251 61.3724C521.246 61.002 520.214 60.5788 519.156 60.1026C518.151 59.6265 517.251 59.1768 516.458 58.7536C515.664 58.2774 514.977 58.1187 514.395 58.2774C513.866 58.4361 513.548 58.9916 513.442 59.9439C513.336 60.8433 513.866 61.7427 515.029 62.6421C516.193 63.4886 517.622 64.3351 519.315 65.1815C521.061 65.9751 522.806 66.8745 524.552 67.8797C526.298 68.8849 527.753 70.1546 528.917 71.6889C530.134 73.2231 530.742 74.9161 530.742 76.7677Z" fill="#DE9AE9"/>
<path d="M496.215 63.118C496.109 63.6999 495.765 64.3084 495.183 64.9432C494.601 65.5252 493.94 66.0807 493.199 66.6097C492.512 67.1388 491.586 67.6943 490.422 68.2762C489.311 68.8582 488.306 69.3343 487.406 69.7047C486.56 70.075 485.449 70.5247 484.073 71.0537C482.751 71.5299 481.719 71.9002 480.978 72.1648C480.29 72.3764 479.365 72.6674 478.201 73.0377C477.037 73.408 476.375 73.6196 476.217 73.6725C476.905 75.8946 478.174 77.2172 480.026 77.6404C481.878 78.0108 483.835 77.6404 485.898 76.5294C488.015 75.3655 489.893 73.7255 491.533 71.6093C492.326 70.657 493.517 70.9744 495.104 72.5615C496.903 74.4132 497.776 76.2913 497.723 78.1959C497.723 78.8837 497.538 79.4657 497.167 79.9418C494.628 83.169 491.348 85.4968 487.327 86.9253C483.306 88.3008 479.312 88.4595 475.344 87.4014C471.429 86.3962 468.493 84.1477 466.535 80.656C465.054 78.0637 464.181 75.2068 463.916 72.0854C463.652 68.9111 463.996 65.8955 464.948 63.0386C465.9 60.1818 467.249 57.6159 468.995 55.3409C470.794 53.0131 473.069 51.2937 475.82 50.1827C478.624 49.0188 481.613 48.7014 484.787 49.2304C488.173 49.8124 491.11 51.4789 493.596 54.2299C496.136 56.9281 497.008 59.8908 496.215 63.118ZM483.914 58.3565C483.385 57.6688 482.618 57.4836 481.613 57.801C480.608 58.0656 479.629 58.5417 478.677 59.2295C477.725 59.8643 476.905 60.6844 476.217 61.6896C475.582 62.6418 475.344 63.4883 475.503 64.229C475.82 64.9697 477.063 65.049 479.232 64.4671C482.036 63.7793 483.703 62.5889 484.232 60.896C484.496 60.1024 484.391 59.2559 483.914 58.3565Z" fill="#9AC4E9"/>
<path d="M459.151 50.7378C459.786 52.0075 460.13 55.3934 460.183 60.8955C460.289 66.3448 460.21 71.6617 459.945 76.8464C459.681 81.9782 459.416 85.3377 459.151 86.9248C459.046 87.7184 457.009 88.221 453.041 88.4326C449.126 88.6442 446.983 88.3797 446.613 87.639C445.767 85.7345 445.37 79.571 445.423 69.1487C445.476 58.7264 445.872 52.5894 446.613 50.7378C446.878 50.2087 447.618 49.8119 448.835 49.5474C450.105 49.23 451.454 49.0977 452.882 49.1506C454.311 49.1506 455.66 49.3093 456.929 49.6268C458.199 49.8913 458.94 50.2616 459.151 50.7378ZM459.151 44.4685C458.887 45.3679 457.802 45.9763 455.898 46.2937C454.046 46.5583 452.221 46.5583 450.422 46.2937C448.623 46.0292 447.592 45.6589 447.327 45.1827C446.428 44.2834 446.428 40.3419 447.327 33.3585C448.121 32.5649 450.211 32.1416 453.596 32.0887C456.982 32.0358 458.808 32.5384 459.072 33.5965C459.919 38.5167 459.945 42.1407 459.151 44.4685Z" fill="#147FC7"/>
<path d="M409.643 50.1826C409.855 49.3361 411.521 48.9129 414.643 48.9129C417.817 48.86 420.118 49.0981 421.547 49.6271C421.494 51.902 421.415 53.5685 421.309 54.6266C421.626 54.415 422.102 54.0976 422.737 53.6743C423.372 53.1982 423.981 52.7485 424.563 52.3253C425.145 51.902 425.806 51.4523 426.546 50.9762C427.287 50.4471 428.001 50.0239 428.689 49.7065C429.377 49.3361 430.065 49.0452 430.752 48.8335C431.44 48.6219 432.101 48.5426 432.736 48.5955C433.424 48.6484 434.033 48.8335 434.562 49.151C436.519 50.4736 438.582 52.5369 440.751 55.3409C442.921 58.0919 443.661 60.0759 442.973 61.2927C442.074 62.9856 441.175 64.0966 440.275 64.6257C439.429 65.1547 438.582 65.2341 437.736 64.8638C436.889 64.4405 436.016 63.9115 435.117 63.2766C434.271 62.6418 433.239 62.0863 432.022 61.6101C430.805 61.134 429.589 61.0546 428.372 61.372C426.573 61.7424 425.118 62.7476 424.007 64.3876C422.949 65.9748 422.261 67.9058 421.944 70.1807C421.679 72.4556 421.521 74.6512 421.468 76.7674C421.468 78.8836 421.52 80.9998 421.626 83.116C421.732 85.1793 421.759 86.4755 421.706 87.0045C421.653 87.7452 420.648 88.1949 418.69 88.3536C416.786 88.5652 414.854 88.4594 412.897 88.0362C410.939 87.6129 409.855 87.0839 409.643 86.449C409.114 84.4386 408.876 78.3016 408.929 68.0381C409.035 57.7216 409.273 51.7698 409.643 50.1826Z" fill="#F6B0A4"/>
<path d="M405.326 69.387C405.643 76.3705 403.13 81.6345 397.787 85.1791C393.29 88.0889 388.105 89.0677 382.233 88.1154C376.307 87.1631 371.863 84.5178 368.901 80.1796C366.679 76.8466 365.726 72.9316 366.044 68.4347C365.991 63.6732 367.261 59.626 369.853 56.293C372.498 52.96 375.699 50.8967 379.455 50.1031C383.265 49.2566 387.074 49.2302 390.883 50.0237C394.692 50.7644 397.999 52.8806 400.803 56.3723C403.607 59.8112 405.114 64.1494 405.326 69.387ZM386.598 77.4021C388.396 77.0318 389.931 76.053 391.2 74.4659C392.523 72.8258 392.893 70.6038 392.311 67.7998C392.258 67.6411 392.179 67.1914 392.073 66.4508C391.967 65.7101 391.862 65.0752 391.756 64.5462C391.65 64.0171 391.385 63.3823 390.962 62.6416C390.592 61.9009 390.116 61.319 389.534 60.8957C389.005 60.4196 388.211 60.0757 387.153 59.8641C386.148 59.5996 384.931 59.5202 383.503 59.626C382.286 59.7847 381.254 60.2873 380.408 61.1338C379.614 61.9803 379.085 62.9326 378.82 63.9907C378.609 64.9959 378.424 66.0011 378.265 67.0063C378.159 68.0115 378.186 68.7257 378.344 69.1489C378.715 71.9529 379.667 74.122 381.201 75.6562C382.735 77.1905 384.534 77.7724 386.598 77.4021Z" fill="#F06036"/>
<path d="M359.371 64.6258C359.265 64.8374 359.106 65.0225 358.895 65.1813C358.736 65.2871 358.524 65.3664 358.26 65.4193C358.048 65.4722 357.784 65.5251 357.466 65.578C357.202 65.578 356.858 65.578 356.435 65.578C356.064 65.578 355.694 65.578 355.324 65.578C355.006 65.5251 354.61 65.4987 354.133 65.4987C353.657 65.4458 353.208 65.4193 352.784 65.4193C352.784 65.4722 352.758 65.8161 352.705 66.451C352.652 67.0329 352.599 67.6413 352.546 68.2762C352.493 68.8582 352.467 69.5724 352.467 70.4189C352.52 71.2124 352.599 71.9531 352.705 72.6409C352.864 73.2757 353.102 73.8577 353.419 74.3867C353.789 74.9158 354.239 75.2597 354.768 75.4184C355.297 75.5771 355.985 75.4977 356.832 75.1803C357.731 74.8629 358.763 74.2545 359.926 73.3551C360.403 72.9847 361.143 73.5932 362.148 75.1803C363.154 76.7146 363.894 78.3017 364.37 79.9418C364.847 81.5818 364.794 82.7457 364.212 83.4335C362.73 84.4387 361.143 85.3645 359.45 86.211C357.757 87.0046 355.959 87.6659 354.054 88.195C352.202 88.7769 350.404 88.9621 348.658 88.7505C346.912 88.5917 345.457 88.0098 344.293 87.0046C343.023 85.8407 341.939 84.3064 341.039 82.4018C340.193 80.4444 339.611 78.4869 339.293 76.5294C339.029 74.5719 338.844 72.5351 338.738 70.4189C338.632 68.3027 338.685 66.4774 338.897 64.9432C338.315 64.8903 337.574 64.8638 336.675 64.8638C335.775 64.8638 335.088 64.8638 334.611 64.8638C334.188 64.8109 333.765 64.6787 333.342 64.467C332.971 64.2554 332.707 63.938 332.548 63.5147C332.495 63.1973 332.469 62.6418 332.469 61.8482C332.469 61.0018 332.495 60.2346 332.548 59.5469C332.654 58.8062 332.733 57.9068 332.786 56.8487C332.892 55.7906 332.945 54.8912 332.945 54.1506C332.945 53.6215 333.395 53.2776 334.294 53.1189C335.193 52.9073 336.516 52.7486 338.262 52.6428C338.738 52.6428 339.108 52.6428 339.373 52.6428C339.426 51.7434 339.346 48.5955 339.135 43.1992C338.923 37.8029 338.923 34.7344 339.135 33.9937C339.346 32.724 340.563 31.9569 342.785 31.6924C345.007 31.4278 347.203 31.5865 349.372 32.1685C351.594 32.6976 352.837 33.306 353.102 33.9937C353.525 35.0518 353.578 38.0939 353.26 43.1198C352.996 48.1458 352.996 51.2143 353.26 52.3253C353.26 52.3782 354.239 52.3782 356.197 52.3253C358.207 52.2724 359.265 52.4311 359.371 52.8015C359.688 54.0183 359.847 56.108 359.847 59.0707C359.847 62.0334 359.688 63.8851 359.371 64.6258Z" fill="#FABF3D"/>
<path d="M318.513 55.4998C322.639 57.616 326.105 60.6051 328.909 64.4672C331.713 68.2764 332.982 71.6623 332.718 74.625C332.612 84.095 325.126 88.4332 310.26 87.6396C308.143 87.5338 306.159 87.2428 304.308 86.7667C302.509 86.2376 300.922 85.5763 299.546 84.7827C298.224 83.9892 297.033 83.1691 295.975 82.3226C294.97 81.4762 294.071 80.5239 293.277 79.4658C292.483 78.4077 291.849 77.5347 291.372 76.847C290.949 76.1063 290.526 75.2863 290.103 74.3869C289.415 73.0643 289.918 70.7893 291.611 67.5621C293.092 64.5995 294.494 63.0123 295.816 62.8007C296.24 62.7478 296.61 62.88 296.927 63.1975C297.88 64.2556 298.859 65.3137 299.864 66.3718C300.922 67.377 302.112 68.4615 303.435 69.6254C304.757 70.7893 306.054 71.7416 307.323 72.4823C308.646 73.223 309.916 73.8049 311.132 74.2282C312.349 74.6514 313.46 74.7043 314.465 74.3869C315.471 74.0695 316.291 73.3552 316.926 72.2442C317.137 71.6094 316.846 70.9216 316.053 70.1809C315.259 69.4403 314.122 68.6731 312.64 67.8796C311.159 67.0331 309.492 66.1337 307.641 65.1814C305.789 64.2291 303.911 63.1446 302.006 61.9277C300.155 60.658 298.462 59.309 296.927 57.8805C295.393 56.4521 294.124 54.7856 293.118 52.881C292.166 50.9235 291.716 48.8602 291.769 46.6911C291.822 44.4162 292.457 42.3 293.674 40.3425C294.891 38.385 296.504 36.8243 298.515 35.6604C300.525 34.4436 302.773 33.4913 305.26 32.8035C307.799 32.1158 310.418 31.9306 313.116 32.248C315.815 32.5654 318.38 33.2268 320.814 34.232C323.301 35.2372 325.576 36.8772 327.639 39.1521C329.755 41.3741 331.395 44.0723 332.559 47.2466C332.929 48.2518 332.691 49.3099 331.845 50.4209C330.998 51.479 329.914 52.299 328.591 52.881C327.269 53.4629 325.919 53.8333 324.544 53.992C323.168 54.0978 322.137 53.701 321.449 52.8016C321.132 52.4313 320.629 51.8229 319.941 50.9764C319.306 50.077 318.777 49.3893 318.354 48.9131C317.984 48.437 317.481 47.855 316.846 47.1672C316.264 46.4266 315.709 45.8975 315.18 45.5801C314.651 45.2098 314.042 44.8659 313.354 44.5484C312.72 44.231 312.058 44.0987 311.371 44.1517C310.736 44.2046 310.048 44.3897 309.307 44.7072C305.974 46.2414 307.561 49.0189 314.069 53.0397C315.55 53.9391 317.031 54.7591 318.513 55.4998Z" fill="#3C9F73"/>
<path d="M267.545 69.387C267.862 76.3705 265.349 81.6345 260.006 85.1791C255.509 88.0889 250.324 89.0677 244.452 88.1154C238.526 87.1631 234.082 84.5178 231.12 80.1796C228.897 76.8466 227.945 72.9316 228.263 68.4347C228.21 63.6732 229.479 59.626 232.072 56.293C234.717 52.96 237.918 50.8967 241.674 50.1031C245.483 49.2566 249.292 49.2302 253.102 50.0237C256.911 50.7644 260.217 52.8806 263.021 56.3723C265.825 59.8112 267.333 64.1494 267.545 69.387ZM248.816 77.4021C250.615 77.0318 252.149 76.053 253.419 74.4659C254.742 72.8258 255.112 70.6038 254.53 67.7998C254.477 67.6411 254.398 67.1914 254.292 66.4508C254.186 65.7101 254.08 65.0752 253.974 64.5462C253.869 64.0171 253.604 63.3823 253.181 62.6416C252.811 61.9009 252.334 61.319 251.752 60.8957C251.223 60.4196 250.43 60.0757 249.372 59.8641C248.367 59.5996 247.15 59.5202 245.721 59.626C244.504 59.7847 243.473 60.2873 242.626 61.1338C241.833 61.9803 241.304 62.9326 241.039 63.9907C240.828 64.9959 240.642 66.0011 240.484 67.0063C240.378 68.0115 240.404 68.7257 240.563 69.1489C240.933 71.9529 241.886 74.122 243.42 75.6562C244.954 77.1905 246.753 77.7724 248.816 77.4021Z" fill="#F9AFA1"/>
<path d="M221.59 64.6258C221.484 64.8374 221.325 65.0225 221.114 65.1813C220.955 65.2871 220.743 65.3664 220.479 65.4193C220.267 65.4722 220.003 65.5251 219.685 65.578C219.421 65.578 219.077 65.578 218.653 65.578C218.283 65.578 217.913 65.578 217.542 65.578C217.225 65.5251 216.828 65.4987 216.352 65.4987C215.876 65.4458 215.426 65.4193 215.003 65.4193C215.003 65.4722 214.977 65.8161 214.924 66.451C214.871 67.0329 214.818 67.6413 214.765 68.2762C214.712 68.8582 214.686 69.5724 214.686 70.4189C214.738 71.2124 214.818 71.9531 214.924 72.6409C215.082 73.2757 215.32 73.8577 215.638 74.3867C216.008 74.9158 216.458 75.2597 216.987 75.4184C217.516 75.5771 218.204 75.4977 219.05 75.1803C219.95 74.8629 220.981 74.2545 222.145 73.3551C222.621 72.9847 223.362 73.5932 224.367 75.1803C225.372 76.7146 226.113 78.3017 226.589 79.9418C227.065 81.5818 227.012 82.7457 226.431 83.4335C224.949 84.4387 223.362 85.3645 221.669 86.211C219.976 87.0046 218.177 87.6659 216.273 88.195C214.421 88.7769 212.622 88.9621 210.876 88.7505C209.131 88.5917 207.676 88.0098 206.512 87.0046C205.242 85.8407 204.157 84.3064 203.258 82.4018C202.412 80.4444 201.83 78.4869 201.512 76.5294C201.248 74.5719 201.063 72.5351 200.957 70.4189C200.851 68.3027 200.904 66.4774 201.115 64.9432C200.533 64.8903 199.793 64.8638 198.893 64.8638C197.994 64.8638 197.306 64.8638 196.83 64.8638C196.407 64.8109 195.984 64.6787 195.56 64.467C195.19 64.2554 194.926 63.938 194.767 63.5147C194.714 63.1973 194.688 62.6418 194.688 61.8482C194.688 61.0018 194.714 60.2346 194.767 59.5469C194.873 58.8062 194.952 57.9068 195.005 56.8487C195.111 55.7906 195.164 54.8912 195.164 54.1506C195.164 53.6215 195.613 53.2776 196.513 53.1189C197.412 52.9073 198.735 52.7486 200.481 52.6428C200.957 52.6428 201.327 52.6428 201.592 52.6428C201.645 51.7434 201.565 48.5955 201.354 43.1992C201.142 37.8029 201.142 34.7344 201.354 33.9937C201.565 32.724 202.782 31.9569 205.004 31.6924C207.226 31.4278 209.422 31.5865 211.591 32.1685C213.813 32.6976 215.056 33.306 215.32 33.9937C215.744 35.0518 215.797 38.0939 215.479 43.1198C215.215 48.1458 215.215 51.2143 215.479 52.3253C215.479 52.3782 216.458 52.3782 218.415 52.3253C220.426 52.2724 221.484 52.4311 221.59 52.8015C221.907 54.0183 222.066 56.108 222.066 59.0707C222.066 62.0334 221.907 63.8851 221.59 64.6258Z" fill="#147FC7"/>
<path d="M173.35 76.7677C173.297 79.2014 172.847 81.2647 172.001 82.9576C171.154 84.6506 169.964 85.9203 168.43 86.7668C166.948 87.6133 165.387 88.2217 163.747 88.592C162.16 88.9623 160.335 89.1475 158.272 89.1475C157.108 88.9888 155.917 88.7507 154.701 88.4333C153.484 88.1688 152.082 87.772 150.495 87.2429C148.96 86.7139 147.611 86.079 146.447 85.3384C145.336 84.5977 144.384 83.7777 143.591 82.8783C142.797 81.926 142.427 80.815 142.48 79.5452C142.585 78.2226 143.167 76.8206 144.225 75.3393C145.019 74.2283 146.077 73.6728 147.4 73.6728C148.722 73.6199 150.045 73.9638 151.368 74.7044C152.743 75.3922 154.145 76.1064 155.574 76.8471C157.055 77.5349 158.298 78.0639 159.303 78.4342C160.309 78.8046 161.182 78.6723 161.922 78.0375C162.293 77.6142 162.24 77.191 161.763 76.7677C161.287 76.3445 160.494 75.9213 159.383 75.498C158.325 75.0219 157.081 74.5193 155.653 73.9902C154.224 73.4083 152.796 72.7734 151.368 72.0856C149.939 71.345 148.59 70.5514 147.32 69.7049C146.051 68.8055 145.072 67.7474 144.384 66.5306C143.696 65.2609 143.353 63.8854 143.353 62.404C143.353 60.9227 143.934 59.1768 145.098 57.1664C146.315 55.156 148.114 53.0134 150.495 50.7385C153.14 48.781 156.156 48.0138 159.541 48.4371C162.98 48.8603 165.943 50.183 168.43 52.405C170.969 54.627 171.683 56.7167 170.572 58.6742C169.831 59.9968 168.932 60.8698 167.874 61.293C166.869 61.6633 165.864 61.6898 164.858 61.3724C163.853 61.002 162.822 60.5788 161.763 60.1026C160.758 59.6265 159.859 59.1768 159.065 58.7536C158.272 58.2774 157.584 58.1187 157.002 58.2774C156.473 58.4361 156.156 58.9916 156.05 59.9439C155.944 60.8433 156.473 61.7427 157.637 62.6421C158.801 63.4886 160.229 64.3351 161.922 65.1815C163.668 65.9751 165.414 66.8745 167.16 67.8797C168.906 68.8849 170.361 70.1546 171.524 71.6889C172.741 73.2231 173.35 74.9161 173.35 76.7677Z" fill="#FABF3D"/>
<path d="M112.223 93.1946C113.334 92.8771 114.472 92.7713 115.636 92.8771C116.8 93.0358 117.911 93.3533 118.969 93.8294C120.08 94.3585 121.085 94.6759 121.984 94.7817C122.884 94.8875 123.651 94.7553 124.286 94.3849C124.974 94.0675 125.476 93.1152 125.794 91.528C126.164 89.9409 126.296 87.7189 126.19 84.862C125.132 85.9201 123.545 86.7137 121.429 87.2427C119.313 87.8247 117.144 88.0363 114.922 87.8776C112.7 87.7718 110.663 87.0576 108.811 85.7349C106.959 84.3594 105.769 82.4284 105.24 79.9418C104.87 77.085 104.711 73.8842 104.764 70.3396C104.817 66.7949 104.923 62.8271 105.081 58.4359C105.293 53.9919 105.372 51.4789 105.319 50.897C105.319 50.4208 106.298 50.1563 108.256 50.1034C110.213 49.9976 112.171 50.1563 114.128 50.5795C116.086 50.9499 117.038 51.4789 116.985 52.1667C116.244 69.7841 117.382 78.487 120.397 78.2753C121.402 78.1695 122.249 77.5876 122.937 76.5295C123.677 75.4714 124.233 74.1487 124.603 72.5616C125.026 70.9744 125.344 68.9905 125.556 66.6098C125.82 64.1761 125.979 61.8748 126.032 59.7057C126.137 57.4836 126.19 54.9442 126.19 52.0873C126.19 50.9763 127.222 50.2886 129.285 50.024C131.402 49.7595 133.491 49.8653 135.555 50.3415C137.671 50.8176 138.729 51.3996 138.729 52.0873C138.729 53.0925 138.729 55.7907 138.729 60.1818C138.782 64.5729 138.782 68.3821 138.729 71.6093C138.729 74.7836 138.702 77.1379 138.65 78.6721C138.544 80.418 138.438 81.9258 138.332 83.1955C138.226 84.4652 138.015 86.0524 137.697 87.957C137.433 89.8615 137.115 91.5016 136.745 92.8771C136.375 94.3056 135.819 95.8134 135.078 97.4005C134.391 99.0406 133.597 100.416 132.698 101.527C131.798 102.638 130.661 103.643 129.285 104.543C127.963 105.442 126.455 106.077 124.762 106.447C120.053 107.452 116.059 106.474 112.779 103.511C110.398 101.395 109.314 99.1464 109.525 96.7656C109.684 95.0727 110.583 93.8823 112.223 93.1946Z" fill="#36A173"/>
<path d="M101.478 69.387C101.796 76.3705 99.2827 81.6345 93.9393 85.1791C89.4423 88.0889 84.2576 89.0677 78.3852 88.1154C72.4598 87.1631 68.0158 84.5178 65.0531 80.1796C62.8311 76.8466 61.8788 72.9316 62.1962 68.4347C62.1433 63.6732 63.4131 59.626 66.0054 56.293C68.6507 52.96 71.8514 50.8967 75.6077 50.1031C79.4168 49.2566 83.226 49.2302 87.0352 50.0237C90.8443 50.7644 94.1509 52.8806 96.9549 56.3723C99.7588 59.8112 101.267 64.1494 101.478 69.387ZM82.7498 77.4021C84.5486 77.0318 86.0829 76.053 87.3526 74.4659C88.6752 72.8258 89.0456 70.6038 88.4636 67.7998C88.4107 67.6411 88.3313 67.1914 88.2255 66.4508C88.1197 65.7101 88.0139 65.0752 87.9081 64.5462C87.8023 64.0171 87.5378 63.3823 87.1145 62.6416C86.7442 61.9009 86.268 61.319 85.6861 60.8957C85.157 60.4196 84.3635 60.0757 83.3054 59.8641C82.3002 59.5995 81.0833 59.5202 79.6549 59.626C78.4381 59.7847 77.4064 60.2873 76.56 61.1338C75.7664 61.9803 75.2373 62.9326 74.9728 63.9907C74.7612 64.9959 74.576 66.0011 74.4173 67.0063C74.3115 68.0115 74.3379 68.7257 74.4967 69.1489C74.867 71.9529 75.8193 74.122 77.3535 75.6562C78.8878 77.1905 80.6866 77.7724 82.7498 77.4021Z" fill="#9EC5E1"/>
<path d="M66.6718 45.1831C66.4073 46.1883 65.6402 46.876 64.3704 47.2464C63.1536 47.6167 60.9052 47.8283 57.625 47.8812H53.181L53.3397 51.0555C53.4984 53.2246 53.6572 57.9861 53.8159 65.3399C54.0275 77.8784 53.6836 84.6502 52.7842 85.6554C52.4139 86.0258 51.7261 86.3168 50.7209 86.5284C49.7157 86.6871 47.8112 86.8194 45.0072 86.9252C42.9968 87.031 41.4361 87.0045 40.3251 86.8458C39.2141 86.6342 38.3676 86.3168 37.7856 85.8935C37.2037 85.4174 36.8069 84.7031 36.5953 83.7509C36.4366 83.3276 36.463 77.5345 36.6746 66.3716C36.8863 55.1557 36.9392 49.2303 36.8334 48.5955L36.6746 47.4051H30.6435C27.8924 47.4051 26.173 47.3786 25.4852 47.3257C24.7975 47.2199 24.3213 47.0083 24.0568 46.6909C23.5277 46.2147 23.1574 45.1831 22.9458 43.5959C22.7871 42.0088 22.8135 40.21 23.0251 38.1996C23.2368 35.766 23.4484 34.2317 23.66 33.5969C23.8716 32.962 24.3213 32.4594 25.0091 32.0891C26.9137 31.1897 35.7488 30.7136 51.5145 30.6606H62.5452L64.1324 31.5336C65.3492 32.1684 66.1163 32.962 66.4337 33.9143C66.7512 34.8666 66.9099 36.7712 66.9099 39.6281C66.857 42.8553 66.7776 44.7069 66.6718 45.1831Z" fill="#F25C43"/>
</svg>
