<svg width="240" height="240" viewBox="0 0 240 240" fill="none" xmlns="http://www.w3.org/2000/svg">
<g clip-path="url(#clip0_6_2879)">
<rect width="240" height="240" rx="56" fill="#FFF4E2"/>
<path d="M-132.467 183.678C-153.368 220.194 -144.968 271.782 -141.46 313.018C-137.781 356.259 -140.936 376.469 -98.9147 403.486C-86.8594 411.237 -71.8727 406.574 -60.2678 402.177C-10.0168 383.14 24.5723 353.556 47.2745 305.289C54.7156 289.468 60.314 273.095 64.2189 255.736C74.1579 211.552 68.5465 164.98 42.6106 124.902C26.4559 99.9392 1.28308 100.611 -21.8508 111.491C-58.2626 128.614 -112.086 148.071 -132.467 183.678Z" fill="#FFE8C1"/>
<path opacity="0.7" d="M181.867 110.829C163.911 148.879 176.354 199.644 183.103 240.475C190.18 283.291 188.629 303.687 232.65 327.306C245.279 334.082 259.851 328.251 271.073 322.953C319.666 300.012 351.815 267.793 370.639 217.885C376.81 201.527 381.099 184.763 383.623 167.15C390.047 122.32 380.78 76.3354 351.764 38.4285C333.691 14.8172 308.649 17.4724 286.446 30.1423C251.498 50.0841 199.377 73.7251 181.867 110.829Z" fill="#9FE19E"/>
<path opacity="0.7" d="M47.969 53.4037C89.3472 45.7811 123.311 6.05234 152.53 -23.2554C183.17 -53.9882 200.638 -64.6305 194.13 -114.162C192.263 -128.372 179.024 -136.803 168.173 -142.825C121.187 -168.898 76.2616 -176.203 24.7478 -162.367C7.8629 -157.831 -8.25385 -151.532 -24.0296 -143.304C-64.1834 -122.359 -96.1185 -87.9993 -109.97 -42.3155C-118.597 -13.8603 -101.828 4.92568 -78.5817 15.5633C-41.9934 32.3064 7.62028 60.8368 47.969 53.4037Z" fill="#9EC5E1"/>
<path d="M179.352 81.2511C178.631 84.1063 176.542 86.0599 173.085 87.1119C169.771 88.1638 163.648 88.7649 154.716 88.9152H142.614L143.046 97.9318C143.478 104.093 143.91 117.618 144.343 138.507C144.919 174.122 143.983 193.358 141.533 196.213C140.525 197.265 138.652 198.091 135.915 198.693C133.177 199.143 127.991 199.519 120.355 199.82C114.88 200.12 110.63 200.045 107.605 199.594C104.579 198.993 102.274 198.091 100.689 196.889C99.1047 195.537 98.0242 193.508 97.4479 190.803C97.0157 189.601 97.0877 173.145 97.664 141.437C98.2403 109.578 98.3844 92.7473 98.0962 90.9439L97.664 87.5627H81.24C73.7484 87.5627 69.0661 87.4876 67.1932 87.3373C65.3203 87.0367 64.0237 86.4356 63.3033 85.534C61.8626 84.1815 60.8541 81.2511 60.2778 76.7428C59.8456 72.2344 59.9177 67.125 60.494 61.4145C61.0702 54.5017 61.6465 50.1437 62.2228 48.3404C62.7991 46.5371 64.0237 45.1094 65.8966 44.0575C71.0831 41.5028 95.1428 40.1503 138.076 40H168.114L172.436 42.4796C175.75 44.2829 177.839 46.5371 178.703 49.242C179.568 51.947 180 57.357 180 65.472C179.856 74.6389 179.64 79.8986 179.352 81.2511Z" fill="#F25C43"/>
</g>
<defs>
<clipPath id="clip0_6_2879">
<rect width="240" height="240" rx="56" fill="white"/>
</clipPath>
</defs>
</svg>
