<svg width="1843" height="426" viewBox="0 0 1843 426" fill="none" xmlns="http://www.w3.org/2000/svg">
<g clip-path="url(#clip0_6_2855)">
<rect width="1843" height="426" fill="#FFF4E2"/>
<path d="M1765.63 255.384C1765.45 263.48 1763.96 270.344 1761.14 275.976C1758.32 281.608 1754.36 285.832 1749.26 288.648C1744.33 291.464 1739.14 293.488 1733.68 294.72C1728.4 295.952 1722.33 296.568 1715.47 296.568C1711.6 296.04 1707.64 295.248 1703.59 294.192C1699.54 293.312 1694.88 291.992 1689.6 290.232C1684.49 288.472 1680 286.36 1676.13 283.896C1672.44 281.432 1669.27 278.704 1666.63 275.712C1663.99 272.544 1662.76 268.848 1662.93 264.624C1663.28 260.224 1665.22 255.56 1668.74 250.632C1671.38 246.936 1674.9 245.088 1679.3 245.088C1683.7 244.912 1688.1 246.056 1692.5 248.52C1697.08 250.808 1701.74 253.184 1706.49 255.648C1711.42 257.936 1715.56 259.696 1718.9 260.928C1722.24 262.16 1725.15 261.72 1727.61 259.608C1728.84 258.2 1728.67 256.792 1727.08 255.384C1725.5 253.976 1722.86 252.568 1719.16 251.16C1715.64 249.576 1711.51 247.904 1706.76 246.144C1702 244.208 1697.25 242.096 1692.5 239.808C1687.75 237.344 1683.26 234.704 1679.04 231.888C1674.81 228.896 1671.56 225.376 1669.27 221.328C1666.98 217.104 1665.84 212.528 1665.84 207.6C1665.84 202.672 1667.77 196.864 1671.64 190.176C1675.69 183.488 1681.68 176.36 1689.6 168.792C1698.4 162.28 1708.43 159.728 1719.69 161.136C1731.13 162.544 1740.99 166.944 1749.26 174.336C1757.71 181.728 1760.08 188.68 1756.39 195.192C1753.92 199.592 1750.93 202.496 1747.41 203.904C1744.07 205.136 1740.72 205.224 1737.38 204.168C1734.04 202.936 1730.6 201.528 1727.08 199.944C1723.74 198.36 1720.75 196.864 1718.11 195.456C1715.47 193.872 1713.18 193.344 1711.24 193.872C1709.48 194.4 1708.43 196.248 1708.08 199.416C1707.72 202.408 1709.48 205.4 1713.36 208.392C1717.23 211.208 1721.98 214.024 1727.61 216.84C1733.42 219.48 1739.23 222.472 1745.04 225.816C1750.84 229.16 1755.68 233.384 1759.56 238.488C1763.6 243.592 1765.63 249.224 1765.63 255.384Z" fill="#DE9AE9"/>
<path d="M1650.76 209.976C1650.41 211.912 1649.27 213.936 1647.33 216.048C1645.39 217.984 1643.19 219.832 1640.73 221.592C1638.44 223.352 1635.36 225.2 1631.49 227.136C1627.79 229.072 1624.45 230.656 1621.46 231.888C1618.64 233.12 1614.95 234.616 1610.37 236.376C1605.97 237.96 1602.54 239.192 1600.07 240.072C1597.79 240.776 1594.71 241.744 1590.83 242.976C1586.96 244.208 1584.76 244.912 1584.23 245.088C1586.52 252.48 1590.75 256.88 1596.91 258.288C1603.07 259.52 1609.58 258.288 1616.44 254.592C1623.48 250.72 1629.73 245.264 1635.19 238.224C1637.83 235.056 1641.79 236.112 1647.07 241.392C1653.05 247.552 1655.95 253.8 1655.78 260.136C1655.78 262.424 1655.16 264.36 1653.93 265.944C1645.48 276.68 1634.57 284.424 1621.19 289.176C1607.82 293.752 1594.53 294.28 1581.33 290.76C1568.31 287.416 1558.54 279.936 1552.03 268.32C1547.1 259.696 1544.19 250.192 1543.31 239.808C1542.43 229.248 1543.58 219.216 1546.75 209.712C1549.91 200.208 1554.4 191.672 1560.21 184.104C1566.19 176.36 1573.76 170.64 1582.91 166.944C1592.24 163.072 1602.19 162.016 1612.75 163.776C1624.01 165.712 1633.78 171.256 1642.05 180.408C1650.5 189.384 1653.4 199.24 1650.76 209.976ZM1609.84 194.136C1608.08 191.848 1605.53 191.232 1602.19 192.288C1598.84 193.168 1595.59 194.752 1592.42 197.04C1589.25 199.152 1586.52 201.88 1584.23 205.224C1582.12 208.392 1581.33 211.208 1581.86 213.672C1582.91 216.136 1587.05 216.4 1594.27 214.464C1603.59 212.176 1609.14 208.216 1610.9 202.584C1611.78 199.944 1611.43 197.128 1609.84 194.136Z" fill="#9AC4E9"/>
<path d="M1527.47 168.792C1529.58 173.016 1530.73 184.28 1530.9 202.584C1531.25 220.712 1530.99 238.4 1530.11 255.648C1529.23 272.72 1528.35 283.896 1527.47 289.176C1527.12 291.816 1520.34 293.488 1507.14 294.192C1494.12 294.896 1486.99 294.016 1485.76 291.552C1482.94 285.216 1481.62 264.712 1481.8 230.04C1481.97 195.368 1483.29 174.952 1485.76 168.792C1486.64 167.032 1489.1 165.712 1493.15 164.832C1497.37 163.776 1501.86 163.336 1506.61 163.512C1511.37 163.512 1515.85 164.04 1520.08 165.096C1524.3 165.976 1526.77 167.208 1527.47 168.792ZM1527.47 147.936C1526.59 150.928 1522.98 152.952 1516.65 154.008C1510.49 154.888 1504.41 154.888 1498.43 154.008C1492.45 153.128 1489.01 151.896 1488.13 150.312C1485.14 147.32 1485.14 134.208 1488.13 110.976C1490.77 108.336 1497.73 106.928 1508.99 106.752C1520.25 106.576 1526.33 108.248 1527.21 111.768C1530.02 128.136 1530.11 140.192 1527.47 147.936Z" fill="#147FC7"/>
<path d="M1362.76 166.944C1363.47 164.128 1369.01 162.72 1379.4 162.72C1389.96 162.544 1397.61 163.336 1402.36 165.096C1402.19 172.664 1401.92 178.208 1401.57 181.728C1402.63 181.024 1404.21 179.968 1406.32 178.56C1408.44 176.976 1410.46 175.48 1412.4 174.072C1414.33 172.664 1416.53 171.168 1419 169.584C1421.46 167.824 1423.84 166.416 1426.12 165.36C1428.41 164.128 1430.7 163.16 1432.99 162.456C1435.28 161.752 1437.48 161.488 1439.59 161.664C1441.88 161.84 1443.9 162.456 1445.66 163.512C1452.17 167.912 1459.04 174.776 1466.25 184.104C1473.47 193.256 1475.93 199.856 1473.64 203.904C1470.65 209.536 1467.66 213.232 1464.67 214.992C1461.85 216.752 1459.04 217.016 1456.22 215.784C1453.4 214.376 1450.5 212.616 1447.51 210.504C1444.69 208.392 1441.26 206.544 1437.21 204.96C1433.16 203.376 1429.12 203.112 1425.07 204.168C1419.08 205.4 1414.24 208.744 1410.55 214.2C1407.03 219.48 1404.74 225.904 1403.68 233.472C1402.8 241.04 1402.28 248.344 1402.1 255.384C1402.1 262.424 1402.28 269.464 1402.63 276.504C1402.98 283.368 1403.07 287.68 1402.89 289.44C1402.72 291.904 1399.37 293.4 1392.86 293.928C1386.52 294.632 1380.1 294.28 1373.59 292.872C1367.08 291.464 1363.47 289.704 1362.76 287.592C1361 280.904 1360.21 260.488 1360.39 226.344C1360.74 192.024 1361.53 172.224 1362.76 166.944Z" fill="#F6B0A4"/>
<path d="M1348.4 230.832C1349.46 254.064 1341.1 271.576 1323.32 283.368C1308.36 293.048 1291.11 296.304 1271.58 293.136C1251.86 289.968 1237.08 281.168 1227.22 266.736C1219.83 255.648 1216.66 242.624 1217.72 227.664C1217.54 211.824 1221.77 198.36 1230.39 187.272C1239.19 176.184 1249.84 169.32 1262.34 166.68C1275.01 163.864 1287.68 163.776 1300.35 166.416C1313.02 168.88 1324.02 175.92 1333.35 187.536C1342.68 198.976 1347.7 213.408 1348.4 230.832ZM1286.1 257.496C1292.08 256.264 1297.18 253.008 1301.41 247.728C1305.81 242.272 1307.04 234.88 1305.1 225.552C1304.93 225.024 1304.66 223.528 1304.31 221.064C1303.96 218.6 1303.61 216.488 1303.26 214.728C1302.9 212.968 1302.02 210.856 1300.62 208.392C1299.38 205.928 1297.8 203.992 1295.86 202.584C1294.1 201 1291.46 199.856 1287.94 199.152C1284.6 198.272 1280.55 198.008 1275.8 198.36C1271.75 198.888 1268.32 200.56 1265.5 203.376C1262.86 206.192 1261.1 209.36 1260.22 212.88C1259.52 216.224 1258.9 219.568 1258.38 222.912C1258.02 226.256 1258.11 228.632 1258.64 230.04C1259.87 239.368 1263.04 246.584 1268.14 251.688C1273.25 256.792 1279.23 258.728 1286.1 257.496Z" fill="#F06036"/>
<path d="M1195.52 214.992C1195.17 215.696 1194.64 216.312 1193.94 216.84C1193.41 217.192 1192.71 217.456 1191.83 217.632C1191.12 217.808 1190.24 217.984 1189.19 218.16C1188.31 218.16 1187.16 218.16 1185.76 218.16C1184.52 218.16 1183.29 218.16 1182.06 218.16C1181 217.984 1179.68 217.896 1178.1 217.896C1176.52 217.72 1175.02 217.632 1173.61 217.632C1173.61 217.808 1173.52 218.952 1173.35 221.064C1173.17 223 1173 225.024 1172.82 227.136C1172.64 229.072 1172.56 231.448 1172.56 234.264C1172.73 236.904 1173 239.368 1173.35 241.656C1173.88 243.768 1174.67 245.704 1175.72 247.464C1176.96 249.224 1178.45 250.368 1180.21 250.896C1181.97 251.424 1184.26 251.16 1187.08 250.104C1190.07 249.048 1193.5 247.024 1197.37 244.032C1198.96 242.8 1201.42 244.824 1204.76 250.104C1208.11 255.208 1210.57 260.488 1212.16 265.944C1213.74 271.4 1213.56 275.272 1211.63 277.56C1206.7 280.904 1201.42 283.984 1195.79 286.8C1190.16 289.44 1184.17 291.64 1177.84 293.4C1171.68 295.336 1165.69 295.952 1159.88 295.248C1154.08 294.72 1149.24 292.784 1145.36 289.44C1141.14 285.568 1137.53 280.464 1134.54 274.128C1131.72 267.616 1129.79 261.104 1128.73 254.592C1127.85 248.08 1127.24 241.304 1126.88 234.264C1126.53 227.224 1126.71 221.152 1127.41 216.048C1125.48 215.872 1123.01 215.784 1120.02 215.784C1117.03 215.784 1114.74 215.784 1113.16 215.784C1111.75 215.608 1110.34 215.168 1108.93 214.464C1107.7 213.76 1106.82 212.704 1106.29 211.296C1106.12 210.24 1106.03 208.392 1106.03 205.752C1106.03 202.936 1106.12 200.384 1106.29 198.096C1106.64 195.632 1106.91 192.64 1107.08 189.12C1107.44 185.6 1107.61 182.608 1107.61 180.144C1107.61 178.384 1109.11 177.24 1112.1 176.712C1115.09 176.008 1119.49 175.48 1125.3 175.128C1126.88 175.128 1128.12 175.128 1129 175.128C1129.17 172.136 1128.91 161.664 1128.2 143.712C1127.5 125.76 1127.5 115.552 1128.2 113.088C1128.91 108.864 1132.96 106.312 1140.35 105.432C1147.74 104.552 1155.04 105.08 1162.26 107.016C1169.65 108.776 1173.79 110.8 1174.67 113.088C1176.08 116.608 1176.25 126.728 1175.2 143.448C1174.32 160.168 1174.32 170.376 1175.2 174.072C1175.2 174.248 1178.45 174.248 1184.96 174.072C1191.65 173.896 1195.17 174.424 1195.52 175.656C1196.58 179.704 1197.11 186.656 1197.11 196.512C1197.11 206.368 1196.58 212.528 1195.52 214.992Z" fill="#FABF3D"/>
<path d="M1059.6 184.632C1073.33 191.672 1084.86 201.616 1094.19 214.464C1103.52 227.136 1107.74 238.4 1106.86 248.256C1106.51 279.76 1081.6 294.192 1032.15 291.552C1025.11 291.2 1018.51 290.232 1012.35 288.648C1006.36 286.888 1001.08 284.688 996.509 282.048C992.109 279.408 988.149 276.68 984.629 273.864C981.285 271.048 978.293 267.88 975.653 264.36C973.013 260.84 970.901 257.936 969.317 255.648C967.909 253.184 966.501 250.456 965.093 247.464C962.805 243.064 964.477 235.496 970.109 224.76C975.037 214.904 979.701 209.624 984.101 208.92C985.509 208.744 986.741 209.184 987.797 210.24C990.965 213.76 994.221 217.28 997.565 220.8C1001.08 224.144 1005.04 227.752 1009.44 231.624C1013.84 235.496 1018.16 238.664 1022.38 241.128C1026.78 243.592 1031 245.528 1035.05 246.936C1039.1 248.344 1042.8 248.52 1046.14 247.464C1049.48 246.408 1052.21 244.032 1054.32 240.336C1055.03 238.224 1054.06 235.936 1051.42 233.472C1048.78 231.008 1045 228.456 1040.07 225.816C1035.14 223 1029.6 220.008 1023.44 216.84C1017.28 213.672 1011.03 210.064 1004.69 206.016C998.533 201.792 992.901 197.304 987.797 192.552C982.693 187.8 978.469 182.256 975.125 175.92C971.957 169.408 970.461 162.544 970.637 155.328C970.813 147.76 972.925 140.72 976.973 134.208C981.021 127.696 986.389 122.504 993.077 118.632C999.765 114.584 1007.24 111.416 1015.52 109.128C1023.96 106.84 1032.68 106.224 1041.65 107.28C1050.63 108.336 1059.16 110.536 1067.26 113.88C1075.53 117.224 1083.1 122.68 1089.96 130.248C1097 137.64 1102.46 146.616 1106.33 157.176C1107.56 160.52 1106.77 164.04 1103.96 167.736C1101.14 171.256 1097.53 173.984 1093.13 175.92C1088.73 177.856 1084.24 179.088 1079.67 179.616C1075.09 179.968 1071.66 178.648 1069.37 175.656C1068.32 174.424 1066.64 172.4 1064.36 169.584C1062.24 166.592 1060.48 164.304 1059.08 162.72C1057.84 161.136 1056.17 159.2 1054.06 156.912C1052.12 154.448 1050.28 152.688 1048.52 151.632C1046.76 150.4 1044.73 149.256 1042.44 148.2C1040.33 147.144 1038.13 146.704 1035.84 146.88C1033.73 147.056 1031.44 147.672 1028.98 148.728C1017.89 153.832 1023.17 163.072 1044.82 176.448C1049.75 179.44 1054.68 182.168 1059.6 184.632Z" fill="#3C9F73"/>
<path d="M890.042 230.832C891.098 254.064 882.738 271.576 864.962 283.368C850.002 293.048 832.754 296.304 813.218 293.136C793.506 289.968 778.722 281.168 768.866 266.736C761.474 255.648 758.306 242.624 759.362 227.664C759.186 211.824 763.41 198.36 772.034 187.272C780.834 176.184 791.482 169.32 803.978 166.68C816.65 163.864 829.322 163.776 841.994 166.416C854.666 168.88 865.666 175.92 874.994 187.536C884.322 198.976 889.338 213.408 890.042 230.832ZM827.738 257.496C833.722 256.264 838.826 253.008 843.05 247.728C847.45 242.272 848.682 234.88 846.746 225.552C846.57 225.024 846.306 223.528 845.954 221.064C845.602 218.6 845.25 216.488 844.898 214.728C844.546 212.968 843.666 210.856 842.258 208.392C841.026 205.928 839.442 203.992 837.506 202.584C835.746 201 833.106 199.856 829.586 199.152C826.242 198.272 822.194 198.008 817.442 198.36C813.394 198.888 809.962 200.56 807.146 203.376C804.506 206.192 802.746 209.36 801.866 212.88C801.162 216.224 800.546 219.568 800.018 222.912C799.666 226.256 799.754 228.632 800.282 230.04C801.514 239.368 804.682 246.584 809.786 251.688C814.89 256.792 820.874 258.728 827.738 257.496Z" fill="#F9AFA1"/>
<path d="M737.165 214.992C736.813 215.696 736.285 216.312 735.581 216.84C735.053 217.192 734.349 217.456 733.469 217.632C732.765 217.808 731.885 217.984 730.829 218.16C729.949 218.16 728.805 218.16 727.397 218.16C726.165 218.16 724.933 218.16 723.701 218.16C722.645 217.984 721.325 217.896 719.741 217.896C718.157 217.72 716.661 217.632 715.253 217.632C715.253 217.808 715.165 218.952 714.989 221.064C714.813 223 714.637 225.024 714.461 227.136C714.285 229.072 714.197 231.448 714.197 234.264C714.373 236.904 714.637 239.368 714.989 241.656C715.517 243.768 716.309 245.704 717.365 247.464C718.597 249.224 720.093 250.368 721.853 250.896C723.613 251.424 725.901 251.16 728.717 250.104C731.709 249.048 735.141 247.024 739.013 244.032C740.597 242.8 743.061 244.824 746.405 250.104C749.749 255.208 752.213 260.488 753.797 265.944C755.381 271.4 755.205 275.272 753.269 277.56C748.341 280.904 743.061 283.984 737.429 286.8C731.797 289.44 725.813 291.64 719.477 293.4C713.317 295.336 707.333 295.952 701.525 295.248C695.717 294.72 690.877 292.784 687.005 289.44C682.781 285.568 679.173 280.464 676.181 274.128C673.365 267.616 671.429 261.104 670.373 254.592C669.493 248.08 668.877 241.304 668.525 234.264C668.173 227.224 668.349 221.152 669.053 216.048C667.117 215.872 664.653 215.784 661.661 215.784C658.669 215.784 656.381 215.784 654.797 215.784C653.389 215.608 651.981 215.168 650.573 214.464C649.341 213.76 648.461 212.704 647.933 211.296C647.757 210.24 647.669 208.392 647.669 205.752C647.669 202.936 647.757 200.384 647.933 198.096C648.285 195.632 648.549 192.64 648.725 189.12C649.077 185.6 649.253 182.608 649.253 180.144C649.253 178.384 650.749 177.24 653.741 176.712C656.733 176.008 661.133 175.48 666.941 175.128C668.525 175.128 669.757 175.128 670.637 175.128C670.813 172.136 670.549 161.664 669.845 143.712C669.141 125.76 669.141 115.552 669.845 113.088C670.549 108.864 674.597 106.312 681.989 105.432C689.381 104.552 696.685 105.08 703.901 107.016C711.293 108.776 715.429 110.8 716.309 113.088C717.717 116.608 717.893 126.728 716.837 143.448C715.957 160.168 715.957 170.376 716.837 174.072C716.837 174.248 720.093 174.248 726.605 174.072C733.293 173.896 736.813 174.424 737.165 175.656C738.221 179.704 738.749 186.656 738.749 196.512C738.749 206.368 738.221 212.528 737.165 214.992Z" fill="#147FC7"/>
<path d="M576.683 255.384C576.507 263.48 575.011 270.344 572.195 275.976C569.379 281.608 565.419 285.832 560.315 288.648C555.387 291.464 550.195 293.488 544.739 294.72C539.459 295.952 533.387 296.568 526.523 296.568C522.651 296.04 518.691 295.248 514.643 294.192C510.595 293.312 505.931 291.992 500.651 290.232C495.547 288.472 491.059 286.36 487.187 283.896C483.491 281.432 480.323 278.704 477.683 275.712C475.043 272.544 473.811 268.848 473.987 264.624C474.339 260.224 476.275 255.56 479.795 250.632C482.435 246.936 485.955 245.088 490.355 245.088C494.755 244.912 499.155 246.056 503.555 248.52C508.131 250.808 512.795 253.184 517.547 255.648C522.475 257.936 526.611 259.696 529.955 260.928C533.299 262.16 536.203 261.72 538.667 259.608C539.899 258.2 539.723 256.792 538.139 255.384C536.555 253.976 533.915 252.568 530.219 251.16C526.699 249.576 522.563 247.904 517.811 246.144C513.059 244.208 508.307 242.096 503.555 239.808C498.803 237.344 494.315 234.704 490.091 231.888C485.867 228.896 482.611 225.376 480.323 221.328C478.035 217.104 476.891 212.528 476.891 207.6C476.891 202.672 478.827 196.864 482.699 190.176C486.747 183.488 492.731 176.36 500.651 168.792C509.451 162.28 519.483 159.728 530.747 161.136C542.187 162.544 552.043 166.944 560.315 174.336C568.763 181.728 571.139 188.68 567.443 195.192C564.979 199.592 561.987 202.496 558.467 203.904C555.123 205.136 551.779 205.224 548.435 204.168C545.091 202.936 541.659 201.528 538.139 199.944C534.795 198.36 531.803 196.864 529.163 195.456C526.523 193.872 524.235 193.344 522.299 193.872C520.539 194.4 519.483 196.248 519.131 199.416C518.779 202.408 520.539 205.4 524.411 208.392C528.283 211.208 533.035 214.024 538.667 216.84C544.475 219.48 550.283 222.472 556.091 225.816C561.899 229.16 566.739 233.384 570.611 238.488C574.659 243.592 576.683 249.224 576.683 255.384Z" fill="#FABF3D"/>
<path d="M373.336 310.032C377.032 308.976 380.816 308.624 384.688 308.976C388.56 309.504 392.256 310.56 395.776 312.144C399.472 313.904 402.816 314.96 405.808 315.312C408.8 315.664 411.352 315.224 413.464 313.992C415.752 312.936 417.424 309.768 418.48 304.488C419.712 299.208 420.152 291.816 419.8 282.312C416.28 285.832 411 288.472 403.96 290.232C396.92 292.168 389.704 292.872 382.312 292.344C374.92 291.992 368.144 289.616 361.984 285.216C355.824 280.64 351.864 274.216 350.104 265.944C348.872 256.44 348.344 245.792 348.52 234C348.696 222.208 349.048 209.008 349.576 194.4C350.28 179.616 350.544 171.256 350.368 169.32C350.368 167.736 353.624 166.856 360.136 166.68C366.648 166.328 373.16 166.856 379.672 168.264C386.184 169.496 389.352 171.256 389.176 173.544C386.712 232.152 390.496 261.104 400.528 260.4C403.872 260.048 406.688 258.112 408.976 254.592C411.44 251.072 413.288 246.672 414.52 241.392C415.928 236.112 416.984 229.512 417.688 221.592C418.568 213.496 419.096 205.84 419.272 198.624C419.624 191.232 419.8 182.784 419.8 173.28C419.8 169.584 423.232 167.296 430.096 166.416C437.136 165.536 444.088 165.888 450.952 167.472C457.992 169.056 461.512 170.992 461.512 173.28C461.512 176.624 461.512 185.6 461.512 200.208C461.688 214.816 461.688 227.488 461.512 238.224C461.512 248.784 461.424 256.616 461.248 261.72C460.896 267.528 460.544 272.544 460.192 276.768C459.84 280.992 459.136 286.272 458.08 292.608C457.2 298.944 456.144 304.4 454.912 308.976C453.68 313.728 451.832 318.744 449.368 324.024C447.08 329.48 444.44 334.056 441.448 337.752C438.456 341.448 434.672 344.792 430.096 347.784C425.696 350.776 420.68 352.888 415.048 354.12C399.384 357.464 386.096 354.208 375.184 344.352C367.264 337.312 363.656 329.832 364.36 321.912C364.888 316.28 367.88 312.32 373.336 310.032Z" fill="#36A173"/>
<path d="M337.588 230.832C338.644 254.064 330.284 271.576 312.508 283.368C297.548 293.048 280.3 296.304 260.764 293.136C241.052 289.968 226.268 281.168 216.412 266.736C209.02 255.648 205.852 242.624 206.908 227.664C206.732 211.824 210.956 198.36 219.58 187.272C228.38 176.184 239.028 169.32 251.524 166.68C264.196 163.864 276.868 163.776 289.54 166.416C302.212 168.88 313.212 175.92 322.54 187.536C331.868 198.976 336.884 213.408 337.588 230.832ZM275.284 257.496C281.268 256.264 286.372 253.008 290.596 247.728C294.996 242.272 296.228 234.88 294.292 225.552C294.116 225.024 293.852 223.528 293.5 221.064C293.148 218.6 292.796 216.488 292.444 214.728C292.092 212.968 291.212 210.856 289.804 208.392C288.572 205.928 286.988 203.992 285.052 202.584C283.292 201 280.652 199.856 277.132 199.152C273.788 198.272 269.74 198.008 264.988 198.36C260.94 198.888 257.508 200.56 254.692 203.376C252.052 206.192 250.292 209.36 249.412 212.88C248.708 216.224 248.092 219.568 247.564 222.912C247.212 226.256 247.3 228.632 247.828 230.04C249.06 239.368 252.228 246.584 257.332 251.688C262.436 256.792 268.42 258.728 275.284 257.496Z" fill="#9EC5E1"/>
<path d="M221.803 150.312C220.923 153.656 218.371 155.944 214.147 157.176C210.099 158.408 202.619 159.112 191.707 159.288H176.923L177.451 169.848C177.979 177.064 178.507 192.904 179.035 217.368C179.739 259.08 178.595 281.608 175.603 284.952C174.371 286.184 172.083 287.152 168.739 287.856C165.395 288.384 159.059 288.824 149.731 289.176C143.043 289.528 137.851 289.44 134.155 288.912C130.459 288.208 127.643 287.152 125.707 285.744C123.771 284.16 122.451 281.784 121.747 278.616C121.219 277.208 121.307 257.936 122.011 220.8C122.715 183.488 122.891 163.776 122.539 161.664L122.011 157.704H101.947C92.7954 157.704 87.0754 157.616 84.7874 157.44C82.4994 157.088 80.9154 156.384 80.0354 155.328C78.2754 153.744 77.0434 150.312 76.3394 145.032C75.8114 139.752 75.8994 133.768 76.6034 127.08C77.3074 118.984 78.0114 113.88 78.7154 111.768C79.4194 109.656 80.9154 107.984 83.2034 106.752C89.5394 103.76 118.931 102.176 171.379 102H208.075L213.355 104.904C217.403 107.016 219.955 109.656 221.011 112.824C222.067 115.992 222.595 122.328 222.595 131.832C222.419 142.568 222.155 148.728 221.803 150.312Z" fill="#F25C43"/>
<path d="M-131.467 332.678C-152.368 369.194 -143.968 420.782 -140.46 462.018C-136.781 505.259 -139.936 525.469 -97.9147 552.486C-85.8594 560.237 -70.8727 555.574 -59.2678 551.177C-9.01679 532.14 25.5723 502.556 48.2745 454.289C55.7156 438.468 61.314 422.095 65.2189 404.736C75.1579 360.552 69.5465 313.98 43.6106 273.902C27.4559 248.939 2.28308 249.611 -20.8508 260.491C-57.2626 277.614 -111.086 297.071 -131.467 332.678Z" fill="#FFE8C1"/>
<path opacity="0.6" d="M1737.97 400.949C1720.01 438.999 1732.46 489.764 1739.21 530.595C1746.28 573.411 1744.73 593.807 1788.75 617.426C1801.38 624.202 1815.95 618.372 1827.18 613.074C1875.77 590.132 1907.92 557.913 1926.74 508.005C1932.91 491.647 1937.2 474.883 1939.73 457.27C1946.15 412.44 1936.88 366.456 1907.87 328.549C1889.79 304.937 1864.75 307.593 1842.55 320.262C1807.6 340.204 1755.48 363.845 1737.97 400.949Z" fill="#9EA5E1"/>
<path opacity="0.6" d="M883.538 94.9942C925.45 91.3072 963.009 54.9581 994.861 28.5361C1028.26 0.829426 1046.66 -8.11828 1044.85 -58.0428C1044.33 -72.3654 1031.94 -82.0074 1021.71 -89.0252C977.391 -119.413 933.355 -130.922 880.766 -122.004C863.528 -119.082 846.889 -114.33 830.408 -107.626C788.458 -90.5609 753.425 -59.3655 735.328 -15.1913C724.056 12.3236 738.979 32.6071 761.119 45.3893C795.965 65.5079 842.668 98.5895 883.538 94.9942Z" fill="#F19CEE"/>
<path opacity="0.6" d="M486.538 563.994C528.45 560.307 566.009 523.958 597.861 497.536C631.263 469.829 649.657 460.882 647.848 410.957C647.329 396.635 634.944 386.993 624.709 379.975C580.391 349.587 536.355 338.078 483.766 346.996C466.528 349.918 449.889 354.67 433.408 361.374C391.458 378.439 356.425 409.635 338.328 453.809C327.056 481.324 341.979 501.607 364.119 514.389C398.965 534.508 445.668 567.589 486.538 563.994Z" fill="#9FE19E"/>
<path opacity="0.6" d="M47.969 53.4035C89.3472 45.7808 123.311 6.0521 152.53 -23.2557C183.17 -53.9885 200.638 -64.6307 194.13 -114.162C192.263 -128.372 179.024 -136.803 168.173 -142.825C121.187 -168.899 76.2616 -176.203 24.7478 -162.367C7.8629 -157.832 -8.25385 -151.532 -24.0296 -143.304C-64.1834 -122.359 -96.1185 -87.9995 -109.97 -42.3158C-118.597 -13.8606 -101.828 4.92543 -78.5817 15.563C-41.9934 32.3062 7.62028 60.8366 47.969 53.4035Z" fill="#9EC5E1"/>
<path opacity="0.6" d="M1775.83 -92.0826C1736.43 -77.3059 1709.98 -32.2261 1686.37 1.76092C1661.61 37.4006 1646.28 50.9474 1661.39 98.5639C1665.73 112.224 1680.24 118.198 1691.98 122.218C1742.82 139.628 1788.33 138.923 1836.61 116.248C1852.43 108.815 1867.19 99.7815 1881.28 88.9082C1917.12 61.2323 1942.52 21.7944 1948.13 -25.6126C1951.62 -55.1412 1931.81 -70.6874 1907.06 -77.0737C1868.1 -87.1255 1814.24 -106.492 1775.83 -92.0826Z" fill="#9EC5E1"/>
<path opacity="0.6" d="M1087.74 433.976C1074.38 473.872 1092.7 522.824 1104.2 562.579C1116.25 604.268 1117.11 624.705 1163.6 642.99C1176.94 648.235 1190.72 640.734 1201.25 634.154C1246.81 605.664 1274.95 569.892 1287.78 518.119C1291.99 501.149 1294.28 483.997 1294.72 466.21C1295.83 420.935 1281.23 376.358 1247.96 342.121C1227.24 320.796 1202.68 326.374 1182.12 341.564C1149.76 365.473 1100.77 395.072 1087.74 433.976Z" fill="#F1A891"/>
</g>
<defs>
<clipPath id="clip0_6_2855">
<rect width="1843" height="426" fill="white"/>
</clipPath>
</defs>
</svg>
