<svg width="1174" height="176" viewBox="0 0 1174 176" fill="none" xmlns="http://www.w3.org/2000/svg">
<g clip-path="url(#clip0_517_4157)">
<path d="M1173.48 106.528C1173.36 112.151 1172.32 116.918 1170.36 120.83C1168.41 124.742 1165.66 127.675 1162.11 129.631C1158.69 131.587 1155.08 132.992 1151.29 133.848C1147.63 134.704 1143.41 135.132 1138.64 135.132C1135.95 134.765 1133.2 134.215 1130.39 133.481C1127.58 132.87 1124.34 131.953 1120.67 130.731C1117.13 129.509 1114.01 128.042 1111.32 126.331C1108.76 124.619 1106.56 122.725 1104.72 120.647C1102.89 118.446 1102.03 115.879 1102.16 112.946C1102.4 109.89 1103.75 106.651 1106.19 103.228C1108.02 100.661 1110.47 99.3777 1113.52 99.3777C1116.58 99.2554 1119.64 100.05 1122.69 101.761C1125.87 103.35 1129.11 105 1132.41 106.712C1135.83 108.301 1138.7 109.523 1141.03 110.379C1143.35 111.234 1145.37 110.929 1147.08 109.462C1147.93 108.484 1147.81 107.506 1146.71 106.528C1145.61 105.551 1143.78 104.573 1141.21 103.595C1138.77 102.495 1135.89 101.333 1132.59 100.111C1129.29 98.7665 1125.99 97.2996 1122.69 95.7106C1119.39 93.9993 1116.27 92.1658 1113.34 90.21C1110.41 88.132 1108.15 85.6873 1106.56 82.8759C1104.97 79.9422 1104.17 76.7641 1104.17 73.3415C1104.17 69.9189 1105.52 65.8851 1108.21 61.2402C1111.02 56.5952 1115.17 51.6447 1120.67 46.3886C1126.79 41.8658 1133.75 40.0934 1141.58 41.0713C1149.52 42.0492 1156.37 45.1051 1162.11 50.239C1167.98 55.3729 1169.63 60.2012 1167.06 64.7239C1165.35 67.7798 1163.27 69.7967 1160.83 70.7745C1158.51 71.6302 1156.18 71.6913 1153.86 70.9579C1151.54 70.1022 1149.16 69.1244 1146.71 68.0242C1144.39 66.9241 1142.31 65.8851 1140.48 64.9072C1138.64 63.8071 1137.05 63.4404 1135.71 63.8071C1134.49 64.1738 1133.75 65.4573 1133.51 67.6575C1133.26 69.7355 1134.49 71.8135 1137.18 73.8915C1139.87 75.8473 1143.17 77.8031 1147.08 79.7589C1151.11 81.5924 1155.15 83.6704 1159.18 85.9929C1163.21 88.3153 1166.57 91.249 1169.26 94.7938C1172.07 98.3386 1173.48 102.25 1173.48 106.528Z" fill="#DE9AE9"/>
<path d="M1093.7 74.9916C1093.46 76.3362 1092.67 77.7419 1091.32 79.2087C1089.98 80.5533 1088.45 81.8368 1086.74 83.0591C1085.15 84.2815 1083.01 85.565 1080.32 86.9095C1077.75 88.2541 1075.43 89.3543 1073.35 90.2099C1071.4 91.0656 1068.83 92.1045 1065.65 93.3269C1062.6 94.427 1060.21 95.2827 1058.5 95.8938C1056.91 96.3828 1054.77 97.0551 1052.08 97.9107C1049.39 98.7664 1047.87 99.2553 1047.5 99.3776C1049.09 104.511 1052.02 107.567 1056.3 108.545C1060.58 109.401 1065.1 108.545 1069.87 105.978C1074.76 103.289 1079.1 99.4998 1082.89 94.6104C1084.72 92.4101 1087.47 93.1436 1091.14 96.8106C1095.29 101.089 1097.31 105.428 1097.19 109.829C1097.19 111.418 1096.76 112.762 1095.91 113.862C1090.04 121.319 1082.46 126.697 1073.17 129.998C1063.88 133.176 1054.65 133.542 1045.48 131.098C1036.44 128.775 1029.65 123.58 1025.13 115.513C1021.71 109.523 1019.69 102.922 1019.08 95.7105C1018.47 88.3764 1019.26 81.4089 1021.46 74.8082C1023.66 68.2075 1026.78 62.2791 1030.81 57.023C1034.97 51.6446 1040.23 47.6719 1046.58 45.105C1053.06 42.4158 1059.97 41.6824 1067.3 42.9048C1075.13 44.2494 1081.91 48.0998 1087.65 54.456C1093.52 60.69 1095.54 67.5352 1093.7 74.9916ZM1065.29 63.9904C1064.06 62.4013 1062.29 61.9735 1059.97 62.7069C1057.65 63.3181 1055.38 64.4182 1053.18 66.0073C1050.98 67.4741 1049.09 69.3687 1047.5 71.6912C1046.03 73.8915 1045.48 75.8472 1045.85 77.5585C1046.58 79.2698 1049.46 79.4532 1054.47 78.1086C1060.95 76.5195 1064.8 73.7692 1066.02 69.8577C1066.63 68.0242 1066.39 66.0684 1065.29 63.9904Z" fill="#9AC4E9"/>
<path d="M1008.07 46.3885C1009.54 49.3221 1010.34 57.1452 1010.46 69.8577C1010.7 82.448 1010.52 94.7326 1009.91 106.712C1009.3 118.569 1008.69 126.331 1008.07 129.998C1007.83 131.831 1003.12 132.992 993.956 133.481C984.911 133.97 979.96 133.359 979.105 131.648C977.149 127.247 976.232 113.007 976.355 88.9264C976.477 64.8461 977.394 50.6667 979.105 46.3885C979.716 45.1661 981.427 44.2494 984.239 43.6382C987.172 42.9048 990.289 42.5992 993.59 42.7214C996.89 42.7214 1000.01 43.0881 1002.94 43.8215C1005.87 44.4327 1007.59 45.2884 1008.07 46.3885ZM1008.07 31.9036C1007.46 33.9816 1004.96 35.3873 1000.56 36.1207C996.279 36.7319 992.062 36.7319 987.906 36.1207C983.75 35.5095 981.366 34.6539 980.755 33.5538C978.677 31.4758 978.677 22.3692 980.755 6.23414C982.589 4.4006 987.417 3.42271 995.24 3.30048C1003.06 3.17825 1007.28 4.33948 1007.89 6.78419C1009.85 18.1521 1009.91 26.5252 1008.07 31.9036Z" fill="#147FC7"/>
<path d="M893.684 45.1051C894.173 43.1493 898.024 42.1714 905.236 42.1714C912.57 42.0492 917.887 42.5993 921.187 43.8216C921.065 49.0778 920.882 52.9282 920.637 55.3729C921.371 54.8839 922.471 54.1505 923.938 53.1726C925.405 52.0725 926.81 51.0335 928.155 50.0556C929.499 49.0778 931.027 48.0388 932.739 46.9386C934.45 45.7163 936.1 44.7384 937.689 44.005C939.278 43.1493 940.867 42.477 942.456 41.9881C944.045 41.4992 945.573 41.3158 947.04 41.438C948.629 41.5603 950.035 41.9881 951.257 42.7215C955.78 45.7774 960.547 50.5446 965.559 57.0231C970.571 63.3793 972.282 67.9631 970.693 70.7746C968.615 74.6861 966.537 77.253 964.459 78.4754C962.503 79.6978 960.547 79.8811 958.591 79.0255C956.636 78.0476 954.619 76.8252 952.541 75.3584C950.585 73.8916 948.201 72.6081 945.39 71.508C942.579 70.4079 939.767 70.2245 936.956 70.9579C932.8 71.8136 929.438 74.136 926.871 77.9253C924.427 81.5924 922.838 86.054 922.104 91.3101C921.493 96.5663 921.126 101.639 921.004 106.528C921.004 111.418 921.126 116.307 921.371 121.197C921.615 125.964 921.676 128.959 921.554 130.181C921.432 131.892 919.109 132.931 914.587 133.298C910.186 133.787 905.725 133.542 901.202 132.565C896.679 131.587 894.173 130.364 893.684 128.898C892.462 124.253 891.912 110.073 892.034 86.3596C892.279 62.5237 892.829 48.7722 893.684 45.1051Z" fill="#F6B0A4"/>
<path d="M883.708 89.4765C884.441 105.612 878.635 117.774 866.289 125.964C855.899 132.687 843.92 134.948 830.352 132.748C816.662 130.548 806.394 124.436 799.549 114.412C794.415 106.712 792.215 97.6662 792.948 87.2762C792.826 76.275 795.759 66.924 801.749 59.2232C807.861 51.5223 815.256 46.7551 823.935 44.9216C832.736 42.9658 841.537 42.9047 850.338 44.7383C859.139 46.4496 866.778 51.339 873.257 59.4065C879.735 67.3518 883.219 77.3751 883.708 89.4765ZM840.437 107.995C844.593 107.139 848.137 104.878 851.071 101.211C854.127 97.4218 854.983 92.2879 853.638 85.8094C853.516 85.4427 853.332 84.4037 853.088 82.6924C852.843 80.9811 852.599 79.5143 852.355 78.2919C852.11 77.0696 851.499 75.6027 850.521 73.8914C849.665 72.1801 848.565 70.8355 847.221 69.8577C845.998 68.7575 844.165 67.963 841.72 67.4741C839.398 66.8629 836.586 66.6795 833.286 66.924C830.474 67.2907 828.091 68.452 826.135 70.4077C824.302 72.3635 823.079 74.5637 822.468 77.0084C821.979 79.3309 821.551 81.6534 821.184 83.9759C820.94 86.2983 821.001 87.9485 821.368 88.9264C822.223 95.4049 824.424 100.417 827.969 103.961C831.513 107.506 835.669 108.851 840.437 107.995Z" fill="#F06036"/>
<path d="M777.532 78.4753C777.287 78.9642 776.921 79.392 776.432 79.7587C776.065 80.0032 775.576 80.1865 774.965 80.3088C774.476 80.431 773.865 80.5533 773.131 80.6755C772.52 80.6755 771.726 80.6755 770.748 80.6755C769.892 80.6755 769.036 80.6755 768.181 80.6755C767.447 80.5533 766.531 80.4921 765.43 80.4921C764.33 80.3699 763.291 80.3088 762.313 80.3088C762.313 80.431 762.252 81.2256 762.13 82.6924C762.008 84.037 761.886 85.4427 761.763 86.9095C761.641 88.2541 761.58 89.9043 761.58 91.86C761.702 93.6936 761.886 95.4049 762.13 96.9939C762.497 98.4608 763.047 99.8053 763.78 101.028C764.636 102.25 765.675 103.045 766.897 103.411C768.12 103.778 769.709 103.595 771.664 102.861C773.742 102.128 776.126 100.722 778.815 98.6441C779.915 97.7885 781.627 99.1942 783.949 102.861C786.272 106.406 787.983 110.073 789.083 113.862C790.183 117.652 790.061 120.341 788.716 121.93C785.294 124.252 781.627 126.392 777.715 128.347C773.804 130.181 769.648 131.709 765.247 132.931C760.969 134.276 756.813 134.704 752.779 134.215C748.745 133.848 745.384 132.503 742.695 130.181C739.761 127.492 737.255 123.947 735.177 119.546C733.221 115.024 731.877 110.501 731.143 105.978C730.532 101.456 730.104 96.7495 729.86 91.86C729.615 86.9706 729.738 82.7535 730.227 79.2087C728.882 79.0864 727.171 79.0253 725.093 79.0253C723.015 79.0253 721.426 79.0253 720.325 79.0253C719.348 78.9031 718.37 78.5975 717.392 78.1085C716.536 77.6196 715.925 76.8862 715.558 75.9083C715.436 75.1749 715.375 73.8914 715.375 72.0579C715.375 70.1021 715.436 68.3297 715.558 66.7406C715.803 65.0294 715.986 62.9513 716.108 60.5066C716.353 58.0619 716.475 55.9839 716.475 54.2726C716.475 53.0503 717.514 52.2557 719.592 51.889C721.67 51.4001 724.726 51.0334 728.76 50.7889C729.86 50.7889 730.716 50.7889 731.327 50.7889C731.449 48.7109 731.266 41.4379 730.777 28.9699C730.288 16.5019 730.288 9.4122 730.777 7.7009C731.266 4.76725 734.077 2.99483 739.211 2.38366C744.345 1.77248 749.418 2.13919 754.429 3.48377C759.563 4.70613 762.436 6.11184 763.047 7.7009C764.025 10.1456 764.147 17.1742 763.414 28.7865C762.802 40.3989 762.802 47.4886 763.414 50.0555C763.414 50.1777 765.675 50.1777 770.198 50.0555C774.843 49.9333 777.287 50.3 777.532 51.1556C778.265 53.967 778.632 58.7953 778.632 65.6405C778.632 72.4857 778.265 76.764 777.532 78.4753Z" fill="#FABF3D"/>
<path d="M683.134 57.3897C692.668 62.2791 700.675 69.1854 707.153 78.1086C713.631 86.9096 716.565 94.7327 715.954 101.578C715.709 123.458 698.413 133.481 664.065 131.648C659.176 131.403 654.592 130.731 650.314 129.631C646.158 128.409 642.49 126.881 639.312 125.047C636.256 123.214 633.506 121.319 631.061 119.363C628.739 117.407 626.661 115.207 624.827 112.762C622.994 110.318 621.527 108.301 620.427 106.712C619.449 105 618.471 103.106 617.493 101.028C615.904 97.9719 617.065 92.7158 620.977 85.2594C624.4 78.4142 627.639 74.7472 630.695 74.2582C631.673 74.136 632.528 74.4416 633.262 75.175C635.462 77.6197 637.723 80.0644 640.046 82.5091C642.49 84.8316 645.241 87.3374 648.297 90.0266C651.353 92.7158 654.347 94.916 657.281 96.6273C660.337 98.3386 663.27 99.6832 666.082 100.661C668.893 101.639 671.46 101.761 673.783 101.028C676.105 100.294 678 98.6442 679.467 96.0773C679.956 94.6104 679.283 93.0214 677.45 91.3101C675.616 89.5988 672.988 87.8264 669.566 85.9928C666.143 84.0371 662.293 81.9591 658.014 79.7588C653.736 77.5586 649.397 75.0528 644.996 72.2413C640.718 69.3077 636.807 66.1907 633.262 62.8903C629.717 59.59 626.783 55.7395 624.461 51.3391C622.26 46.8164 621.221 42.0492 621.344 37.0375C621.466 31.7814 622.933 26.892 625.744 22.3693C628.556 17.8466 632.284 14.2406 636.929 11.5514C641.574 8.74 646.769 6.53976 652.514 4.9507C658.381 3.36164 664.432 2.93382 670.666 3.66723C676.9 4.40064 682.828 5.92859 688.451 8.25106C694.196 10.5735 699.452 14.3628 704.219 19.619C709.109 24.7529 712.898 30.9869 715.587 38.321C716.443 40.6435 715.893 43.0882 713.937 45.6551C711.981 48.0998 709.476 49.9945 706.42 51.3391C703.364 52.6837 700.247 53.5393 697.069 53.906C693.89 54.1505 691.507 53.2337 689.918 51.1557C689.184 50.3001 688.023 48.8944 686.434 46.9386C684.967 44.8606 683.745 43.2715 682.767 42.1714C681.911 41.0713 680.75 39.7267 679.283 38.1376C677.939 36.4263 676.655 35.204 675.433 34.4706C674.211 33.6149 672.805 32.8204 671.216 32.087C669.749 31.3536 668.221 31.048 666.632 31.1702C665.165 31.2924 663.576 31.7203 661.865 32.4537C654.164 35.9985 657.831 42.4159 672.866 51.7058C676.289 53.7838 679.711 55.6784 683.134 57.3897Z" fill="#3C9F73"/>
<path d="M565.368 89.4765C566.101 105.612 560.295 117.774 547.949 125.964C537.559 132.687 525.58 134.948 512.012 132.748C498.322 130.548 488.054 124.436 481.209 114.412C476.075 106.712 473.875 97.6662 474.608 87.2762C474.486 76.275 477.42 66.924 483.409 59.2232C489.521 51.5223 496.916 46.7551 505.595 44.9216C514.396 42.9658 523.197 42.9047 531.998 44.7383C540.799 46.4496 548.438 51.339 554.917 59.4065C561.395 67.3518 564.879 77.3751 565.368 89.4765ZM522.097 107.995C526.253 107.139 529.798 104.878 532.731 101.211C535.787 97.4218 536.643 92.2879 535.298 85.8094C535.176 85.4427 534.993 84.4037 534.748 82.6924C534.504 80.9811 534.259 79.5143 534.015 78.2919C533.77 77.0696 533.159 75.6027 532.181 73.8914C531.325 72.1801 530.225 70.8355 528.881 69.8577C527.658 68.7575 525.825 67.963 523.38 67.4741C521.058 66.8629 518.246 66.6795 514.946 66.924C512.134 67.2907 509.751 68.4519 507.795 70.4077C505.962 72.3635 504.739 74.5637 504.128 77.0084C503.639 79.3309 503.211 81.6534 502.845 83.9759C502.6 86.2983 502.661 87.9485 503.028 88.9264C503.884 95.4049 506.084 100.417 509.629 103.961C513.174 107.506 517.33 108.851 522.097 107.995Z" fill="#F9AFA1"/>
<path d="M459.192 78.4753C458.947 78.9642 458.581 79.392 458.092 79.7587C457.725 80.0032 457.236 80.1865 456.625 80.3088C456.136 80.431 455.525 80.5533 454.791 80.6755C454.18 80.6755 453.386 80.6755 452.408 80.6755C451.552 80.6755 450.697 80.6755 449.841 80.6755C449.107 80.5533 448.191 80.4921 447.091 80.4921C445.99 80.3699 444.951 80.3088 443.974 80.3088C443.974 80.431 443.912 81.2256 443.79 82.6924C443.668 84.037 443.546 85.4427 443.424 86.9095C443.301 88.2541 443.24 89.9043 443.24 91.86C443.362 93.6936 443.546 95.4049 443.79 96.9939C444.157 98.4608 444.707 99.8053 445.44 101.028C446.296 102.25 447.335 103.045 448.557 103.411C449.78 103.778 451.369 103.595 453.325 102.861C455.403 102.128 457.786 100.722 460.475 98.6441C461.575 97.7885 463.287 99.1942 465.609 102.861C467.932 106.406 469.643 110.073 470.743 113.862C471.843 117.652 471.721 120.341 470.376 121.93C466.954 124.252 463.287 126.392 459.375 128.347C455.464 130.181 451.308 131.709 446.907 132.931C442.629 134.276 438.473 134.704 434.439 134.215C430.405 133.848 427.044 132.503 424.355 130.181C421.421 127.492 418.915 123.947 416.837 119.546C414.882 115.024 413.537 110.501 412.804 105.978C412.192 101.456 411.765 96.7495 411.52 91.86C411.276 86.9706 411.398 82.7535 411.887 79.2087C410.542 79.0864 408.831 79.0253 406.753 79.0253C404.675 79.0253 403.086 79.0253 401.986 79.0253C401.008 78.9031 400.03 78.5975 399.052 78.1085C398.196 77.6196 397.585 76.8862 397.218 75.9083C397.096 75.1749 397.035 73.8914 397.035 72.0579C397.035 70.1021 397.096 68.3297 397.218 66.7406C397.463 65.0294 397.646 62.9513 397.769 60.5066C398.013 58.0619 398.135 55.9839 398.135 54.2726C398.135 53.0503 399.174 52.2557 401.252 51.889C403.33 51.4001 406.386 51.0334 410.42 50.7889C411.52 50.7889 412.376 50.7889 412.987 50.7889C413.109 48.7109 412.926 41.4379 412.437 28.9699C411.948 16.5019 411.948 9.4122 412.437 7.7009C412.926 4.76725 415.737 2.99483 420.871 2.38366C426.005 1.77248 431.078 2.13919 436.089 3.48377C441.223 4.70613 444.096 6.11184 444.707 7.7009C445.685 10.1456 445.807 17.1742 445.074 28.7865C444.463 40.3989 444.463 47.4886 445.074 50.0555C445.074 50.1777 447.335 50.1777 451.858 50.0555C456.503 49.9333 458.947 50.3 459.192 51.1556C459.925 53.967 460.292 58.7953 460.292 65.6405C460.292 72.4857 459.925 76.764 459.192 78.4753Z" fill="#147FC7"/>
<path d="M347.734 106.528C347.612 112.151 346.573 116.918 344.617 120.83C342.662 124.742 339.911 127.675 336.366 129.631C332.944 131.587 329.338 132.992 325.549 133.848C321.882 134.704 317.664 135.132 312.897 135.132C310.208 134.765 307.458 134.215 304.646 133.481C301.835 132.87 298.596 131.953 294.929 130.731C291.384 129.509 288.267 128.042 285.578 126.331C283.011 124.619 280.81 122.725 278.977 120.647C277.143 118.446 276.288 115.879 276.41 112.946C276.654 109.89 277.999 106.651 280.444 103.228C282.277 100.661 284.722 99.3777 287.778 99.3777C290.834 99.2554 293.89 100.05 296.945 101.761C300.124 103.35 303.363 105 306.663 106.712C310.086 108.301 312.958 109.523 315.281 110.379C317.603 111.234 319.62 110.929 321.331 109.462C322.187 108.484 322.065 107.506 320.965 106.528C319.865 105.551 318.031 104.573 315.464 103.595C313.019 102.495 310.147 101.333 306.847 100.111C303.546 98.7665 300.246 97.2996 296.945 95.7106C293.645 93.9993 290.528 92.1658 287.594 90.21C284.661 88.132 282.399 85.6873 280.81 82.8759C279.221 79.9422 278.427 76.7641 278.427 73.3415C278.427 69.9189 279.771 65.8851 282.461 61.2402C285.272 56.5952 289.428 51.6447 294.929 46.3886C301.04 41.8658 308.008 40.0934 315.831 41.0713C323.776 42.0492 330.621 45.1051 336.366 50.239C342.234 55.3729 343.884 60.2012 341.317 64.7239C339.606 67.7798 337.528 69.7967 335.083 70.7745C332.76 71.6302 330.438 71.6913 328.116 70.9579C325.793 70.1022 323.409 69.1244 320.965 68.0242C318.642 66.9241 316.564 65.8851 314.731 64.9072C312.897 63.8071 311.308 63.4404 309.964 63.8071C308.741 64.1738 308.008 65.4573 307.763 67.6575C307.519 69.7355 308.741 71.8135 311.43 73.8915C314.12 75.8473 317.42 77.8031 321.331 79.7589C325.365 81.5924 329.399 83.6704 333.433 85.9929C337.467 88.3153 340.828 91.249 343.517 94.7938C346.329 98.3386 347.734 102.25 347.734 106.528Z" fill="#FABF3D"/>
<path d="M206.506 144.482C209.073 143.749 211.701 143.505 214.39 143.749C217.08 144.116 219.646 144.849 222.091 145.949C224.658 147.172 226.981 147.905 229.059 148.15C231.137 148.394 232.909 148.088 234.376 147.233C235.965 146.499 237.126 144.299 237.86 140.632C238.715 136.965 239.021 131.831 238.776 125.23C236.332 127.675 232.665 129.509 227.775 130.731C222.886 132.076 217.874 132.565 212.74 132.198C207.606 131.953 202.9 130.303 198.622 127.247C194.344 124.069 191.593 119.608 190.371 113.862C189.515 107.262 189.149 99.8665 189.271 91.6767C189.393 83.487 189.638 74.3193 190.004 64.1737C190.493 53.906 190.677 48.0998 190.554 46.7552C190.554 45.6551 192.816 45.0439 197.339 44.9217C201.861 44.6772 206.384 45.0439 210.907 46.0218C215.429 46.8774 217.63 48.0998 217.507 49.6888C215.796 90.3933 218.424 110.501 225.392 110.012C227.714 109.768 229.67 108.423 231.259 105.978C232.97 103.534 234.254 100.478 235.109 96.8106C236.087 93.1436 236.821 88.5597 237.31 83.0591C237.921 77.4363 238.287 72.1191 238.41 67.1074C238.654 61.9735 238.776 56.1062 238.776 49.5055C238.776 46.9386 241.16 45.3495 245.927 44.7383C250.817 44.1271 255.645 44.3716 260.412 45.4717C265.301 46.5718 267.746 47.9164 267.746 49.5055C267.746 51.828 267.746 58.062 267.746 68.2075C267.868 78.3531 267.868 87.154 267.746 94.6104C267.746 101.945 267.685 107.384 267.563 110.929C267.318 114.963 267.074 118.446 266.829 121.38C266.585 124.314 266.096 127.981 265.363 132.381C264.751 136.782 264.018 140.571 263.162 143.749C262.307 147.049 261.023 150.533 259.312 154.2C257.723 157.989 255.889 161.168 253.811 163.735C251.733 166.301 249.105 168.624 245.927 170.702C242.871 172.78 239.388 174.247 235.476 175.102C224.597 177.425 215.368 175.164 207.79 168.318C202.289 163.429 199.783 158.234 200.272 152.733C200.639 148.822 202.717 146.072 206.506 144.482Z" fill="#36A173"/>
<path d="M181.679 89.4765C182.412 105.612 176.606 117.774 164.26 125.964C153.87 132.687 141.891 134.948 128.323 132.748C114.632 130.548 104.365 124.436 97.5195 114.412C92.3856 106.712 90.1854 97.6662 90.9188 87.2762C90.7965 76.275 93.7302 66.924 99.7197 59.2232C105.831 51.5223 113.227 46.7551 121.905 44.9216C130.706 42.9658 139.507 42.9047 148.308 44.7383C157.109 46.4496 164.749 51.339 171.227 59.4065C177.706 67.3518 181.19 77.3751 181.679 89.4765ZM138.407 107.995C142.563 107.139 146.108 104.878 149.042 101.211C152.098 97.4218 152.953 92.2879 151.609 85.8094C151.486 85.4427 151.303 84.4037 151.059 82.6924C150.814 80.9811 150.57 79.5143 150.325 78.2919C150.081 77.0695 149.47 75.6027 148.492 73.8914C147.636 72.1801 146.536 70.8355 145.191 69.8577C143.969 68.7575 142.135 67.963 139.691 67.4741C137.368 66.8629 134.557 66.6795 131.256 66.924C128.445 67.2907 126.061 68.4519 124.106 70.4077C122.272 72.3635 121.05 74.5637 120.439 77.0084C119.95 79.3309 119.522 81.6534 119.155 83.9759C118.911 86.2983 118.972 87.9485 119.339 88.9264C120.194 95.4049 122.394 100.417 125.939 103.961C129.484 107.506 133.64 108.851 138.407 107.995Z" fill="#9EC5E1"/>
<path d="M101.263 33.5536C100.652 35.8761 98.8798 37.4652 95.9461 38.3208C93.1347 39.1765 87.9397 39.6654 80.3611 39.7877H70.0933L70.46 47.1218C70.8267 52.1334 71.1934 63.1346 71.5601 80.1254C72.0491 109.095 71.2546 124.741 69.1766 127.064C68.3209 127.919 66.7318 128.592 64.4094 129.081C62.0869 129.447 57.6864 129.753 51.2079 129.997C46.563 130.242 42.957 130.181 40.3901 129.814C37.8232 129.325 35.8674 128.592 34.5228 127.614C33.1782 126.514 32.2614 124.864 31.7725 122.663C31.4058 121.685 31.4669 108.301 31.9559 82.509C32.4448 56.595 32.567 42.9047 32.3226 41.4378L31.9559 38.6875H18.021C11.6648 38.6875 7.6921 38.6264 6.10304 38.5042C4.51398 38.2597 3.41386 37.7708 2.80269 37.0374C1.58033 35.9372 0.724682 33.5536 0.23574 29.8866C-0.130967 26.2195 -0.0698489 22.0635 0.419093 17.4186C0.908035 11.7957 1.39698 8.2509 1.88592 6.78407C2.37486 5.31725 3.41386 4.15601 5.00292 3.30036C9.4034 1.22236 29.8167 0.122241 66.2429 0H91.729L95.3961 2.01689C98.2075 3.48371 99.9799 5.31724 100.713 7.51748C101.447 9.71772 101.813 14.1182 101.813 20.7189C101.691 28.1753 101.508 32.4535 101.263 33.5536Z" fill="#F25C43"/>
</g>
<defs>
<clipPath id="clip0_517_4157">
<rect width="1173.48" height="175.98" fill="white"/>
</clipPath>
</defs>
</svg>
